<svg xmlns="http://www.w3.org/2000/svg" width="67" height="35"><defs><linearGradient id="a" x1=".001%" y1="50.002%" y2="50.002%"><stop offset="0%" stop-color="#008EB3"/><stop offset="100%" stop-color="#7F8A1B"/></linearGradient></defs><g fill="none"><path fill="#000" d="M37.326 24.033h-.122c-.266 0-.417.142-.465.432l-.717 4.905h-1.404l.753-4.947c.153-1.064.607-1.517 1.517-1.517h.202l-.017-.08-.326-1.676 1.537-.278 1.743 8.36-1.555.278-1.146-5.477zm4.194 5.337c-.005-.011-.012-.022-.022-.039-.717-1.293-1.112-2.76-1.112-4.13 0-2.235.992-4.016 1.126-4.19h2.299v1.182h-1.297c-.09 0-.431.937-.519 2.258l-.003.04h1.819v1.182h-1.835v.039c.075 1.465.5 2.443.504 2.453l.01.02h1.32v1.185h-2.29zm-10.79 0c-.005-.011-.014-.022-.023-.04-.727-1.304-1.13-2.771-1.13-4.129 0-2.243 1.016-3.996 1.132-4.19h2.423c.15.203 1.127 1.987 1.127 4.19 0 1.356-.394 2.823-1.11 4.126l-.023.043H30.73zm.977-7.177c-.088 0-.539 1.284-.539 3.008 0 1.789.499 2.953.503 2.964l.01.021h.475l.01-.02c.006-.012.52-1.175.52-2.965 0-1.762-.463-3.008-.555-3.008h-.424zM27.17 29.37v-7.177h-1.907v7.177h-1.517v-8.36h4.941v8.359H27.17zm-1.82-15.893h-.124c-.264 0-.415.141-.462.431l-.717 4.904h-1.406l.753-4.947c.154-1.063.609-1.516 1.518-1.516h.202l-.018-.082-.325-1.675 1.535-.277 1.744 8.36-1.553.277-1.146-5.475zm26.869 5.299l-.023-.041c-.717-1.305-1.111-2.77-1.111-4.128 0-2.204.976-3.988 1.128-4.188h2.422c.116.193 1.133 1.947 1.133 4.188 0 1.358-.403 2.825-1.131 4.128l-.022.04H52.22zm.993-7.175c-.092 0-.555 1.245-.555 3.006 0 1.81.516 2.954.52 2.966l.012.022h.473l.012-.022c.003-.012.501-1.159.501-2.966 0-1.724-.451-3.006-.538-3.006h-.425zm-7.476 7.175v-8.357h4.476v1.6c.012.618-.14 1.088-.45 1.396-.293.296-.733.444-1.306.444h-1.242v.711h1.427c1.223 0 1.87.604 1.87 1.75v2.456h-4.775zm1.498-1.181h1.833v-.967c0-.6-.28-.893-.853-.893h-.98v1.86zm-.02-4.917h.833c.622 0 .854-.228.854-.841V11.6h-1.688v1.078zm-5.93 6.098a2.723 2.723 0 0 0-.05-.094c-.722-1.37-1.089-2.742-1.089-4.075 0-2.294 1.034-4.036 1.13-4.189h2.422c.096.153 1.13 1.895 1.13 4.19 0 1.357-.396 2.824-1.113 4.126l-.022.042h-2.409zm.989-7.175c-.092 0-.555 1.245-.555 3.006 0 1.81.515 2.954.52 2.966l.01.022h.474l.01-.022c.007-.012.523-1.157.523-2.966 0-1.761-.465-3.006-.557-3.006h-.425zm-4.238 7.175v-2.148c0-.6-.279-.893-.852-.893h-.926v3.04H34.74V10.42h1.517v2.259h.74c.587 0 .872-.282.872-.858V10.42h1.517v1.6c0 1.152-.713 1.84-1.906 1.84h-1.223v.711h1.424c1.213 0 1.853.6 1.853 1.73v2.476h-1.5zm-5.905 0V13.76l-2.018 1.097v3.918h-1.498v-8.357h1.498v3.013l2.018-1.099V10.42h1.518v8.358H32.13v-.001zm-11.916 0c.018-.182.037-.417.061-.693.025-.285.053-.613.082-.967l.005-.04h-.065a2.53 2.53 0 0 1-.25-.01c-.964-.039-1.495-.527-1.667-1.537l-.919-4.955 1.536-.295.954 5.207c.064.355.192.423.481.452l.037.003.003-.037c.056-.56.11-1.076.166-1.53.097-.872.407-2.815.877-3.956h1.744l-.193 1.419h-.586l-.01.024c-.16.447-.406 1.68-.5 2.541a87.24 87.24 0 0 0-.423 4.374h-1.333zm-4.63 0v-2.148c0-.61-.265-.893-.834-.893h-.943v3.04h-1.5V10.42h1.5v2.259h.74c.597 0 .889-.282.889-.858V10.42h1.516v1.6c0 1.152-.718 1.84-1.925 1.84h-1.22v.711h1.425c1.235 0 1.886.6 1.886 1.73v2.476h-1.534z"/><path fill="url(#a)" d="M59.528 1.924c.187.886.363 1.71.487 2.325C51.652 1.479 42.258.014 32.63 0h-.14c-7.314 0-14.498.839-21.197 2.45L8.735.88s-.354.096-.948.267L10.37 2.7c-.167.043-.334.085-.501.13L7.315 1.283c-.262.076-.55.163-.865.258l2.543 1.521-.464.128-2.511-1.519c-.282.086-.576.179-.884.274L7.611 3.45l-.474.14-2.462-1.499c-.273.087-.55.178-.837.272l2.45 1.482-.479.147-2.422-1.479c-.272.09-.546.185-.824.28l2.416 1.462-.468.151-2.393-1.459-.805.29L3.7 4.678c-.152.05-.303.103-.454.156L.88 3.399c-.296.11-.59.222-.88.336 1.02.66 3.182 1.96 3.182 1.96s-.901 2.09-1.498 3.536a88.932 88.932 0 0 1 4.401-1.49l1.227-1.68-.588 1.481a93.709 93.709 0 0 1 1.46-.429L9.32 5.61l-.557 1.338c1.047-.293 1.683-.45 1.683-.45l1.108-2.564c6.61-1.597 13.706-2.427 20.935-2.427h.138c9.487.014 18.732 1.456 26.957 4.18-.436.356-1.047.84-1.785 1.382 0 0 4.95.31 8.732.799l.006-.02c-3.07-2.798-7.01-5.923-7.01-5.923zm4.542 4.829l-.166-.064C53.808 2.842 43.578.972 32.628.972h-.131c-9.942 0-19.729 1.578-28.305 4.565l-.018.006-.468-.295.083-.029C12.257 2.199 22.453.535 32.497.535h.132c9.943.015 19.725 1.6 28.294 4.584l-.259-1.22.087.066c1.511 1.168 3.337 2.763 3.337 2.763l-.018.025z"/></g></svg>