<svg xmlns="http://www.w3.org/2000/svg" width="173" height="91"><defs><linearGradient id="a" x1=".001%" y1="50.002%" y2="50.002%"><stop offset="0%" stop-color="#008EB3"/><stop offset="100%" stop-color="#7F8A1B"/></linearGradient></defs><g fill="none"><path fill="#000" d="M97.049 76.759h-.32c-.69 0-1.083.37-1.208 1.124l-1.863 12.754h-3.651l1.958-12.863c.398-2.765 1.578-3.943 3.943-3.943h.527l-.045-.21-.848-4.356 3.996-.723 4.533 21.735-4.044.723-2.978-14.241zm10.904 13.877c-.013-.029-.031-.056-.058-.1-1.864-3.364-2.892-7.177-2.892-10.739 0-5.812 2.58-10.44 2.93-10.893h5.975v3.073h-3.372c-.231 0-1.12 2.436-1.349 5.87l-.007.103h4.728v3.073h-4.77l.002.103c.192 3.81 1.298 6.352 1.308 6.378l.025.053h3.435v3.079h-5.955zm-28.053 0c-.015-.029-.039-.057-.062-.105-1.89-3.389-2.936-7.204-2.936-10.734 0-5.831 2.639-10.389 2.941-10.893h6.3c.39.528 2.93 5.166 2.93 10.893 0 3.527-1.023 7.34-2.888 10.729a4.175 4.175 0 0 1-.058.11H79.9zm2.538-18.66c-.228 0-1.401 3.339-1.401 7.821 0 4.65 1.296 7.679 1.308 7.708l.023.053h1.238l.025-.053c.015-.029 1.355-3.055 1.355-7.708 0-4.581-1.207-7.82-1.445-7.82h-1.103zm-11.793 18.66v-18.66h-4.958v18.66h-3.945V68.904H74.59v21.732h-3.944zm-4.731-41.32h-.323c-.687 0-1.08.366-1.203 1.12l-1.863 12.75H58.87l1.957-12.863c.402-2.763 1.583-3.94 3.946-3.94h.527l-.048-.214-.845-4.355 3.992-.72 4.534 21.736-4.039.72-2.98-14.234zm69.857 13.776c-.015-.025-.03-.06-.058-.107-1.865-3.391-2.89-7.202-2.89-10.731 0-5.73 2.538-10.369 2.934-10.89h6.298c.3.5 2.945 5.061 2.945 10.89 0 3.53-1.049 7.343-2.942 10.73-.027.048-.044.083-.057.108h-6.23zm2.584-18.656c-.24 0-1.445 3.238-1.445 7.818 0 4.703 1.343 7.679 1.355 7.71l.029.057h1.231l.03-.058c.008-.03 1.303-3.012 1.303-7.71 0-4.482-1.173-7.817-1.399-7.817h-1.104zm-19.44 18.656V41.363h11.64v4.162c.03 1.605-.364 2.829-1.169 3.628-.764.77-1.909 1.154-3.398 1.154h-3.229v1.85h3.71c3.18 0 4.86 1.57 4.86 4.548v6.387h-12.413zm3.896-3.071h4.766v-2.514c0-1.561-.726-2.322-2.217-2.322h-2.55v4.836zm-.054-12.784h2.168c1.618 0 2.219-.593 2.219-2.186v-.616h-4.387v2.802zM107.34 63.092a7.08 7.08 0 0 0-.129-.244c-1.876-3.563-2.83-7.128-2.83-10.595 0-5.965 2.688-10.494 2.936-10.89h6.3c.247.396 2.936 4.926 2.936 10.89 0 3.53-1.03 7.344-2.892 10.73-.024.048-.044.083-.058.108h-6.263zm2.572-18.656c-.238 0-1.443 3.238-1.443 7.818 0 4.703 1.341 7.679 1.355 7.71l.025.057h1.232l.026-.058c.019-.03 1.358-3.006 1.358-7.71 0-4.58-1.206-7.817-1.447-7.817h-1.106zM98.893 63.092v-5.585c0-1.561-.724-2.322-2.215-2.322H94.27v7.907h-3.942V41.363h3.942v5.874h1.926c1.526 0 2.265-.733 2.265-2.23v-3.644h3.944v4.162c0 2.995-1.852 4.782-4.954 4.782h-3.18v1.85h3.703c3.153 0 4.816 1.56 4.816 4.5v6.435h-3.897zm-15.351 0v-13.04l-5.247 2.854v10.186H74.4V41.363h3.895v7.834l5.247-2.857v-4.976h3.946v21.73h-3.946v-.002zm-30.982 0c.046-.474.096-1.085.158-1.803.064-.74.137-1.592.213-2.512l.013-.107h-.169c-.22 0-.433-.005-.649-.026-2.508-.098-3.888-1.368-4.337-3.993l-2.387-12.884L49.394 41l2.482 13.539c.167.92.498 1.098 1.25 1.175l.096.008.008-.098c.146-1.454.288-2.797.43-3.977.254-2.268 1.059-7.318 2.28-10.285h4.536l-.503 3.689h-1.522l-.025.063c-.42 1.162-1.056 4.368-1.302 6.607-.418 3.346-.76 6.857-1.099 11.37H52.56zm-12.04 0v-5.585c0-1.587-.69-2.322-2.166-2.322H35.9v7.907H32V41.363h3.9v5.874h1.922c1.555 0 2.313-.733 2.313-2.23v-3.644h3.943v4.162c0 2.995-1.867 4.782-5.005 4.782H35.9v1.85h3.706c3.21 0 4.903 1.56 4.903 4.5v6.435H40.52z"/><path fill="#231F20" d="M53.955 26.742l.083-.84h-.041l-.318.767-1.525 2.525h-.212l-1.616-2.534-.3-.759h-.044l.118.832v3.764h-.654v-5.594h.52l1.835 2.861.276.624h.017l.26-.639 1.751-2.846h.546v5.594h-.696v-3.755zm2.64-.72l1.073 2.005.167.32c.05.159.1.31.16.464h.042l.133-.591.915-2.199h.685l-1.281 2.972c-.47 1.087-.705 1.543-1.392 1.543-.31 0-.47-.04-.644-.152l.191-.537c.179.074.311.09.438.098a.601.601 0 0 0 .233-.049c.152-.071.262-.264.361-.583l-1.851-3.293h.77v.002zm4.356 2.406v-.538h.125c.739 0 1.518-.086 1.518-.7 0-.506-.438-.657-.965-.657-.493 0-.878.095-1.071.184l-.175-.536c.2-.11.728-.24 1.355-.24.764 0 1.56.24 1.56 1.111 0 .44-.307.856-.922 1.024v.03c.673.098 1.073.464 1.073 1.08 0 .974-.953 1.39-1.875 1.39-.629 0-1.05-.08-1.307-.193l.168-.583c.21.095.61.192 1.181.192.542 0 1.113-.233 1.13-.753a.774.774 0 0 0-.042-.239c-.14-.416-.643-.574-1.399-.574h-.354v.002zm3.937 2.07v-4.476h2.756v.584h-2.096v1.311h1.919v.583h-1.919v1.415h2.129v.583z"/><path fill="#000" d="M71.287 25.513c.705 0 1.08-.262 1.19-.76l-.555-.102c-.049.287-.267.44-.636.44-.36 0-.593-.144-.629-.448l-.62.128c.07.535.556.742 1.25.742zm1.257.509l-2.312 2.813-.319.56h-.034l.06-.535v-2.838h-.664v4.476h.42l2.304-2.813.318-.552h.025l-.041.535v2.83h.663v-4.476h-.42z"/><path fill="#231F20" d="M74.663 27.942h2.027v.71h-2.027zm3.737.486v-.538h.122c.741 0 1.52-.086 1.52-.7 0-.506-.436-.657-.965-.657-.493 0-.878.095-1.07.184l-.178-.536c.203-.11.73-.24 1.357-.24.764 0 1.56.24 1.56 1.111 0 .44-.31.856-.921 1.024v.03c.672.098 1.07.464 1.07 1.08 0 .974-.953 1.39-1.874 1.39-.63 0-1.048-.08-1.306-.193l.166-.583c.21.095.613.192 1.181.192.546 0 1.115-.233 1.134-.753a.776.776 0 0 0-.044-.239c-.142-.416-.645-.574-1.4-.574h-.353v.002zm6.728 2.07l-.486-1.151h-1.785l-.477 1.15h-.654l1.869-4.53h.352l1.877 4.53h-.696zm-1.55-2.918l-.52 1.216h1.4l-.528-1.222-.169-.688h-.007l-.177.694zm6.225 2.918v-3.892h-2.197v3.892h-.663v-4.476h3.52v4.476zm4.15-4.556c1.375 0 2.062.887 2.062 2.32 0 1.485-.747 2.316-2.062 2.316-1.423 0-2.043-.936-2.043-2.126 0-1.599.679-2.51 2.043-2.51zm0 4.052c.85 0 1.359-.537 1.359-1.734 0-.928-.403-1.735-1.359-1.735-.855 0-1.348.568-1.348 1.44 0 1.022.344 2.029 1.348 2.029zm5.645-1.894v.032c.56.08 1.08.392 1.08 1.096 0 .99-.98 1.324-1.927 1.324-.334 0-.92 0-1.29-.088v-4.403a9.534 9.534 0 0 1 1.4-.095c.77 0 1.668.2 1.668.96 0 .47-.228 1.006-.93 1.174zm-1.482-.144h.36c.66 0 1.368-.207 1.368-.766 0-.497-.495-.664-1.024-.664-.302 0-.579.008-.703.033v1.397h-.001zm1.867 1.279c0-.63-.67-.751-1.264-.751h-.603v1.47c.125.049.544.04.728.04.544 0 1.14-.192 1.14-.76zm2.143 1.263v-4.476h2.756v.584h-2.094v1.311h1.92v.583h-1.92v1.415h2.128v.583zm8.238-.583v1.649h-.453l-.108-1.067h-3.444l-.11 1.067h-.459v-1.65h.51c.143-.2.705-1.295.705-3.892h2.714v3.893h.646zm-1.3 0v-3.309h-1.449c-.05 1.742-.325 2.79-.617 3.309h2.066zm5.503.583v-1.982h-2.288v1.98h-.661v-4.475h.661v1.903h2.288V26.02h.663v4.476h-.663zm5.334 0v-2.83l.042-.535h-.025l-.318.552-2.305 2.813h-.42v-4.476h.664v2.839l-.058.535h.035l.316-.561 2.313-2.813h.419v4.476h-.663zm5.041 0l-1.752-2.014h-.317v2.014h-.663v-4.476h.663v2.045l.298-.087 1.62-1.958h.77l-1.407 1.702c-.066.073-.151.136-.227.208l-.318.222.368.25 1.803 2.093h-.838z"/><path fill="url(#a)" d="M154.773 5.003c.487 2.303.943 4.444 1.267 6.044C134.295 3.845 109.87.037 84.84 0h-.366C65.456 0 46.78 2.18 29.363 6.37l-6.651-4.08s-.921.247-2.467.692l6.72 4.036c-.434.11-.87.22-1.304.336L19.018 3.34a208.3 208.3 0 0 0-2.248.67l6.611 3.956c-.404.11-.805.22-1.206.332l-6.53-3.949c-.732.224-1.497.463-2.296.712l6.44 3.912c-.412.12-.822.242-1.232.364L12.154 5.44a321.2 321.2 0 0 0-2.175.706L16.35 10c-.413.127-.83.253-1.245.383l-6.3-3.846c-.707.235-1.42.481-2.142.73l6.281 3.799c-.405.129-.808.26-1.215.393L5.508 7.666c-.697.248-1.393.498-2.093.753l6.203 3.742c-.396.133-.788.27-1.18.407l-6.15-3.731c-.77.286-1.533.577-2.288.875 2.653 1.714 8.272 5.096 8.272 5.096S5.93 20.24 4.38 24a232.317 232.317 0 0 1 11.442-3.875l3.191-4.364-1.53 3.849c1.385-.42 2.657-.791 3.794-1.116l2.959-3.91-1.448 3.48c2.723-.763 4.375-1.17 4.375-1.17l2.88-6.67c17.186-4.15 35.635-6.308 54.433-6.308h.358c24.665.036 48.702 3.785 70.087 10.868-1.134.924-2.72 2.181-4.641 3.594 0 0 12.872.807 22.704 2.076L173 20.4c-7.984-7.273-18.227-15.397-18.227-15.397zm11.81 12.554l-.433-.165C139.901 7.389 113.303 2.526 84.833 2.526h-.341c-25.848 0-51.295 4.105-73.592 11.87l-.047.016-1.218-.766.215-.077C31.867 5.716 58.377 1.391 84.492 1.391h.344c25.852.04 51.285 4.16 73.563 11.918l-.671-3.173.224.174c3.93 3.036 8.676 7.182 8.676 7.182l-.046.065z"/></g></svg>