<?xml version="1.0" encoding="UTF-8"?>
<!DOCTYPE svg PUBLIC "-//W3C//DTD SVG 1.1//EN" "http://www.w3.org/Graphics/SVG/1.1/DTD/svg11.dtd">
<svg xmlns="http://www.w3.org/2000/svg" xmlns:xlink="http://www.w3.org/1999/xlink">
	<defs>
		<rect id="instagram-hover-a" width="70" height="70" rx="35"/>
		<linearGradient id="instagram-hover-b" x1="17.939%" x2="83.162%" y1="15.466%" y2="85.204%">
			<stop offset="0%" stop-color="#395DFA"/>
			<stop offset="21.653%" stop-color="#544CED"/>
			<stop offset="44.764%" stop-color="#903ACD"/>
			<stop offset="68.339%" stop-color="#D53592"/>
			<stop offset="100%" stop-color="#F4306D"/>
		</linearGradient>
		<filter id="instagram-hover-d" width="501.5%" height="501.5%" x="-200.8%" y="-200.8%" filterUnits="objectBoundingBox">
			<feGaussianBlur in="SourceGraphic" stdDeviation="50"/>
		</filter>
		<filter id="instagram-hover-e" width="333.4%" height="333.4%" x="-116.7%" y="-116.7%" filterUnits="objectBoundingBox">
			<feGaussianBlur in="SourceGraphic" stdDeviation="24"/>
		</filter>
		<filter id="instagram-hover-f" width="348.4%" height="348.4%" x="-124.2%" y="-124.2%" filterUnits="objectBoundingBox">
			<feGaussianBlur in="SourceGraphic" stdDeviation="21.274"/>
		</filter>
		<filter id="instagram-hover-g" width="416.2%" height="416.2%" x="-158.1%" y="-158.1%" filterUnits="objectBoundingBox">
			<feGaussianBlur in="SourceGraphic" stdDeviation="24"/>
		</filter>
		<filter id="instagram-hover-h" width="831%" height="831%" x="-365.5%" y="-365.5%" filterUnits="objectBoundingBox">
			<feGaussianBlur in="SourceGraphic" stdDeviation="48.382"/>
		</filter>
		<path id="ticket-a" d="M23.213 10.545l-2.678-8.232a.454.454 0 0 0-.572-.29L.313 8.4a.453.453 0 0 0-.29.571L1.29 12.87l-.001.022v8.656c0 .25.203.453.453.453h20.662c.25 0 .454-.203.454-.453V12.89a.454.454 0 0 0-.454-.453h-3.555l4.073-1.322a.453.453 0 0 0 .291-.571zm-1.263 2.8v7.748H2.196v-7.748H4.71v5.05a.454.454 0 0 0 .908 0v-5.05H21.95zm-6.037-.907H2.104L1.026 9.123l2.392-.776.915 2.777a.454.454 0 0 0 .862-.283L4.28 8.066l15.531-5.041 2.398 7.369-6.297 2.044z"/>
	</defs>
<symbol id="arrow-back-event" viewBox="0 0 24 24">
	<path fill="#FFF" fill-rule="evenodd" d="M20 11H7.83l5.59-5.59L12 4l-8 8 8 8 1.41-1.41L7.83 13H20z"/>
</symbol>
<symbol id="arrow-bottom" viewBox="0 0 18 32">
	<path fill="#FFF" d="M17.543 1.839L5.98 23.589l3.419.75.513.274-9.496 7.21.667-11.905.513.273 2.534 2.414L15.694.855z"/>
</symbol>
<symbol id="arrow-drop-down" viewBox="0 0 24 24">
	<path d="M7 10l5 5 5-5z"/>
</symbol>
<symbol id="arrow-gray" viewBox="0 0 24 24">
	<path d="M16.59 8.59L12 13.17 7.41 8.59 6 10l6 6 6-6z"/>
</symbol>
<symbol id="arrow-top" viewBox="0 0 13 35">
	<path fill="#FFF" d="M10.185 34.044L4.226 10.142l-3.043 1.73-.564.14L2.85.302l7.47 9.293-.564.14-3.499-.098 5.96 23.901z"/>
</symbol>
<symbol id="bufet" viewBox="0 0 28 28">
	<path d="M11.434 3.735a.427.427 0 0 0-.374.574c.335.928.38 1.429.34 1.693-.04.264-.145.365-.346.627a2.263 2.263 0 0 0-.487 1.286c-.024.374.014.83.133 1.414-.478.078-.924.171-1.32.28-.605.165-1.1.356-1.481.593-.345.215-.64.5-.694.887a.427.427 0 0 0-.006.046v.007a.427.427 0 0 0-.007.033v3.66c0 1.323.531 2.543 1.42 3.514-.586.103-1.095.24-1.507.446-.559.28-.98.77-.98 1.374 0 .505.342.917.787 1.2.445.282 1.024.486 1.727.653 1.407.333 3.298.493 5.382.493 2.085 0 3.976-.16 5.382-.493.704-.167 1.283-.371 1.728-.653.444-.283.787-.695.787-1.2 0-.605-.421-1.094-.98-1.374-.412-.205-.92-.343-1.508-.446a5.438 5.438 0 0 0 1.187-2.02h1.087c.578 0 1.058-.377 1.387-.88.33-.504.534-1.165.534-1.894 0-.728-.204-1.39-.534-1.893-.33-.504-.81-.88-1.387-.88h-.96c-.127-.237-.353-.426-.6-.58-.381-.237-.876-.428-1.48-.593a14.404 14.404 0 0 0-1.995-.374c-.118-.568-.145-.975-.127-1.26.03-.456.14-.608.307-.826.168-.219.445-.525.52-1.02.075-.496-.03-1.116-.387-2.107a.427.427 0 0 0-.426-.287.427.427 0 0 0-.374.574c.335.928.38 1.429.34 1.693-.04.264-.145.365-.347.627a2.263 2.263 0 0 0-.486 1.286c-.022.335.01.736.1 1.234a22.518 22.518 0 0 0-1.661-.074c-.09-.482-.116-.843-.1-1.1.03-.456.139-.608.307-.826.168-.219.445-.525.52-1.02.075-.496-.03-1.116-.387-2.107a.427.427 0 0 0-.427-.287.427.427 0 0 0-.373.574c.334.928.38 1.429.34 1.693-.04.264-.146.365-.347.627a2.263 2.263 0 0 0-.487 1.286c-.02.323.004.708.087 1.18-.602.02-1.178.058-1.72.12-.115-.556-.139-.958-.12-1.24.029-.456.138-.608.306-.826.168-.219.445-.525.52-1.02.076-.496-.03-1.116-.386-2.107a.427.427 0 0 0-.427-.287zm2.894 6.2c.575.008 1.131.038 1.654.087.056.21.12.427.193.667a.427.427 0 1 0 .814-.247c-.034-.11-.064-.21-.093-.313.574.083 1.096.185 1.54.306.554.151.994.328 1.26.494.268.166.301.29.301.28 0-.01-.023.085-.287.233-.263.148-.698.3-1.254.427-1.11.252-2.691.406-4.435.406-1.743 0-3.324-.154-4.435-.406-.555-.126-.99-.28-1.253-.427-.264-.148-.287-.243-.287-.233 0 .01.033-.114.3-.28.267-.166.707-.343 1.26-.494.38-.103.818-.197 1.294-.273.046.168.097.34.154.527a.427.427 0 1 0 .813-.247 17.237 17.237 0 0 1-.113-.387c.532-.058 1.1-.097 1.694-.113.06.233.13.476.213.747a.427.427 0 1 0 .814-.247c-.055-.18-.103-.346-.147-.507zm6.523 1.7h.853c.186 0 .447.148.674.494.226.345.393.859.393 1.426 0 .568-.167 1.075-.393 1.42-.227.346-.488.5-.674.5h-.893a5.01 5.01 0 0 0 .04-.64v-3.2zm-12.805.614c.365.182.816.331 1.354.453 1.206.274 2.829.427 4.621.427 1.793 0 3.415-.153 4.622-.427.538-.122.99-.27 1.354-.453v2.586c0 2.631-2.635 4.907-5.976 4.907-3.34 0-5.975-2.276-5.975-4.907V12.25zm1.374 6.84h.006c1.22.937 2.837 1.506 4.595 1.506 1.758 0 3.376-.57 4.595-1.506a.427.427 0 0 0 .047.006c.83.104 1.486.266 1.887.467.401.2.514.358.514.607 0 .134-.076.282-.387.48-.311.197-.825.386-1.474.54-1.297.307-3.141.473-5.182.473-2.04 0-3.885-.166-5.182-.473-.648-.154-1.162-.343-1.474-.54-.31-.198-.386-.346-.386-.48 0-.25.112-.407.513-.607s1.058-.363 1.888-.467a.427.427 0 0 0 .04-.006z"/>
</symbol>
<symbol id="cafe" viewBox="0 0 28 28">
	<path d="M20.999 6.722L21 6.71a.58.58 0 0 0-.576-.585c-1.597 0-2.901 1.316-2.919 2.937 0 .012-.005.025-.005.036v3.673a2.965 2.965 0 0 0 2.348 2.912v6.476c0 .326.26.587.576.587.32 0 .575-.26.575-.587V6.722zm-2.347 6.057c0-.003.003-.004.003-.008V9.098c0-.788.503-1.448 1.193-1.694v7.062a1.797 1.797 0 0 1-1.196-1.687zm-5.804-2.43c0 1.438-1.012 2.64-2.35 2.912v8.905c0 .32-.257.584-.577.584a.582.582 0 0 1-.576-.584V13.26A2.965 2.965 0 0 1 7 10.349V6.717a.58.58 0 0 1 .575-.584h.002c.318 0 .573.262.573.584l.002 3.632c0 .79.501 1.447 1.193 1.691V6.712c0-.325.26-.587.579-.587a.58.58 0 0 1 .575.587v5.328a1.786 1.786 0 0 0 1.194-1.691l-.002-3.632c0-.322.26-.584.575-.584.321 0 .58.262.58.584l.002 3.632z"/>
</symbol>
<symbol id="calendar" viewBox="0 0 24 24">
	<path d="M19 4h-1V2h-2v2H8V2H6v2H5c-1.11 0-1.99.9-1.99 2L3 20a2 2 0 0 0 2 2h14c1.1 0 2-.9 2-2V6c0-1.1-.9-2-2-2zm0 16H5V9h14v11zM7 11h5v5H7v-5z"/>
</symbol>
<symbol id="check-blue" viewBox="0 0 18 14">
	<path fill="#068eac" d="M6 11.17L1.83 7 .41 8.41 6 14 18 2 16.59.59z"/>
</symbol>
<symbol id="check" viewBox="0 0 24 24">
	<path d="M9 16.17L4.83 12l-1.42 1.41L9 19 21 7l-1.41-1.41z"/>
</symbol>
<symbol id="close" viewBox="0 0 24 24">
	<path d="M19 6.41L17.59 5 12 10.59 6.41 5 5 6.41 10.59 12 5 17.59 6.41 19 12 13.41 17.59 19 19 17.59 13.41 12z"/>
</symbol>
<symbol id="cloudiness" viewBox="0 0 40 40">
	<path d="M36.939 22.98c-.399-2.918-2.421-5.371-5.24-6.357a8.083 8.083 0 0 0-8.143 1.678c-1.658-2.596-4.81-3.867-7.843-3.162-3.033.705-5.274 3.23-5.575 6.282-.3 3.051 1.404 5.953 4.242 7.219.094 3.542 3.042 6.364 6.643 6.36h12.34c2.947.004 5.543-1.908 6.37-4.691.827-2.784-.313-5.77-2.799-7.33h.005zm-22.296 3.712c-2.01-1.157-3.042-3.448-2.565-5.69.476-2.241 2.355-3.933 4.667-4.2 2.312-.269 4.54.947 5.533 3.018a7.826 7.826 0 0 0-.97 2.147h-.285c-2.956.01-5.553 1.933-6.38 4.725zm18.724 6.447H21.023c-2.625.003-4.757-2.083-4.77-4.665v-.382c.213-2.425 2.272-4.29 4.747-4.297.284 0 .567.027.847.078h.379l.122-.041h.047a.94.94 0 0 0 .121-.07h.033a.933.933 0 0 0 .108-.087l.032-.027a.924.924 0 0 0 .08-.097l.033-.046a.916.916 0 0 0 .051-.097l.033-.069a.91.91 0 0 0 .028-.092v-.074c0-.023 0 0 0 0 .451-3.056 3.178-5.282 6.314-5.153 3.136.128 5.666 2.568 5.857 5.65v.176c0 .023 0 .046.028.073a.935.935 0 0 0 .038.092l.042.065.051.083.056.06.066.069.06.046.09.06h.023c1.918 1.018 2.888 3.187 2.356 5.266-.533 2.08-2.433 3.537-4.612 3.54l.084-.06zM16.44 10.95V5.921c0-.509.42-.921.936-.921a.93.93 0 0 1 .937.921v5.03c0 .508-.42.92-.937.92a.929.929 0 0 1-.936-.92zm-11.352.36a.914.914 0 0 1 .005-1.308.951.951 0 0 1 1.33.004l3.609 3.546a.912.912 0 0 1 .242.89.93.93 0 0 1-.662.652.947.947 0 0 1-.905-.238l-3.619-3.547zm.96 11.707H.936A.929.929 0 0 1 0 22.095c0-.508.42-.92.936-.92h5.112c.517 0 .936.412.936.92 0 .51-.419.922-.936.922zm3.979 6.31a.914.914 0 0 1 0 1.302l-3.604 3.556a.947.947 0 0 1-1.292-.02.91.91 0 0 1-.043-1.27l3.619-3.56a.944.944 0 0 1 1.325-.009h-.005zm14.699-14.462a.914.914 0 0 1 0-1.303l3.618-3.56a.948.948 0 0 1 1.325 0 .911.911 0 0 1 0 1.303l-3.618 3.56a.944.944 0 0 1-1.325 0z"/>
</symbol>
<symbol id="date-events" viewBox="0 0 24 24">
	<g transform="translate(2 3)">
		<mask id="date-events-a" fill="#fff">
			<path d="M2.867 2.478c-.671 0-1.215.544-1.215 1.215v12.44c0 .671.544 1.215 1.215 1.215H16.96c.67 0 1.214-.544 1.214-1.215V3.693c0-.671-.544-1.215-1.214-1.215H2.867zm12.796-1.214h1.297a2.429 2.429 0 0 1 2.428 2.429v12.44a2.429 2.429 0 0 1-2.428 2.43H2.867a2.429 2.429 0 0 1-2.43-2.43V3.693a2.429 2.429 0 0 1 2.43-2.43H4.13V.689c0-.38.326-.688.727-.688.402 0 .727.308.727.688v.576h8.625V.688c0-.38.325-.688.727-.688.401 0 .727.308.727.688v.576zm-4.098 7.823a.826.826 0 1 0 0 1.652.826.826 0 0 0 0-1.652zm-3.304 0a.826.826 0 1 0 0 1.652.826.826 0 0 0 0-1.652zm-3.304 3.304a.826.826 0 1 0 0 1.652.826.826 0 0 0 0-1.652zm6.608 0a.826.826 0 1 0 0 1.652.826.826 0 0 0 0-1.652zm0-6.608a.826.826 0 1 0 0 1.652.826.826 0 0 0 0-1.652zm-3.304 0a.826.826 0 1 0 0 1.652.826.826 0 0 0 0-1.652zm0 6.608a.826.826 0 1 0 0 1.652.826.826 0 0 0 0-1.652zM4.957 9.087a.826.826 0 1 0 0 1.652.826.826 0 0 0 0-1.652zm0-3.304a.826.826 0 1 0 0 1.652.826.826 0 0 0 0-1.652zm9.913 6.608a.826.826 0 1 0 0 1.652.826.826 0 0 0 0-1.652zm0-3.304a.826.826 0 1 0 0 1.652.826.826 0 0 0 0-1.652zm0-3.304a.826.826 0 1 0 0 1.652.826.826 0 0 0 0-1.652z"/>
		</mask>
		<g mask="url(#date-events-a)">
			<path d="M0-.826h20v20H0z"/>
		</g>
	</g>
</symbol>
<symbol id="download" viewBox="0 0 24 24">
	<path fill="#068EAC" d="M21.262 14.796c.372 0 .673.301.673.673v1.94a3.215 3.215 0 0 1-3.211 3.211H4.876a3.215 3.215 0 0 1-3.211-3.211v-1.94a.674.674 0 1 1 1.347 0v1.94c0 1.028.836 1.864 1.864 1.864h13.848a1.866 1.866 0 0 0 1.864-1.864v-1.94c0-.372.302-.673.674-.673zm-5.152-5.24a.674.674 0 0 1 .897 1.005l-4.251 3.799a1.432 1.432 0 0 1-1.912 0l-4.252-3.8a.674.674 0 0 1 .898-1.004l3.636 3.248V3.339a.674.674 0 0 1 1.348 0v9.466l3.636-3.249z"/>
</symbol>
<symbol id="expand-more" viewBox="0 0 24 24">
	<g fill="none" fill-rule="evenodd">
		<path d="M0 0h24v24H0z"/>
		<path fill="#098EA9" d="M16.59 8.59L12 13.17 7.41 8.59 6 10l6 6 6-6z"/>
	</g>
</symbol>
<symbol id="facebook-hover" viewBox="0 0 70 70">
	<g fill="none" fill-rule="evenodd">
		<circle cx="35" cy="35" r="35" fill="#3B5998"/>
		<path fill="#FFF" d="M30.189 52.036h6.375v-17.51h4.782l.946-5.47h-5.728V25.09c0-1.278.826-2.62 2.007-2.62h3.255V17h-3.99v.025c-6.242.226-7.524 3.841-7.635 7.639h-.012v4.392H27v5.47h3.189v17.51z"/>
	</g>
</symbol>
<symbol id="facebook" viewBox="0 0 70 70">
	<path fill-rule="evenodd" d="M30.189 52.036h6.375v-17.51h4.782l.946-5.47h-5.728V25.09c0-1.278.826-2.62 2.007-2.62h3.255V17h-3.99v.025c-6.242.226-7.524 3.841-7.635 7.639h-.012v4.392H27v5.47h3.189v17.51z"/>
</symbol>
<symbol id="google-plus-hover" viewBox="0 0 70 70">
	<g fill="none" fill-rule="evenodd">
		<circle cx="35" cy="35" r="35" fill="#DD4B39"/>
		<path fill="#FFF" d="M17.03 34.866c.099-5.892 5.51-11.053 11.397-10.856 2.82-.131 5.472 1.097 7.632 2.823a40.624 40.624 0 0 1-2.897 3.004c-2.596-1.797-6.29-2.31-8.887-.235-3.715 2.572-3.884 8.645-.31 11.414 3.474 3.156 10.043 1.589 11.003-3.244-2.177-.033-4.359 0-6.535-.071-.006-1.3-.011-2.6-.006-3.9 3.639-.01 7.278-.016 10.922.011.218 3.059-.185 6.313-2.062 8.842-2.843 4.003-8.55 5.172-13 3.457-4.469-1.704-7.633-6.428-7.257-11.245M47.29 31h3.246c.005 1.087.01 2.179.021 3.266 1.086.01 2.177.01 3.263.022v3.249c-1.086.01-2.171.016-3.263.027a717.62 717.62 0 0 0-.021 3.266h-3.252c-.01-1.087-.01-2.173-.022-3.26L44 37.537v-3.25a646.38 646.38 0 0 1 3.262-.021c.006-1.093.017-2.18.028-3.266"/>
	</g>
</symbol>
<symbol id="google-plus" viewBox="0 0 70 70">
	<path fill-rule="evenodd" d="M17.03 34.866c.099-5.892 5.51-11.053 11.397-10.856 2.82-.131 5.472 1.097 7.632 2.823a40.624 40.624 0 0 1-2.897 3.004c-2.596-1.797-6.29-2.31-8.887-.235-3.715 2.572-3.884 8.645-.31 11.414 3.474 3.156 10.043 1.589 11.003-3.244-2.177-.033-4.359 0-6.535-.071-.006-1.3-.011-2.6-.006-3.9 3.639-.01 7.278-.016 10.922.011.218 3.059-.185 6.313-2.062 8.842-2.843 4.003-8.55 5.172-13 3.457-4.469-1.704-7.633-6.428-7.257-11.245M47.29 31h3.246c.005 1.087.01 2.179.021 3.266 1.086.01 2.177.01 3.263.022v3.249c-1.086.01-2.171.016-3.263.027a717.62 717.62 0 0 0-.021 3.266h-3.252c-.01-1.087-.01-2.173-.022-3.26L44 37.537v-3.25a646.38 646.38 0 0 1 3.262-.021c.006-1.093.017-2.18.028-3.266"/>
</symbol>
<symbol id="guesthome" viewBox="0 0 28 28">
	<path d="M20.976 13.484a.588.588 0 0 0-.59.588v4.21h-6.573c0-.015.002-.115 0-.154-.068-1.468-1.48-2.874-2.924-2.874H8.483v-2.373a.59.59 0 0 0-.583-.59.588.588 0 0 0-.587.59v8.403a.59.59 0 0 0 .587.591.591.591 0 0 0 .583-.591v-1.819h11.903v1.819a.59.59 0 1 0 1.18 0v-7.212a.59.59 0 0 0-.59-.588zm-12.493 2.95h2.406c.803 0 1.687.875 1.75 1.707.005.033.005.126.01.139H8.483v-1.847zM6.712 9.876a.595.595 0 0 1-.539-.351.599.599 0 0 1 .304-.783l7.722-3.444a.594.594 0 0 1 .474 0l7.73 3.444a.594.594 0 0 1 .296.783.583.583 0 0 1-.771.3L14.43 6.488l-7.478 3.34a.61.61 0 0 1-.241.05z"/>
</symbol>
<symbol id="info" viewBox="0 0 28 28">
	<path d="M15.59 9.058a.804.804 0 0 1-.137-.016.58.58 0 0 1-.457-.702l.425-1.766c.077-.314.403-.505.732-.435a.584.584 0 0 1 .457.701l-.423 1.765a.61.61 0 0 1-.596.453zm-.02 2.657c-.003.018-2.047 8.271-2.055 8.292-.09.439-.013.843.231 1.134.238.283.61.436 1.052.436.338 0 .61.264.61.585a.599.599 0 0 1-.61.588c-.819 0-1.535-.313-2.008-.879-.485-.577-.654-1.367-.463-2.17.01-.05 1.9-7.619 1.9-7.619h-1.195c-.338 0-.613-.258-.613-.583a.6.6 0 0 1 .613-.585H15c.34 0 .616.26.616.585a.618.618 0 0 1-.046.216z"/>
</symbol>
<symbol id="input-remove" viewBox="0 0 24 24">
	<path fill-rule="evenodd" d="M12 2C6.47 2 2 6.47 2 12s4.47 10 10 10 10-4.47 10-10S17.53 2 12 2zm5 13.59L15.59 17 12 13.41 8.41 17 7 15.59 10.59 12 7 8.41 8.41 7 12 10.59 15.59 7 17 8.41 13.41 12 17 15.59z"/>
</symbol>
<symbol id="instagram-hover" viewBox="0 0 70 70">
	<g fill="none" fill-rule="evenodd">
		<mask id="instagram-hover-c" fill="#fff">
			<use xlink:href="#instagram-hover-a"/>
		</mask>
		<use fill="#C5C5C5" xlink:href="#instagram-hover-a"/>
		<circle cx="35.673" cy="33.429" r="44.647" fill="url('#instagram-hover-b')" mask="url('/assets/images/sprites.svg#instagram-hover-c')"/>
		<circle cx="22.997" cy="62.933" r="37.356" fill="#F8443E" filter="url('#instagram-hover-d')" mask="url('#instagram-hover-c')"/>
		<circle cx="22.099" cy="69.215" r="30.849" fill="#F86737" filter="url('#instagram-hover-e')" mask="url('#instagram-hover-c')"/>
		<circle cx="22.772" cy="69.663" r="25.689" fill="#F88330" filter="url('#instagram-hover-f')" mask="url('#instagram-hover-c')"/>
		<circle cx="22.772" cy="72.58" r="22.772" fill="#FBBB45" filter="url('#instagram-hover-g')" mask="url('#instagram-hover-c')"/>
		<circle cx="22.548" cy="75.497" r="19.856" fill="#FBE18A" filter="url('#instagram-hover-h')" mask="url('#instagram-hover-c')"/>
		<g fill="#FFF" transform="translate(17 17)">
			<path d="M0 10.389C0 4.65 4.651 0 10.389 0H25.61C31.35 0 36 4.651 36 10.389V25.61C36 31.35 31.349 36 25.611 36H10.39C4.65 36 0 31.349 0 25.611V10.39zm3.259.31v14.603c0 4.115 3.33 7.44 7.44 7.44h14.603a7.437 7.437 0 0 0 7.44-7.44V10.698a7.437 7.437 0 0 0-7.44-7.44H10.698a7.436 7.436 0 0 0-7.44 7.44z"/>
			<path d="M18 27.155a9.155 9.155 0 1 1 0-18.31 9.155 9.155 0 0 1 0 18.31zm0-3.258a5.897 5.897 0 1 0 0-11.794 5.897 5.897 0 0 0 0 11.794z"/>
			<circle cx="27.466" cy="8.379" r="2.172"/>
		</g>
	</g>
</symbol>
<symbol id="instagram" viewBox="0 0 70 70">
	<g fill-rule="evenodd" transform="translate(17 17)">
		<path d="M0 10.389C0 4.65 4.651 0 10.389 0H25.61C31.35 0 36 4.651 36 10.389V25.61C36 31.35 31.349 36 25.611 36H10.39C4.65 36 0 31.349 0 25.611V10.39zm3.259.31v14.603c0 4.115 3.33 7.44 7.44 7.44h14.603a7.437 7.437 0 0 0 7.44-7.44V10.698a7.437 7.437 0 0 0-7.44-7.44H10.698a7.436 7.436 0 0 0-7.44 7.44z"/>
		<path d="M18 27.155a9.155 9.155 0 1 1 0-18.31 9.155 9.155 0 0 1 0 18.31zm0-3.258a5.897 5.897 0 1 0 0-11.794 5.897 5.897 0 0 0 0 11.794z"/>
		<circle cx="27.466" cy="8.379" r="2.172"/>
	</g>
</symbol>
<symbol id="invalid-1" viewBox="0 0 24 24">
	<path d="M14.395 19.037a.698.698 0 0 1 .987.987 6.586 6.586 0 0 1-4.688 1.942 6.637 6.637 0 0 1-6.63-6.63c0-1.77.69-3.436 1.942-4.688a.698.698 0 1 1 .987.987 5.201 5.201 0 0 0-1.533 3.702 5.24 5.24 0 0 0 5.234 5.234 5.2 5.2 0 0 0 3.701-1.534zm5.832-1.53a.697.697 0 1 1 0 1.396h-2.475a.698.698 0 0 1-.656-.461l-1.229-3.41h-5.38a.698.698 0 0 1-.698-.697V6.956a.698.698 0 1 1 1.395 0V9.11h4.805a.698.698 0 1 1 0 1.396h-4.805v3.132h5.174c.294 0 .556.185.656.461l1.229 3.41h1.984zM10.513 5.39a1.695 1.695 0 1 1 0-3.39 1.695 1.695 0 0 1 0 3.39z"/>
</symbol>
<symbol id="invalid-2" viewBox="0 0 24 24">
	<path d="M13.384 6.784a2.17 2.17 0 1 0-.002 4.345 2.17 2.17 0 0 0 .002-4.345zM4.274 8.95c0-1.27.257-2.498.763-3.653A9.308 9.308 0 0 1 6.46 3.016a.59.59 0 0 0-.04-.808L6.411 2.2a.638.638 0 0 0-.922.045c-.661.78-1.2 1.645-1.608 2.58a10.222 10.222 0 0 0-.858 4.122c0 1.433.29 2.82.858 4.126.408.935.947 1.8 1.608 2.58a.635.635 0 0 0 .922.045.584.584 0 0 0 .041-.804 9.433 9.433 0 0 1-1.424-2.29 9.177 9.177 0 0 1-.756-3.653zm13.95 11.029a2.455 2.455 0 0 1-1.746.726c-.34 0-.678-.065-.951-.188l-.013-.004-.012-.004a3.177 3.177 0 0 1-1.102-.902c-.327-.424-.6-.992-.865-1.784-.482-1.477-1.368-2.159-2.306-2.881l-.02-.016-.017-.013c-.845-.653-1.714-1.326-2.486-2.722-.58-1.045-.898-2.192-.898-3.229a5.55 5.55 0 0 1 1.616-3.95C10.465 3.97 11.87 3.4 13.376 3.4c1.506 0 2.91.58 3.95 1.62a5.422 5.422 0 0 1 1.543 3.033c.05.302.31.518.613.518h.004a.62.62 0 0 0 .612-.722 6.691 6.691 0 0 0-1.882-3.718c-1.27-1.274-2.992-1.98-4.84-1.98-1.854 0-3.572.698-4.841 1.971-1.27 1.27-1.972 2.992-1.972 4.841 0 1.237.376 2.596 1.053 3.829.902 1.637 1.972 2.461 2.833 3.122.82.629 1.53 1.172 1.902 2.31.584 1.772 1.31 2.735 2.58 3.409l.049.024c.465.204.98.31 1.49.31.991 0 1.926-.387 2.628-1.09a3.65 3.65 0 0 0 .886-1.404.62.62 0 0 0-.592-.816h-.012a.614.614 0 0 0-.584.404 2.33 2.33 0 0 1-.572.919z"/>
</symbol>
<symbol id="invalid-3" viewBox="0 0 24 24">
	<path d="M22.666 14.096L19.754 4.85a2.561 2.561 0 0 0-3.192-1.7.608.608 0 0 0 .352 1.163 1.34 1.34 0 0 1 1.672.893v.005l2.083 6.622a4.53 4.53 0 0 0-2.236-.586 4.564 4.564 0 0 0-4.526 4.03h-3.832a4.562 4.562 0 0 0-6.762-3.358l2.11-6.708v-.005a1.34 1.34 0 0 1 1.672-.893c.32.1.663-.085.757-.405a.606.606 0 0 0-.405-.758 2.563 2.563 0 0 0-3.192 1.7l-2.903 9.255a.472.472 0 0 0-.018.077A4.572 4.572 0 0 0 1 15.886a4.566 4.566 0 0 0 4.558 4.558 4.562 4.562 0 0 0 4.517-3.95h3.855a4.565 4.565 0 0 0 4.503 3.869 4.566 4.566 0 0 0 4.558-4.558 4.485 4.485 0 0 0-.325-1.709zm-17.104 5.13a3.342 3.342 0 0 1-3.34-3.34 3.342 3.342 0 0 1 3.34-3.34 3.342 3.342 0 0 1 3.34 3.34 3.345 3.345 0 0 1-3.34 3.34zm12.876-.08a3.342 3.342 0 0 1-3.34-3.341 3.345 3.345 0 0 1 3.34-3.34 3.344 3.344 0 0 1 3.34 3.34 3.342 3.342 0 0 1-3.34 3.34z"/>
</symbol>
<symbol id="invalid-4" viewBox="0 0 24 24">
	<path d="M13.56 20.373h-.89l-.03-3.522a.722.722 0 0 0-.678-.476h-3.41v-3.24h4.966c.398 0 .72-.321.72-.72a.719.719 0 0 0-.72-.72h-4.97V9.47a.719.719 0 0 0-.72-.72.719.719 0 0 0-.72.72v7.625c0 .398.322.72.72.72H11.3l.03 3.521a.722.722 0 0 0 .678.477h1.552c.399 0 .72-.322.72-.72a.719.719 0 0 0-.72-.72zM7.795 7.786a1.693 1.693 0 1 0 0-3.386C6.86 4.4 6.1 5.16 6.1 6.091c0 .936.76 1.695 1.695 1.695z"/>
	<path d="M18.058 3.083h-4.22a.589.589 0 0 0-.588.584c0 .262.167.487.417.558v6.488c0 .07.016.141.041.204l.9 2.37a.583.583 0 0 0 .546.375h.221v6.425a.573.573 0 0 0-.217.38l-.12.8a.65.65 0 0 0 .141.508.623.623 0 0 0 .471.225h.6a.63.63 0 0 0 .613-.725l-.113-.8c-.02-.15-.125-.288-.208-.383v-6.425h.2c.241 0 .458-.15.541-.375l.892-2.363a.59.59 0 0 0 .033-.208V4.225c.25-.07.425-.3.425-.558a.578.578 0 0 0-.575-.584zM17.042 4.25v3.792h-2.209V4.25h2.209zm0 4.625v1.738l-.7 1.887h-.784l-.725-1.892V8.875h2.209z"/>
</symbol>
<symbol id="invalid-5" viewBox="0 0 24 24">
	<path d="M11.194 1.001c5.045.07 9.065 4.323 8.864 9.343.012.073.008.083.008.708l2 3.248c.234.38-.04.87-.486.87h-1.514v2.498a1.984 1.984 0 0 1-1.982 1.982h-3.296v2.734a.57.57 0 0 1-.57.571H7.913a.57.57 0 0 1-.57-.57c0-2.426-.931-4.417-2.418-5.805A9.031 9.031 0 0 1 2.066 10a8.994 8.994 0 0 1 9.128-8.999zm-5.49 14.744c1.666 1.555 2.662 3.747 2.771 6.069h5.171v-2.735a.57.57 0 0 1 .571-.57h3.867a.84.84 0 0 0 .84-.84V14.6a.57.57 0 0 1 .57-.571h1.064c-1.683-2.732-1.634-2.592-1.634-2.815v-.657c-.05-.235.392-3.408-2.312-6.11C11.676-.482 3.208 3.007 3.208 10c0 2.17.91 4.264 2.497 5.745z"/>
	<path d="M5.31 6.236c2.143-3.276 6.574-4.128 9.77-1.81.672.49 1.657 1.834.579 3.408-1.457 2.129-3.404.995-3.827 1.178-.075.102-.055.394-.05.497.01.258.024.578-.097.9-.507 1.357-2.389 1.02-2.593 1.033-.038.077-.092.234-.13.344-.872 2.548-3.504 2.585-4.21.97a6.858 6.858 0 0 1 .557-6.52zm.489 6.063a.655.655 0 0 0 .598.405c.693 0 1.193-.434 1.485-1.288.253-.737.5-1.213 1.583-1.098.48.051 1.044-.024 1.151-.309.056-.15.018-.422.017-.7 0-.599.234-1.07.644-1.295 1.112-.61 2.314.82 3.44-.825.691-1.01-.14-1.712-.308-1.84a5.707 5.707 0 0 0-8.144 1.512 5.72 5.72 0 0 0-.466 5.438z"/>
</symbol>
<symbol id="mail" viewBox="0 0 24 24">
	<path fill="#098EA9" d="M20.875 16.504V7.499a1.85 1.85 0 0 0-1.847-1.847L4.974 5.649a1.852 1.852 0 0 0-1.85 1.85v9.005A1.848 1.848 0 0 0 4.97 18.35h14.051c.496 0 .958-.194 1.306-.542.353-.347.544-.812.547-1.305zM9.331 11.619l-5.184 5.184a.896.896 0 0 1-.054-.3V7.5c0-.29.148-.564.388-.73l4.85 4.85zm10.52 5.184l-5.183-5.184 4.847-4.847c.243.163.39.436.388.73v9.004a.757.757 0 0 1-.051.297zm-7.227-4.508a.881.881 0 0 1-1.243 0L8.236 9.15 5.7 6.615l12.6.003-5.677 5.677zm-7.69 5.09l5.081-5.081.679.678a1.85 1.85 0 0 0 2.611 0l.679-.678 5.08 5.08c-.01 0-.025.003-.04 0H4.975c-.011 0-.026-.002-.04 0z"/>
</symbol>
<symbol id="map-slider-arrow" viewBox="0 0 40 24">
	<path fill-rule="evenodd" d="M28 4l-1.41 1.41L32.17 11H4v2h28.17l-5.58 5.59L28 20l8-8z"/>
</symbol>
<symbol id="map" viewBox="0 0 40 40">
	<path d="M39.86 34.709l-7.476-14.434c-.186-.322-.467-.415-.84-.415h-5.56l2.195-3.55a4.14 4.14 0 0 0 .234-.415l.187-.323c0-.046.047-.092.047-.139a9.67 9.67 0 0 0 1.214-4.703c0-5.35-4.438-9.73-9.858-9.73-5.42 0-9.858 4.38-9.858 9.73 0 1.66.42 3.32 1.308 4.796l.14.184c.094.185.187.415.28.554l2.197 3.55H8.463c-.374 0-.654.139-.84.415L.1 34.847c-.14.277-.14.554.047.83.187.23.467.323.794.323h38.125c.514 0 .934-.323.934-.83a.682.682 0 0 0-.14-.461zm-26.398-19.46l-.28-.415-.094-.23a7.872 7.872 0 0 1-1.027-3.874c0-4.335 3.597-7.885 7.989-7.885 4.392 0 7.99 3.55 7.99 7.885 0 1.337-.374 2.674-1.029 3.873v.047l-.14.23c-.046.092-.14.185-.187.277l-.046.046-2.99 4.657-3.598 5.672v-.046L13.462 15.25zM2.482 34.155l6.588-12.45h6.214l3.972 6.133c.187.277.467.323.794.323h.047c.327 0 .607-.046.747-.323l3.925-6.133h6.214l6.587 12.45H2.483zm17.615-17.984c-3.084 0-5.607-2.49-5.607-5.533 0-3.044 2.523-5.534 5.607-5.534 3.083 0 5.606 2.49 5.606 5.534 0 3.043-2.523 5.533-5.606 5.533zm0-10.145c-2.57 0-4.672 2.075-4.672 4.612 0 2.536 2.102 4.611 4.672 4.611s4.672-2.075 4.672-4.611c0-2.537-2.103-4.612-4.672-4.612z"/>
</symbol>
<symbol id="menu" viewBox="0 0 40 40">
	<path d="M0 7h40v4H0V7zm0 12h40v4H0v-4zm0 12h40v4H0v-4z"/>
</symbol>
<symbol id="ok-ru-hover" viewBox="0 0 70 70">
	<g fill="none" fill-rule="evenodd">
		<circle cx="35" cy="35" r="35" fill="#F58220"/>
		<path fill="#FFF" d="M38.769 43.401a16.826 16.826 0 0 0 5.227-2.17 2.648 2.648 0 0 0 .826-3.646 2.632 2.632 0 0 0-3.637-.833 11.409 11.409 0 0 1-12.12 0 2.632 2.632 0 0 0-3.638.833 2.65 2.65 0 0 0 .826 3.645 16.826 16.826 0 0 0 5.227 2.171l-5.027 5.043a2.644 2.644 0 0 0 1.862 4.51 2.64 2.64 0 0 0 1.867-.773l4.945-4.957 4.945 4.957a2.63 2.63 0 0 0 3.728 0 2.644 2.644 0 0 0 0-3.737l-5.031-5.043m-3.642-20.112a3.735 3.735 0 0 1 0 7.468 3.737 3.737 0 0 1-3.729-3.732 3.738 3.738 0 0 1 3.729-3.736zm0 12.753c4.963 0 9-4.047 9-9.017 0-4.979-4.037-9.025-9-9.025-4.964 0-9 4.046-9 9.02 0 4.975 4.036 9.022 9 9.022z"/>
	</g>
</symbol>
<symbol id="ok-ru" viewBox="0 0 70 70">
	<path fill-rule="evenodd" d="M38.769 43.401a16.826 16.826 0 0 0 5.227-2.17 2.648 2.648 0 0 0 .826-3.646 2.632 2.632 0 0 0-3.637-.833 11.409 11.409 0 0 1-12.12 0 2.632 2.632 0 0 0-3.638.833 2.65 2.65 0 0 0 .826 3.645 16.826 16.826 0 0 0 5.227 2.171l-5.027 5.043a2.644 2.644 0 0 0 1.862 4.51 2.64 2.64 0 0 0 1.867-.773l4.945-4.957 4.945 4.957a2.63 2.63 0 0 0 3.728 0 2.644 2.644 0 0 0 0-3.737l-5.031-5.043m-3.642-20.112a3.735 3.735 0 0 1 0 7.468 3.737 3.737 0 0 1-3.729-3.732 3.738 3.738 0 0 1 3.729-3.736zm0 12.753c4.963 0 9-4.047 9-9.017 0-4.979-4.037-9.025-9-9.025-4.964 0-9 4.046-9 9.02 0 4.975 4.036 9.022 9 9.022z"/>
</symbol>
<symbol id="parking" viewBox="0 0 28 28">
	<path d="M16.207 6.144a5.408 5.408 0 0 0-.393-.019h-4.726a.578.578 0 0 0-.544.406.599.599 0 0 0-.044.232v15.4c0 .327.255.587.574.587a.58.58 0 0 0 .575-.587V7.3h4.185c2.216.01 4.015 1.858 4.015 4.129 0 2.278-1.846 4.203-4.035 4.203h-2.109a.582.582 0 0 0-.576.588c0 .323.257.583.576.583h2.109c2.86 0 5.186-2.411 5.186-5.374 0-2.789-2.115-5.082-4.793-5.284"/>
</symbol>
<symbol id="pin-hover" viewBox="0 0 22 30">
	<path fill="#FFF" stroke="#000" d="M11 30c7.333-7.329 11-13.662 11-19 0-6.075-4.925-11-11-11S0 4.925 0 11c0 5.39 3.667 11.724 11 19z"/>
	<g transform="translate(1 1)">
		<mask id="pin-hover-a" fill="#fff">
			<rect width="20" height="20" rx="10"/>
		</mask>
		<g fill="#FFF" mask="url(#pin-hover-a)">
			<path d="M0 0h20v20H0z"/>
		</g>
	</g>
	<path d="M12.136 7.47a.574.574 0 0 1-.098-.012.414.414 0 0 1-.326-.501l.303-1.261a.438.438 0 0 1 .523-.31.417.417 0 0 1 .326.5l-.302 1.26a.436.436 0 0 1-.426.324zm-.015 1.898c-.002.012-1.462 5.908-1.468 5.923-.064.313-.01.602.166.81.17.202.436.311.751.311.241 0 .436.188.436.418 0 .232-.195.42-.436.42-.585 0-1.096-.223-1.434-.628-.347-.412-.468-.976-.33-1.55.006-.036 1.356-5.442 1.356-5.442h-.853a.427.427 0 0 1-.438-.417c0-.231.196-.418.438-.418h1.406a.43.43 0 0 1 .44.418.442.442 0 0 1-.034.155z"/>
</symbol>
<symbol id="pin" viewBox="0 0 22 30">
	<path fill="#068EAC" d="M11 30c7.333-7.329 11-13.662 11-19 0-6.075-4.925-11-11-11S0 4.925 0 11c0 5.39 3.667 11.724 11 19z"/>
	<mask id="pin-a" fill="#fff">
		<rect width="22" height="22" rx="11"/>
	</mask>
	<g fill="#068EAC" mask="url(#pin-a)">
		<path d="M0 0h22v22H0z"/>
	</g>
	<path fill="#FFF" d="M12.25 7.117a.631.631 0 0 1-.109-.013.456.456 0 0 1-.358-.551l.333-1.387a.482.482 0 0 1 .576-.342c.257.057.417.3.358.55l-.332 1.387a.48.48 0 0 1-.468.356zm-.017 2.088c-.002.014-1.608 6.499-1.614 6.515-.071.344-.01.662.182.891.187.222.48.343.826.343a.47.47 0 0 1 .48.46.47.47 0 0 1-.48.461c-.644 0-1.206-.246-1.578-.69-.381-.454-.514-1.075-.363-1.706.007-.04 1.492-5.986 1.492-5.986h-.939a.47.47 0 0 1-.481-.458.47.47 0 0 1 .481-.46h1.547c.266 0 .484.205.484.46a.486.486 0 0 1-.037.17z"/>
</symbol>
<symbol id="place-pin" viewBox="0 0 24 24">
	<path d="M18.693 9.25c0-3.812-2.996-6.902-6.693-6.902-3.697 0-6.693 3.09-6.693 6.902 0 2.425 2.218 6.395 6.693 11.714 4.475-5.319 6.693-9.29 6.693-11.714zM12 23C6.667 16.87 4 12.288 4 9.25 4 4.694 7.582 1 12 1s8 3.694 8 8.25c0 3.038-2.667 7.62-8 13.75zm0-9.665a3.735 3.735 0 1 0 0-7.47 3.735 3.735 0 0 0 0 7.47zm0-1.47a2.265 2.265 0 1 1 0-4.53 2.265 2.265 0 0 1 0 4.53z"/>
</symbol>
<symbol id="play-video" viewBox="0 0 20 20">
	<path fill-rule="evenodd" d="M8 14.5l6-4.5-6-4.5v9zM10 0C4.5 0 0 4.5 0 10s4.5 10 10 10 10-4.5 10-10S15.5 0 10 0zm0 18c-4.4 0-8-3.6-8-8s3.6-8 8-8 8 3.6 8 8-3.6 8-8 8z"/>
</symbol>
<symbol id="quote" viewBox="0 0 48 48">
	<path fill="#098EA9" d="M1.934 44.03c3.996-4.072 6.834-7.582 8.478-10.533 1.68-2.95 2.017-5.901 1.083-8.89-1.158-3.697-4.295-5.714-9.412-5.975-1.233-.075-1.942-.299-2.054-.71-.187-.597.56-1.942 1.531-4.407 1.307-3.1 2.615-6.05 4.893-11.205C9.777-5.27 19.45 7.763 21.206 13.328c1.83 5.827 1.12 11.803-2.13 17.89-3.249 6.089-8.29 11.542-15.126 16.36l-2.016-3.549zm27.9 3.585c6.834-4.818 11.876-10.271 15.126-16.359 3.25-6.088 3.959-12.064 2.129-17.89-1.756-5.603-11.43-18.6-14.753-11.018-2.279 5.191-3.586 8.105-4.893 11.28-1.008 2.427-1.718 3.809-1.531 4.406.112.374.821.598 2.054.71 5.117.262 8.254 2.241 9.412 5.976.934 2.988.598 5.938-1.083 8.889-1.68 2.95-4.482 6.461-8.478 10.532l2.016 3.474z"/>
</symbol>
<symbol id="remove-tag" viewBox="0 0 24 24">
	<g fill="none" fill-rule="evenodd">
		<path d="M0 0h24v24H0z"/>
		<path fill="#FFF" d="M19 6.41L17.59 5 12 10.59 6.41 5 5 6.41 10.59 12 5 17.59 6.41 19 12 13.41 17.59 19 19 17.59 13.41 12z"/>
	</g>
</symbol>
<symbol id="search" viewBox="0 0 40 40">
	<path d="M26.472 25.225a.939.939 0 0 1 .273.19l7.98 7.98a.94.94 0 0 1-1.33 1.33l-7.98-7.98a.939.939 0 0 1-.19-.273 12.178 12.178 0 0 1-8 2.98C10.475 29.452 5 23.978 5 17.226 5 10.474 10.474 5 17.226 5c6.752 0 12.226 5.474 12.226 12.226 0 3.058-1.123 5.855-2.98 7.999zm-9.246 2.346c5.713 0 10.345-4.632 10.345-10.345 0-5.713-4.632-10.345-10.345-10.345-5.713 0-10.345 4.632-10.345 10.345 0 5.713 4.632 10.345 10.345 10.345z"/>
</symbol>
<symbol id="share" viewBox="0 0 64 64">
	<g transform="translate(1 1)">
		<path stroke="none" d="M36.743 19c-2.34 0-4.257 1.884-4.257 4.186 0 .36.055.704.142 1.038l-5.755 3.48a4.279 4.279 0 0 0-2.616-.89C21.916 26.814 20 28.698 20 31s1.916 4.186 4.257 4.186c.988 0 1.9-.337 2.625-.898l5.746 3.48a4.062 4.062 0 0 0-.142 1.046c0 2.302 1.916 4.186 4.257 4.186C39.084 43 41 41.116 41 38.814s-1.916-4.186-4.257-4.186a4.28 4.28 0 0 0-3.352 1.613l-5.4-3.235a4.085 4.085 0 0 0-.01-4.02l5.41-3.236a4.275 4.275 0 0 0 3.352 1.622c2.341 0 4.257-1.884 4.257-4.186S39.084 19 36.743 19zm0 1.674c1.42 0 2.554 1.115 2.554 2.512s-1.133 2.512-2.554 2.512c-1.42 0-2.554-1.115-2.554-2.512s1.134-2.512 2.554-2.512zm-12.486 7.814c1.42 0 2.554 1.115 2.554 2.512s-1.134 2.512-2.554 2.512-2.554-1.115-2.554-2.512 1.133-2.512 2.554-2.512zm12.486 7.814c1.42 0 2.554 1.115 2.554 2.512s-1.133 2.512-2.554 2.512c-1.42 0-2.554-1.115-2.554-2.512s1.134-2.512 2.554-2.512z"/>
		<circle cx="31" cy="31" r="31" fill="none" stroke-width="2"/>
	</g>
</symbol>
<symbol id="souvenirs" viewBox="0 0 28 28">
	<path d="M19.515 10.148l.81-.822c.895-.92.895-2.415-.002-3.345l-.038-.037a2.253 2.253 0 0 0-1.629-.694c-.615 0-1.191.244-1.61.679L15.76 7.153l-1.273-1.21a2.248 2.248 0 0 0-1.628-.693h-.001c-.614 0-1.192.244-1.624.694l-.044.042a2.42 2.42 0 0 0 .002 3.344l.672.684H9.256c-1.327 0-2.256 1-2.256 2.425v7.013c0 1.425.93 2.423 2.256 2.423h9.485c1.333 0 2.259-.998 2.259-2.423V12.44c0-1.13-.586-1.98-1.485-2.291zm.333 3.425H16.35v-2.387h2.391c.819 0 1.107.648 1.107 1.252v1.135zm-2.002-6.801a1.136 1.136 0 0 1 1.624.004l.04.038c.45.467.45 1.222.005 1.683l-1.16 1.174c-.212.218-.498.33-.794.343h-1.21V8.195l1.495-1.423zm-5.842.043l.043-.044c.22-.225.505-.347.81-.347h.002c.305 0 .593.122.828.363l1.512 1.44v1.786h-1.252a1.112 1.112 0 0 1-.787-.35l-1.154-1.167a1.214 1.214 0 0 1-.002-1.68zM9.257 20.702c-.817 0-1.105-.65-1.105-1.251v-4.705h5.293a.581.581 0 0 0 .576-.587.583.583 0 0 0-.576-.586H8.152v-1.135c0-.604.287-1.252 1.105-1.252H15.2v9.516H9.257zm10.591-1.251c0 .602-.287 1.25-1.107 1.25h-2.39v-5.954h3.497v4.704z"/>
</symbol>
<symbol id="telegram-hover" viewBox="0 0 70 70">
	<g fill="none" fill-rule="evenodd">
		<circle cx="35" cy="35" r="35" fill="#2DA4D7"/>
		<g fill="#FFF">
			<path d="M29.91 53.773c-1.242 0-1.02-.478-1.465-1.655l-3.627-11.963L47.345 26.09l2.641.7-2.195 5.982-17.882 21z"/>
			<path d="M30.545 41.036l15.4 11.36c1.75.954 3.023.477 3.469-1.623l6.268-29.528c.636-2.577-.987-3.722-2.673-2.959L16.227 32.477c-2.513 1.018-2.482 2.418-.445 3.023l9.45 2.96L47.09 24.681c1.018-.637 1.973-.287 1.209.413L30.545 41.036z"/>
		</g>
	</g>
</symbol>
<symbol id="telegram" viewBox="0 0 70 70">
	<g fill-rule="evenodd">
		<path d="M29.91 53.773c-1.242 0-1.02-.478-1.465-1.655l-3.627-11.963L47.345 26.09l2.641.7-2.195 5.982-17.882 21z"/>
		<path d="M30.545 41.036l15.4 11.36c1.75.954 3.023.477 3.469-1.623l6.268-29.528c.636-2.577-.987-3.722-2.673-2.959L16.227 32.477c-2.513 1.018-2.482 2.418-.445 3.023l9.45 2.96L47.09 24.681c1.018-.637 1.973-.287 1.209.413L30.545 41.036z"/>
	</g>
</symbol>
<symbol id="ticket" viewBox="0 0 24 26">
	<g fill="none" fill-rule="evenodd">
		<path d="M0 2h24v24H0z"/>
		<g transform="translate(0 2)">
			<mask id="ticket-b" fill="#fff">
				<use xlink:href="#ticket-a"/>
			</mask>
			<g fill="#068EAC" mask="url(#ticket-b)">
				<path d="M0 0h24v24H0z"/>
			</g>
		</g>
	</g>
</symbol>
<symbol id="toure" viewBox="0 0 24 24">
	<g fill="none" fill-rule="evenodd">
		<path d="M0 0h24v24H0z"/>
		<path stroke="#098EA9" d="M2 8.243V17c.9 2.162 4.144 3.243 9.73 3.243 5.585 0 8.919-1.08 10-3.243V8.243"/>
		<path stroke="#098EA9" d="M6 20l3.838-3.919c.54-.54.9-.81 1.08-.81.181 0 .722.45 1.623 1.35"/>
		<path stroke="#098EA9" stroke-linecap="round" d="M7.135 10.9V5C3.712 5.72 2 6.802 2 8.243c0 2.162 5.135 3.514 9.73 3.514 4.594 0 10-1.352 10-3.514 0-1.441-1.802-2.522-5.406-3.243v5.9"/>
		<path stroke="#098EA9" d="M2 13.108c.36.72.72 1.081 1.081 1.081.54 0 1.351-1.621 1.892-1.621.36 0 .991.54 1.892 1.621l2.432 2.433"/>
		<path stroke="#098EA9" stroke-linecap="round" d="M12 17.162l3.514-3.784c.36-.36.63-.54.81-.54.27 0 1.622 2.027 2.433 2.027.81 0 2.973-1.216 2.973-2.297"/>
	</g>
</symbol>
<symbol id="tripadvisor" viewBox="0 0 70 70">
	<path d="M41.224 21.498c1.377.195 2.725.54 4.057.95a27.76 27.76 0 0 1 6.583 3.001c.143.09.335.146.504.146 2.424.01 4.847.007 7.269.009.195 0 .39.02.584.031 0 .048.007.068-.001.079-.113.174-.228.345-.342.52-.822 1.26-1.524 2.58-1.94 4.037-.044.157-.054.288.052.442 2.158 3.098 2.847 6.5 1.945 10.166-.79 3.216-2.634 5.724-5.435 7.5-2.002 1.269-4.214 1.873-6.577 1.886-.993.006-1.98-.127-2.95-.379-2.363-.613-4.389-1.79-6.058-3.574-.22-.235-.427-.48-.662-.744-.883 1.316-1.751 2.61-2.64 3.938l-2.598-3.882c-.06.03-.076.034-.088.045a.403.403 0 0 0-.052.054c-2.019 2.385-4.559 3.846-7.653 4.335a11.958 11.958 0 0 1-5.098-.286 12.155 12.155 0 0 1-6.01-3.746 12.147 12.147 0 0 1-2.95-6.277c-.424-2.222.093-4.364.222-4.884a12.418 12.418 0 0 1 1.923-4.174.482.482 0 0 0 .055-.36c-.365-1.339-.995-2.557-1.732-3.724-.187-.297-.411-.572-.618-.856v-.1c.041.006.082.014.123.014 2.48 0 4.959.002 7.439-.003a.63.63 0 0 0 .32-.104 26.72 26.72 0 0 1 5.55-2.693 30.156 30.156 0 0 1 4.307-1.167 34.507 34.507 0 0 1 4.284-.563c3.512-.27 6.32.102 8.187.363zm-3.109 16.379c0 5.445 4.418 9.894 9.845 9.873 5.446-.02 9.845-4.343 9.84-9.849-.003-5.674-4.606-9.94-10.051-9.829-5.377.112-9.585 4.445-9.634 9.805zm-14.767-9.842c-5.297-.046-9.916 4.375-9.823 10.006.086 5.252 4.414 9.704 9.933 9.656 5.396-.046 9.734-4.452 9.744-9.788a9.82 9.82 0 0 0-9.854-9.874zm.488-2.569c2.993.183 5.621 1.225 7.842 3.245 2.216 2.016 3.515 4.53 3.987 7.487.485-2.922 1.75-5.413 3.924-7.408 2.178-1.998 4.772-3.046 7.715-3.268-3.493-1.553-7.175-2.212-10.966-2.285-4.309-.085-8.5.55-12.502 2.229z"/>
	<path d="M47.94 31.664a6.077 6.077 0 0 1 6.1 6.076 6.106 6.106 0 1 1-12.211.015c.002-3.456 2.85-6.148 6.11-6.091zm3.975 6.091c-.002-2.197-1.778-3.982-3.96-3.982-2.206 0-4.002 1.776-4.011 3.966-.008 2.18 1.797 3.995 3.983 4.001 2.19.009 3.989-1.792 3.988-3.985zm-28.697-6.091c3.368-.004 6.102 2.716 6.093 6.083a6.101 6.101 0 0 1-5.805 6.104 6.108 6.108 0 0 1-6.406-6.102c.007-3.48 2.875-6.143 6.118-6.085zm3.97 6.077c-.006-2.21-1.793-3.972-4.025-3.968-2.152.004-3.955 1.82-3.95 3.981.005 2.185 1.807 3.982 3.999 3.988 2.179.005 3.982-1.81 3.977-4z"/>
	<path d="M47.943 35.733a2.022 2.022 0 0 1 2.022 2.026c-.011 1.112-.911 2.014-2.01 2.015-1.13 0-2.04-.894-2.037-2.001.002-1.15.885-2.04 2.025-2.04zm-24.736-.018a2.04 2.04 0 0 1 2.05 2.035 2.047 2.047 0 0 1-2.044 2.044c-1.155.002-2.046-.89-2.045-2.052 0-1.14.89-2.026 2.04-2.027z"/>
</symbol>
<symbol id="tripadvisor-hover" viewBox="0 0 70 70">
	<g fill="none" fill-rule="evenodd">
		<circle cx="35" cy="35" r="35" fill="#74ac4d"/>
		<path fill="#FFF" fill-rule="nonzero" d="M47.94 31.664a6.077 6.077 0 0 1 6.1 6.076 6.106 6.106 0 1 1-12.211.015c.002-3.456 2.85-6.148 6.11-6.091zm3.975 6.091c-.002-2.197-1.778-3.982-3.96-3.982-2.206 0-4.002 1.776-4.011 3.966-.008 2.18 1.797 3.995 3.983 4.001 2.19.009 3.989-1.792 3.988-3.985zm-28.697-6.091c3.368-.004 6.102 2.716 6.093 6.083a6.101 6.101 0 0 1-5.805 6.104 6.108 6.108 0 0 1-6.406-6.102c.007-3.48 2.875-6.143 6.118-6.085zm3.97 6.077c-.006-2.21-1.793-3.972-4.025-3.968-2.152.004-3.955 1.82-3.95 3.981.005 2.185 1.807 3.982 3.999 3.988 2.179.005 3.982-1.81 3.977-4z"/>
		<path fill="#FFF" fill-rule="nonzero" d="M41.224 21.498c1.377.195 2.725.54 4.057.95a27.76 27.76 0 0 1 6.583 3.001c.143.09.335.146.504.146 2.424.01 4.847.007 7.269.009.195 0 .39.02.584.031 0 .048.007.068-.001.079-.113.174-.228.345-.342.52-.822 1.26-1.524 2.58-1.94 4.037-.044.157-.054.288.052.442 2.158 3.098 2.847 6.5 1.945 10.166-.79 3.216-2.634 5.724-5.435 7.5-2.002 1.269-4.214 1.873-6.577 1.886-.993.006-1.98-.127-2.95-.379-2.363-.613-4.389-1.79-6.058-3.574-.22-.235-.427-.48-.662-.744-.883 1.316-1.751 2.61-2.64 3.938l-2.598-3.882c-.06.03-.076.034-.088.045a.403.403 0 0 0-.052.054c-2.019 2.385-4.559 3.846-7.653 4.335a11.958 11.958 0 0 1-5.098-.286 12.155 12.155 0 0 1-6.01-3.746 12.147 12.147 0 0 1-2.95-6.277c-.424-2.222.093-4.364.222-4.884a12.418 12.418 0 0 1 1.923-4.174.482.482 0 0 0 .055-.36c-.365-1.339-.995-2.557-1.732-3.724-.187-.297-.411-.572-.618-.856v-.1c.041.006.082.014.123.014 2.48 0 4.959.002 7.439-.003a.63.63 0 0 0 .32-.104 26.72 26.72 0 0 1 5.55-2.693 30.156 30.156 0 0 1 4.307-1.167 34.507 34.507 0 0 1 4.284-.563c3.512-.27 6.32.102 8.187.363zm-3.109 16.379c0 5.445 4.418 9.894 9.845 9.873 5.446-.02 9.845-4.343 9.84-9.849-.003-5.674-4.606-9.94-10.051-9.829-5.377.112-9.585 4.445-9.634 9.805zm-14.767-9.842c-5.297-.046-9.916 4.375-9.823 10.006.086 5.252 4.414 9.704 9.933 9.656 5.396-.046 9.734-4.452 9.744-9.788a9.82 9.82 0 0 0-9.854-9.874zm.488-2.569c2.993.183 5.621 1.225 7.842 3.245 2.216 2.016 3.515 4.53 3.987 7.487.485-2.922 1.75-5.413 3.924-7.408 2.178-1.998 4.772-3.046 7.715-3.268-3.493-1.553-7.175-2.212-10.966-2.285-4.309-.085-8.5.55-12.502 2.229z"/>
		<path fill="#FFF" fill-rule="nonzero" d="M47.943 35.733a2.022 2.022 0 0 1 2.022 2.026c-.011 1.112-.911 2.014-2.01 2.015-1.13 0-2.04-.894-2.037-2.001.002-1.15.885-2.04 2.025-2.04zm-24.736-.018a2.04 2.04 0 0 1 2.05 2.035 2.047 2.047 0 0 1-2.044 2.044c-1.155.002-2.046-.89-2.045-2.052 0-1.14.89-2.026 2.04-2.027z"/>
	</g>
</symbol>
<symbol id="twitter-hover" viewBox="0 0 70 70">
	<g fill="none" fill-rule="evenodd">
		<circle cx="35" cy="35" r="35" fill="#55ACEE"/>
		<path fill="#FFF" d="M51.032 21.613c-.988.633-3.256 1.552-4.375 1.552v.002a7.014 7.014 0 0 0-11.906 6.411h-.001c-5.254-.137-11-2.77-14.46-7.278-2.127 3.681-.286 7.776 2.127 9.268-.826.062-2.347-.096-3.063-.794-.048 2.443 1.127 5.68 5.411 6.855-.825.444-2.285.317-2.92.223.223 2.062 3.111 4.759 6.27 4.759-1.126 1.302-5.362 3.664-10.115 2.912 3.228 1.965 6.99 3.102 10.973 3.102 11.316 0 20.104-9.171 19.631-20.485l-.003-.039c.001-.029.003-.058.003-.088 0-.035-.003-.069-.004-.103 1.03-.704 2.412-1.95 3.4-3.59-.573.315-2.29.946-3.89 1.103 1.026-.554 2.547-2.368 2.922-3.81"/>
	</g>
</symbol>
<symbol id="twitter" viewBox="0 0 70 70">
	<path fill-rule="evenodd" d="M51.032 21.613c-.988.633-3.256 1.552-4.375 1.552v.002a7.014 7.014 0 0 0-11.906 6.411h-.001c-5.254-.137-11-2.77-14.46-7.278-2.127 3.681-.286 7.776 2.127 9.268-.826.062-2.347-.096-3.063-.794-.048 2.443 1.127 5.68 5.411 6.855-.825.444-2.285.317-2.92.223.223 2.062 3.111 4.759 6.27 4.759-1.126 1.302-5.362 3.664-10.115 2.912 3.228 1.965 6.99 3.102 10.973 3.102 11.316 0 20.104-9.171 19.631-20.485l-.003-.039c.001-.029.003-.058.003-.088 0-.035-.003-.069-.004-.103 1.03-.704 2.412-1.95 3.4-3.59-.573.315-2.29.946-3.89 1.103 1.026-.554 2.547-2.368 2.922-3.81"/>
</symbol>
<symbol id="up" viewBox="0 0 24 24">
	<path d="M11.372 20.11V8.93l-2.023.564H9L12 3l3 6.494h-.349l-2.023-.565v11.18z"/>
</symbol>
<symbol id="view" viewBox="0 0 40 40">
	<path d="M19.998 10c-8.34 0-15.686 3.958-19.844 9.972a.957.957 0 0 0 0 1.042C4.312 27.028 11.658 31 19.998 31c8.34 0 15.686-3.972 19.843-9.986.203-.286.22-.743 0-1.042C35.684 13.958 28.338 10 19.998 10zm0 2.283c4.53 0 8.181 3.668 8.181 8.217 0 4.55-3.652 8.217-8.181 8.217-4.53 0-8.182-3.668-8.182-8.217 0-4.55 3.652-8.217 8.182-8.217zm-6.25.4c-2.279 1.842-3.75 4.659-3.75 7.817 0 3.158 1.471 5.975 3.75 7.818-4.832-1.329-8.936-4.133-11.676-7.818 2.74-3.689 6.844-6.49 11.676-7.818zm12.5 0c4.831 1.327 8.936 4.128 11.676 7.817-2.74 3.685-6.845 6.49-11.676 7.818 2.278-1.843 3.75-4.66 3.75-7.818 0-3.158-1.472-5.975-3.75-7.818zm-6.25 3.252c-2.5 0-4.546 2.055-4.546 4.565 0 2.51 2.046 4.565 4.546 4.565 2.5 0 4.545-2.054 4.545-4.565 0-2.51-2.046-4.565-4.545-4.565zm0 1.826a2.72 2.72 0 0 1 2.727 2.739 2.72 2.72 0 0 1-2.727 2.74 2.72 2.72 0 0 1-2.728-2.74 2.72 2.72 0 0 1 2.728-2.74z"/>
</symbol>
<symbol id="vk-hover" viewBox="0 0 70 70">
	<g fill="none" fill-rule="evenodd">
		<circle cx="35" cy="35" r="35" fill="#3A6197"/>
		<path fill="#FFF" fill-rule="nonzero" d="M46.172 34.366c.41-.567.82-1.135 1.094-1.56 1.915-2.694 2.735-4.396 2.599-5.105l-.274-.141c-.137-.142-.273-.142-.547-.284-.273-.142-.684-.142-1.094 0h-5.607l-.137.284c0 .141-.137.141-.137.283-.547 1.418-1.094 2.836-1.777 3.829a55.76 55.76 0 0 1-1.094 1.843c-.41.567-.684.992-.821 1.134-.274.284-.41.426-.684.567-.137.142-.273.284-.41.142h-.274l-.41-.425c-.137-.142-.137-.426-.137-.71V27.56c0-.142-.136-.426-.136-.567-.137-.142-.137-.284-.41-.426-.137-.142-.41-.142-.548-.283A9.49 9.49 0 0 0 33.043 26c-2.05 0-3.282.142-3.966.425-.273.142-.41.284-.683.568-.137.283-.274.425-.137.425.684.142 1.23.425 1.504.709l.137.283c.137.142.137.426.274.851.136.426.136.85.136 1.276v2.269c0 .567-.136 1.134-.136 1.418 0 .283-.137.567-.274.85-.137.284-.137.284-.274.426 0 0 0 .142-.136.142-.137 0-.274.142-.41.142-.137 0-.41-.142-.548-.284-.273-.142-.41-.425-.683-.709-.274-.284-.547-.709-.82-1.276-.274-.567-.685-1.134-.958-1.843l-.274-.568-.684-1.417c-.273-.568-.547-1.277-.82-1.844a1.952 1.952 0 0 0-.41-.567h.273s-.137-.142-.273-.142c-.137 0-.274-.141-.41-.141h-4.514c-.41 0-.82.141-.957.283v.284c0 .141 0 .283.137.425.684 1.702 1.367 3.12 2.188 4.68.82 1.559 1.504 2.835 2.051 3.544.547.992 1.231 1.843 1.778 2.694.547.85.957 1.418 1.231 1.56.137.283.957.992.957.992.274.284.684.567 1.231.993.547.425 1.094.85 1.778 1.134.684.425 1.368.709 2.188.993.82.283 1.641.283 2.462.283h1.914c.41 0 .684-.142.958-.425v-.142s.136-.142.136-.284v-.425c0-.567 0-.992.137-1.418.137-.425.137-.709.274-.992.136-.142.273-.426.41-.568l.273-.283h.137c.274-.142.547 0 .958.283.41.284.683.568 1.094.993.273.425.683.85 1.23 1.418.41.567.821.85 1.231 1.134l.274.284.82.425c.41.142.684.142.958.142h4.24c.41 0 .82-.142.956-.284.274-.141.41-.283.41-.425v-.567c0-.284-.136-.425-.136-.425 0-.142-.137-.142-.137-.284-.547-1.134-1.64-2.41-3.145-3.828l-1.368-1.418c-.41-.426-.41-.993-.273-1.418-.684 0-.137-.71.82-1.985"/>
	</g>
</symbol>
<symbol id="vk" viewBox="0 0 70 70">
	<path d="M46.172 34.366c.41-.567.82-1.135 1.094-1.56 1.915-2.694 2.735-4.396 2.599-5.105l-.274-.141c-.137-.142-.273-.142-.547-.284-.273-.142-.684-.142-1.094 0h-5.607l-.137.284c0 .141-.137.141-.137.283-.547 1.418-1.094 2.836-1.777 3.829a55.76 55.76 0 0 1-1.094 1.843c-.41.567-.684.992-.821 1.134-.274.284-.41.426-.684.567-.137.142-.273.284-.41.142h-.274l-.41-.425c-.137-.142-.137-.426-.137-.71V27.56c0-.142-.136-.426-.136-.567-.137-.142-.137-.284-.41-.426-.137-.142-.41-.142-.548-.283A9.49 9.49 0 0 0 33.043 26c-2.05 0-3.282.142-3.966.425-.273.142-.41.284-.683.568-.137.283-.274.425-.137.425.684.142 1.23.425 1.504.709l.137.283c.137.142.137.426.274.851.136.426.136.85.136 1.276v2.269c0 .567-.136 1.134-.136 1.418 0 .283-.137.567-.274.85-.137.284-.137.284-.274.426 0 0 0 .142-.136.142-.137 0-.274.142-.41.142-.137 0-.41-.142-.548-.284-.273-.142-.41-.425-.683-.709-.274-.284-.547-.709-.82-1.276-.274-.567-.685-1.134-.958-1.843l-.274-.568-.684-1.417c-.273-.568-.547-1.277-.82-1.844a1.952 1.952 0 0 0-.41-.567h.273s-.137-.142-.273-.142c-.137 0-.274-.141-.41-.141h-4.514c-.41 0-.82.141-.957.283v.284c0 .141 0 .283.137.425.684 1.702 1.367 3.12 2.188 4.68.82 1.559 1.504 2.835 2.051 3.544.547.992 1.231 1.843 1.778 2.694.547.85.957 1.418 1.231 1.56.137.283.957.992.957.992.274.284.684.567 1.231.993.547.425 1.094.85 1.778 1.134.684.425 1.368.709 2.188.993.82.283 1.641.283 2.462.283h1.914c.41 0 .684-.142.958-.425v-.142s.136-.142.136-.284v-.425c0-.567 0-.992.137-1.418.137-.425.137-.709.274-.992.136-.142.273-.426.41-.568l.273-.283h.137c.274-.142.547 0 .958.283.41.284.683.568 1.094.993.273.425.683.85 1.23 1.418.41.567.821.85 1.231 1.134l.274.284.82.425c.41.142.684.142.958.142h4.24c.41 0 .82-.142.956-.284.274-.141.41-.283.41-.425v-.567c0-.284-.136-.425-.136-.425 0-.142-.137-.142-.137-.284-.547-1.134-1.64-2.41-3.145-3.828l-1.368-1.418c-.41-.426-.41-.993-.273-1.418-.684 0-.137-.71.82-1.985"/>
</symbol>
<symbol id="white-arrow" viewBox="0 0 24 24">
	<g fill="none" fill-rule="evenodd">
		<path d="M0 0h24v24H0z"/>
		<path fill="#FFF" d="M16.59 8.59L12 13.17 7.41 8.59 6 10l6 6 6-6z"/>
	</g>
</symbol>
<symbol id="wi-fi" viewBox="0 0 28 28">
	<path d="M14.5 13.14a5.567 5.567 0 0 0-3.963 1.642.667.667 0 0 0 .943.942 4.241 4.241 0 0 1 3.02-1.252c1.142 0 2.215.445 3.022 1.252a.664.664 0 0 0 .943 0 .666.666 0 0 0 0-.942A5.572 5.572 0 0 0 14.5 13.14zm0-3.03a8.579 8.579 0 0 0-6.106 2.529.666.666 0 1 0 .942.941 7.257 7.257 0 0 1 5.164-2.139c1.951 0 3.785.76 5.164 2.14a.664.664 0 0 0 .942 0 .666.666 0 0 0 0-.942 8.579 8.579 0 0 0-6.106-2.53zm8.305.33A11.67 11.67 0 0 0 14.5 7a11.667 11.667 0 0 0-8.305 3.44.666.666 0 1 0 .942.942 10.343 10.343 0 0 1 7.363-3.05c2.781 0 5.396 1.083 7.363 3.05a.664.664 0 0 0 .942 0 .666.666 0 0 0 0-.942zm-8.302 6.04c-1.18 0-2.14.96-2.14 2.14 0 1.18.96 2.139 2.14 2.139 1.18 0 2.139-.96 2.139-2.14 0-1.18-.96-2.139-2.14-2.139zm0 2.947a.808.808 0 1 1 0-1.616.808.808 0 0 1 0 1.616z"/>
</symbol>
<symbol id="youtube-hover" viewBox="0 0 70 70">
	<g fill="none" fill-rule="evenodd">
		<circle cx="35" cy="35" r="35" fill="#E52D27"/>
		<path fill="#FFF" fill-rule="nonzero" d="M54.992 25.381c.875 3.13.841 9.652.841 9.652s0 6.49-.84 9.619c-.472 1.713-1.85 3.063-3.6 3.524C48.198 49 35.417 49 35.417 49s-12.748 0-15.977-.856c-1.75-.462-3.128-1.812-3.6-3.525C15 41.522 15 35 15 35s0-6.49.84-9.619c.472-1.713 1.884-3.096 3.6-3.557C22.635 21 35.417 21 35.417 21s12.781 0 15.976.856c1.75.462 3.128 1.812 3.6 3.525zM31.347 40.995L41.975 35l-10.628-5.995v11.99z"/>
	</g>
</symbol>
<symbol id="youtube" viewBox="0 0 70 70">
	<path d="M54.992 25.381c.875 3.13.841 9.652.841 9.652s0 6.49-.84 9.619c-.472 1.713-1.85 3.063-3.6 3.524C48.198 49 35.417 49 35.417 49s-12.748 0-15.977-.856c-1.75-.462-3.128-1.812-3.6-3.525C15 41.522 15 35 15 35s0-6.49.84-9.619c.472-1.713 1.884-3.096 3.6-3.557C22.635 21 35.417 21 35.417 21s12.781 0 15.976.856c1.75.462 3.128 1.812 3.6 3.525zM31.347 40.995L41.975 35l-10.628-5.995v11.99z"/>
</symbol>
</svg>