<svg xmlns="http://www.w3.org/2000/svg" width="119" height="196"><g fill="none" fill-rule="evenodd"><path fill="#FFF" fill-rule="nonzero" d="M.522 191.137l1.77-2.436 1.529 2.23.112 4.59-3.544.1zm114.556 0l1.766-2.436 1.53 2.23.114 4.59-3.546.1zm-41.416-30.864l2.228.054-.019 6.911 3.81 4.879v6.82H96.07v9.627h14.546v7.043H8.802v-7.148s14.296.096 14.196 0c-.1-.103 0-9.272 0-9.272h16.363v-7.085l3.81-4.768v-6.977h2.213V138.97l.024-.44v-11.27s-1.64-.172-2.06-1.168c-.422-1-.4-1.218-.4-1.218h3.212l1.594-2.395V103.55s-1.305-.204-1.772-.74c-.465-.528-.73-1.675-.73-1.675h2.28l1.394-2.436V79.88h1.396s-1.284-.865-1.396-1.93c-.11-1.06.331-2.348 1.085-2.593.754-.24 1.129-.263 1.129-.263v-21.23h1.508V37.228s-2.416-1.723-2.747-3.446c-.332-1.73.309-3.251 1.618-4.744 1.307-1.48 7.592-5.576 7.592-5.576s-.664-.062-1.018-.973c-.353-.907-.111-1.667.223-2.06.33-.404 1.284-.595 1.284-.595s1.039.082 1.328.975c.286.881.534 1.166-.11 1.764-.642.604-1.263.754-1.263.754s2.278 1.796 3.83 2.72c1.55.93 3.96 2.661 4.65 3.678.681 1.023 1.238 2.968.863 4.205-.379 1.24-2.415 3.253-2.415 3.253l.068 5.562-.113 11h1.506v21.388s1.132.218 1.64 1.004c.508.768.578 1.014.377 1.807-.2.799-1.198 1.907-1.198 1.907h1.373v18.93l1.303 2.24h2.128s.197 1.034-.53 1.652c-.734.627-1.816.977-1.816.977v18.912l1.35 2.304 3.546-.066s-.113 1.08-.598 1.572c-.49.483-1.858.82-1.858.82"/><path stroke="#231F20" stroke-linecap="round" stroke-linejoin="round" stroke-width=".4" d="M.502 195.64H118.52m-7.909.004v-7.173H8.924v7.173m13.956-16.578h73.275v9.405H22.88zm16.502-7.035h40.275v7.035H39.382zm34.314-5.057l-.004-39.818H45.348l-.005 40.026m2.369-63.673h23.552v18.966H47.712zm1.148-23.676h21.257v18.861H48.86zm2.381-26.029h16.592V75.16H51.241zM43.07 124.82h33.04M53.596 54.001v18.6m3.504-18.6v18.6m8.305-18.6v18.6m-3.505-18.6v18.6m-10.512.149h16.291m-16.436 7.284v18.61m16.59-18.61v18.61M54.697 80.028v18.615m9.508-18.609v18.61m-4.712-18.61v18.61m-11.359 7.184h22.8m-22.927 23.599h23.027m-24.675-4.772l1.355-2.154m24.833 2.154l-1.36-2.154M45.45 101.148h28.197"/><path stroke="#231F20" stroke-linecap="round" stroke-linejoin="round" stroke-width=".4" d="M52.537 37.361h13.999v16.446H52.537zm.307 2.289h13.512m-13.51 11.925h13.51M56 39.661l4.772 11.86m-8.212-8.509l3.453 8.509m4.497-11.86l4.77 11.86m-2.41-11.86l-4.766 11.86m8.448-8.998l-3.691 8.998m-4.493-11.86l-4.772 11.86m-4.73 2.285h21.339M51.08 79.833c-1.222 0-2.216-1.04-2.216-2.336 0-1.283.992-2.323 2.216-2.323h8.612"/><path stroke="#231F20" stroke-linecap="round" stroke-linejoin="round" stroke-width=".4" d="M67.899 79.839c1.224 0 2.22-1.046 2.22-2.333 0-1.29-.992-2.332-2.22-2.332h-8.614m-12.133 2.332h24.834m-21.999 26.352v18.614m19.057-18.614v18.489m-15.448-18.489v18.489m11.831-18.489v18.489m-5.934-18.489v18.489M45.344 145.62v-9.115c0-1.296.784-2.351 1.755-2.351.968 0 1.752 1.054 1.752 2.351v10.836m3.624-.089l-.002-10.747a2.358 2.358 0 0 1 2.368-2.347 2.359 2.359 0 0 1 2.367 2.347l-.002 10.99m4.784-.001v-10.989a2.343 2.343 0 0 1 2.337-2.347 2.343 2.343 0 0 1 2.332 2.347l-.002 10.72m3.49.027v-10.747c0-1.296.791-2.347 1.772-2.347.98 0 1.775 1.051 1.775 2.347v9.114M52.572 37.23c-1.685-1.392-2.728-2.511-2.728-4.677 0-2.525 2.007-4.102 3.632-5.254l5.995-4.018 5.89 3.994c1.638 1.159 3.678 2.732 3.678 5.276 0 2.25-1.121 3.424-2.923 4.834M59.452 19.7V.444m-4.645 6.135h9.295M58.175 1.81h2.63m-4.813 5.997V5.42m7.159 2.387V5.42m-4.976 6.225l2.634 1.194M23.156 181.436h72.73m22.664 14.208v-4.809h-3.5v4.81m-.004-4.823l1.807-2.363 1.693 2.33m-1.736-2.319v-1.86M3.978 195.644v-4.809h-3.5v4.81m-.001-4.823l1.804-2.363 1.693 2.33m-1.736-2.319v-1.86m39.93 9.034v-4.809H38.67v4.81m-.003-4.823l1.808-2.363 1.691 2.33m-1.74-2.319v-1.86m39.932 9.034v-4.809h-3.502v4.81m0-4.823l1.807-2.363 1.693 2.33m-1.738-2.319v-1.86"/><circle cx="59.606" cy="149.639" r="3.21" stroke="#231F20" stroke-linecap="round" stroke-linejoin="round" stroke-width=".4"/><path stroke="#231F20" stroke-linecap="round" stroke-linejoin="round" stroke-width=".4" d="M51.656 56.184h15.757m-19.695 47.321c-1.312 0-2.377-1.044-2.377-2.332m2.377 2.332c-1.312 0-2.377-1.044-2.377-2.332m25.923 2.332c1.317 0 2.382-1.044 2.382-2.332m-26.057-.139l1.318-2.322m22.526 2.322l-1.314-2.322m-24.754 28.441c-1.313 0-2.38-1.037-2.38-2.333m30.743 2.333c1.315 0 2.381-1.037 2.381-2.333M48.954 82.188h21.165"/><circle cx="59.491" cy="21.552" r="1.721" stroke="#231F20" stroke-linecap="round" stroke-linejoin="round" stroke-width=".4"/><path stroke="#231F20" stroke-linecap="round" stroke-linejoin="round" stroke-width=".4" d="M62.834 13.61c0 1.836-1.498 3.32-3.347 3.32-1.848 0-3.346-1.486-3.346-3.322M45.757 131.851h27.529m-16.08 20.016v8.203m0 .176v7.016m4.786-15.388l.004 8.196m0 .176v7.016m4.652-14.915l.002 7.723m0 .176v7.016m3.497-15.138v7.946m0 .176v7.016m-17.674-15.157v7.965m0 .176v7.016m-3.623-15.165v7.973m0 .176v7.146"/><ellipse cx="50.709" cy="149.641" stroke="#231F20" stroke-linecap="round" stroke-linejoin="round" stroke-width=".4" rx="2.629" ry="3.212"/><ellipse cx="68.401" cy="149.641" stroke="#231F20" stroke-linecap="round" stroke-linejoin="round" stroke-width=".4" rx="2.629" ry="3.212"/><path stroke="#231F20" stroke-linecap="round" stroke-linejoin="round" stroke-width=".4" d="M45.348 167.3h28.344m5.952 4.73l-3.747-4.73m-30.144-11.837h2.663m-5.322 4.81H76v7.027H43.094zm-3.725 11.757l3.823-4.726m27.313-11.841h2.66m-10.88 0h4.078m-13.367 0h4.08"/></g></svg>