<svg xmlns="http://www.w3.org/2000/svg" width="531" height="88">
    <g fill="none" fill-rule="evenodd">
        <path stroke="#231F20" stroke-linecap="round" stroke-linejoin="round" stroke-width=".4" d="M213.691.85v8.68"/>
        <path fill="#FFF" fill-rule="nonzero" d="M167.782 9.832l32.014.075-22.416 25.031v3.147h2.948l13.594 49.043H.285V40.285h23.04v-7.252h42.722l18.767 7.242v-7.253l53.979-7.387-72.424-5.696v-1.352z"/><path stroke="#231F20" stroke-linecap="round" stroke-linejoin="round" stroke-width=".4" d="M167.782 9.832h45.901m-36.714 9.265v68.028m-9.314-62.183v62.183m-.137-77.277l-100.91 8.618m110.775 16.472l22.413-25.03M.314 79.372h72.419m104.644-41.287h2.954l13.594 49.04-193.64.054.019-8.347m167.905-24.555h8.57m-8.57-4.734h8.57m-8.57-4.727h8.57m-8.57-4.729h8.57m-8.57-4.732h8.57m-8.57-4.735h8.57m-8.57-4.727h8.57M213.68.545h-46.2M66.45 10.84l101.146 8.072M167.478.545l-110.22 9.559v9.157l82.427 6.54m-1.362.407l-53.447 6.814M.312 40.285L.309 79.343M112.58 40.468l-.118 22.11m55.747 20.086h8.57m-8.57-4.729h8.57m-8.57-4.732h8.57m-8.57-4.735h8.57m-8.57-4.729h8.57m-8.57-4.729h8.57M66.458 9.735v8.65m9.201-9.44v8.653m9.203-9.434v8.652m9.196-9.44v8.653m9.203-9.437v8.65m9.199-9.443v8.655m9.2-9.437v8.647m9.2-9.429v8.647m9.199-9.44v8.653m9.201-9.429v8.644m9.195-9.432v8.645m9.203-9.435v8.65m36.94-9.039V9.35M195.66.699V9.35M186.09.699V9.35M176.84.699V9.35M66.458 11.316v8.644m9.201-7.938v8.653m9.203-7.949v8.655m9.196-7.948v8.655m9.203-7.94v8.642m9.199-7.944v8.658m9.2-7.948v8.655m9.2-7.943v8.65m9.199-7.946v8.658m9.201-7.957v7.962m9.195-7.255v7.43m9.203-6.713v8.642m-27.454-1.84L112.41 40.326M.35 40.285h112.222m-27.758-7.252l-.003 7.242m-61.487-7.242v7.242M112.46 62.57L72.858 79.343M23.316 33.022h42.728l18.77 7.253m-56.234.188l-.002 38.37m44.281-38.365v38.633m67.312-53.208h36.8"/>
    </g>
    <g fill="none" fill-rule="evenodd" transform="translate(214 24)">
        <path fill="#FFF" fill-rule="nonzero" d="M.37 17.04h63.975v5.858h95.015v3.028h86.125v9.193h70.346v27.699H28.918L.053 62.716z"/>
        <path stroke="#231F20" stroke-linecap="round" stroke-linejoin="round" stroke-width=".4" d="M50.783 16.66L35.383.574M32.76 16.66L17.36.574M55.053 16.66L47.911.574M.2 62.742V16.865h64.312v5.995h95.178v3.206h85.814v9.171h70.531"/><path stroke="#231F20" stroke-linecap="round" stroke-linejoin="round" stroke-width=".4" d="M29.719 62.742l15.857-8.67 270.46-.587V35.19M96.225 22.71L80.834 6.622m-4.956 15.985L60.484 6.52m38.931 15.964l-7.142-16.09m38.09 16.291l-15.395-16.09m-11.264 16.09L88.306 6.595m44.354 16.09l-7.131-16.09m76.86 19.382L187.042 9.946m-3.109 15.889L168.724 9.943m36.763 15.991l-7.102-15.988M15.37 38.295h45.517v4.829H15.37zm121.082-15.61l-7.148-16.09m42.177 19.178l-7.019-15.827M46.374 16.66L39.23.574m172.292 25.4l-7.124-16.028m84.788 24.995L273.79 18.846m-6.488 15.932l-7.143-16.088m24.829 16.088l-7.156-16.088m-61.006 7.303L209.7 9.946m28.562 16.002l-7.105-16.005M43.133 38.292v4.496m12.175-4.496v4.496m27.557-4.493h5.111v4.829h-5.111zm27.632 0h9.19v4.829h-9.19zm27.691 0h6.068v4.829h-6.068z"/><path stroke="#696A69" stroke-linecap="round" stroke-linejoin="round" stroke-width=".4" d="M205.57 38.292h27.686v4.826H205.57z"/><path stroke="#231F20" stroke-linecap="round" stroke-linejoin="round" stroke-width=".4" d="M15.37 49.027h12.358v4.56H15.37zm43.007-10.735h174.881M.244 62.818h315.791V53.41"/>
    </g>
</svg>