<svg xmlns="http://www.w3.org/2000/svg" width="360" height="153"><g fill="none" fill-rule="evenodd"><path fill="#FFF" fill-rule="nonzero" d="M.583 86.713l77.023.054-.064-6.127h3.753v5.897h10.58v19.931h-1.326v46.338H1.912v-46.28H.526zm131.51-73.723s1.437.23 1.728 1.07c.288.837.114 1.822-.323 2.282-.427.464-.718.724-.718.724l1.301.112-.2 4.218-.726.174s.32 3.553 1.91 5.112c1.586 1.562 7.627 6.215 9.012 9.276 1.39 3.059 2.684 7.307 2.833 11.492.144 4.191.144 12.744.144 12.744l2.37.229.113 33.395 3.123.028-.114 7.225-3.034.024-.087 5.115h41.052l10.545-4.479-.117-10.423-2.92-.119 2.513-1.993s-.03-2.193 1.01-3.439c1.043-1.241 3.965-2.83 3.965-2.83s-1.507-.668-1.358-1.557c.134-.901.891-1.594 1.73-1.482.832.121 1.44.985 1.386 1.502-.057.524-.983 1.534-.983 1.534s2.43.924 3.327 2.195c.896 1.271 1.273 3.846 1.273 3.846l2.22 2.192-2.654.233-.055 10.517 10.86 4.387 40.732.03.03-12.247 7.947.03-.084-23.545s.285-6.703.861-8.952c.586-2.257 3.816-8.613 6.214-10.46 2.399-1.847 9.162-5.487 10.83-6.93 1.681-1.447 3.064-3.41 3.208-4.392.141-.983.176-1.589.176-1.589h-1.124l3.145-6.472s-1.616-.49-1.733-1.527c-.116-1.045.78-2.371 1.763-2.344.983.03 2.371 1.299 2.225 2.08-.14.78-1.935 2.022-1.935 2.022l2.863 6.04-.928.375s.461 3.032 1.559 4.132c1.105 1.094 4.394 3.547 6.845 4.853 2.455 1.299 6.097 4.273 7.57 6.177 1.477 1.91 3.816 5.433 4.362 9.336.556 3.895.846 7.855.846 7.855l.028 23.37 7.681.112.172 11.905 17.535.087.15 3.754s3.495.32 6.008 1.909c2.515 1.589 4.476 4.881 7.046 6.266 2.57 1.386 3.786 2.138 3.786 2.138l-1.217.233-.139 32.291-243.434-.228.169-51.45-3.086-.082-.12-7.195 2.95-.085h.258V60.28l2.43.144-.081-9.355s.405-6.301.775-8.208c.377-1.907 1.593-6.76 3.465-8.985 1.877-2.222 5.234-5.053 6.443-6.063 1.217-1.013 2.401-2.488 2.689-3.67.293-1.184.37-2.572.37-2.572l-.685-.087-.117-4.503 1.904.024s-1.559-.782-1.45-1.934c.127-1.154.934-1.817 1.224-1.877.28-.057.748-.203.748-.203"/><path stroke="#231F20" stroke-linecap="round" stroke-linejoin="round" stroke-width=".4" d="M114.522 148.504h243.186m-208.221 4.282V60.363h-35.032v92.423"/><path stroke="#231F20" stroke-linecap="round" stroke-linejoin="round" stroke-width=".4" d="M122.373 101.04l9.298-7.177 9.95 7.158m120.349 51.761v-58.68h7.9v.004l12.07 5.122m22.747-.131l11.852-4.993v-.002h7.848v58.68m-174.932.002v-46.663h41.3m30.106-.003h41.085v46.664m54.606.009v-40.6m-46.746-.001v40.601"/><path stroke="#231F20" stroke-linecap="round" stroke-linejoin="round" stroke-width=".4" d="M269.92 111.933l23.39-9.097 23.448 9.194"/><path stroke="#231F20" stroke-linecap="round" stroke-linejoin="round" stroke-width=".4" d="M261.956 106.997l31.355-12.193 31.027 12.168m17.766 45.814v-46.673H324.38v46.673m-62.434-40.771h7.85"/><circle cx="293.239" cy="120.463" r="3.257" stroke="#231F20" stroke-linecap="round" stroke-linejoin="round" stroke-width=".4"/><path stroke="#231F20" stroke-linecap="round" stroke-linejoin="round" stroke-width=".4" d="M288.48 148.265v-15.631c-.003-.08-.003-.164-.003-.248a4.806 4.806 0 0 1 4.801-4.807 4.809 4.809 0 0 1 4.807 4.807c0 .087-.005.173-.012.258v15.619m4.712 4.521v-4.28h-18.956v4.28"/><path stroke="#231F20" stroke-linecap="round" stroke-linejoin="round" stroke-width=".4" d="M299.143 152.784v-4.28h-11.731v4.28m15.879-9.827v-11.805l-.002-.196a3.856 3.856 0 0 1 7.711 0c0 .067 0 .141-.002.208v11.793h-7.707zm-27.923 0v-12.001a3.857 3.857 0 0 1 3.853-3.861 3.857 3.857 0 0 1 3.856 3.86c0 .068 0 .142-.003.21v11.792h-7.706zm-3.672 0h16.786m9.591 0h16.855m-31.856-7.51h5.412m-16.788 0h3.672m7.704-1.969h5.412m-16.788 0h3.672m27.782 1.969h-5.077m16.79 0h-3.672m-8.041-1.969h-5.077m16.79 0h-3.672m-22.711 2.647v-15.63l-.003-.25a4.808 4.808 0 0 1 4.806-4.804 4.806 4.806 0 0 1 4.802 4.804c0 .09-.005.171-.012.263v15.614"/><path stroke="#231F20" stroke-linecap="round" stroke-linejoin="round" stroke-width=".4" d="M303.291 133.478v-12.002a3.858 3.858 0 0 1 3.854-3.86 3.856 3.856 0 0 1 3.855 3.86v12.002m-35.632 0v-12.002c0-2.127 1.72-3.86 3.853-3.86a3.86 3.86 0 0 1 3.853 4.071v11.791"/><circle cx="279.184" cy="121.551" r="2.458" stroke="#231F20" stroke-linecap="round" stroke-linejoin="round" stroke-width=".4"/><circle cx="307.145" cy="121.551" r="2.458" stroke="#231F20" stroke-linecap="round" stroke-linejoin="round" stroke-width=".4"/><path stroke="#231F20" stroke-linecap="round" stroke-linejoin="round" stroke-width=".4" d="M275.618 136.472h7.109m-3.558 6.14v-13.648m24.423 7.508h7.108m-3.555 6.14v-13.648m-37.113-37.452h46.294m.236 20.503h7.758m-42.44-17.909V71.434a8.223 8.223 0 0 1-.017-.551c0-5.835 5.12-10.572 11.425-10.572 6.306 0 11.423 4.737 11.423 10.572 0 .196-.01.382-.017.578v22.645"/><path stroke="#231F20" stroke-linecap="round" stroke-linejoin="round" stroke-width=".4" d="M269.868 94.106l.005-23.042c-.005-.181-.01-.358-.01-.541 0-5.445 2.697-9.862 6.019-9.862 3.317 0 6.015 4.417 6.015 9.862 0 .169 0 .342-.01.509l.053 28.191-12.072-5.117z"/><path stroke="#231F20" stroke-linecap="round" stroke-linejoin="round" stroke-width=".4" d="M269.868 69.994c-.154-25.406 21.307-21.133 21.307-31.82h4.293c-.194 10.687 21.233 6.702 21.084 32.108"/><path stroke="#231F20" stroke-linecap="round" stroke-linejoin="round" stroke-width=".4" d="M290.028 38.175l3.283-6.286 3.282 6.286zm-.73-6.329h8.12m-2.094-2.086a1.967 1.967 0 0 0-1.969-1.966 1.966 1.966 0 0 0 0 3.93 1.963 1.963 0 0 0 1.97-1.963zm-1.966-2.288V15.679m-3.978 4.148h7.605m-5.901-2.297h4.19m-25.401 71.442h46.614M269.873 73.2h14.845m.017-.063V71.41c-.005-.136-.01-.273-.01-.407 0-4.33 3.836-7.843 8.56-7.843 4.73 0 8.564 3.513 8.564 7.843 0 .144-.003.283-.01.43v1.64m2.848 26.024l.01-27.867c-.008-.178-.01-.355-.01-.538 0-5.445 2.654-9.864 5.933-9.864 3.268 0 5.932 4.419 5.932 9.864 0 .17-.005.34-.01.511v22.901l-11.855 4.993zm-37.304-28.47h16.992m17.531 2.573h14.32m-14.32-2.573h16.95m-48.993-.104c0-5.445 2.697-9.86 6.019-9.86.459 0 .906.085 1.338.249-2.662 1.003-4.665 4.926-4.665 9.61v.105h-2.692v-.104zm.005 18.444l.005-15.765h2.69v15.765h-2.695z"/><path stroke="#231F20" stroke-linecap="round" stroke-linejoin="round" stroke-width=".4" d="M313.684 70.525c0-4.484-1.832-8.27-4.337-9.469.41-.146.834-.226 1.27-.226 3.26 0 5.912 4.387 5.932 9.802h-2.862v-.107h-.003zm-.017 2.672h2.872V88.97h-2.872V73.197zm-26.255-2.955v15.726h5.896V70.242c.003-3.93-5.896-3.93-5.896 0zm5.898 0v15.726h5.895V70.242c0-3.93-5.894-3.93-5.894 0zm-5.898 2.677h11.793m-11.793 7.131h11.54m-36.962 29.07l31.32-12.176 31.028 12.16m-104.351 7.819h41.641m63.134 0h17.101m-13.173 26.034v-12.001a3.866 3.866 0 0 1 3.866-3.861 3.86 3.86 0 0 1 3.85 3.86c0 .068-.007.142-.007.21v11.792h-7.71zm-4.268 0h14.122m-9.554-6.485h7.111m-3.548 6.14v-13.648m17.878 13.993v-11.805c-.007-.06-.007-.134-.007-.196 0-2.128 1.214-3.861 2.721-3.861 1.497 0 2.714 1.73 2.714 3.86v12.002h-5.428zm-8.198 0h15.346m-6.937-6.485h4.996m-2.498 6.14v-13.648m-10.956-8.498h17.65c-9.666-3.156-7.74-9.464-17.742-10.574m-178.438 42.892v-35.861m84.103 0v35.861m-46.77-61.319v10.552h9.434V91.336m-9.501 10.718l-37.266 14.889m46.944-14.889l37.28 14.889m-49.856-25.736l2.53-2.071c.02-4.385 3.449-5.728 5.045-6.222m7.841 8.293l-2.533-2.071c-.03-4.385-3.46-5.728-5.047-6.222m-7.88 8.37l15.38-.043"/><circle cx="205.706" cy="81.333" r="1.544" stroke="#231F20" stroke-linecap="round" stroke-linejoin="round" stroke-width=".4"/><path stroke="#231F20" stroke-linecap="round" stroke-linejoin="round" stroke-width=".4" d="M205.741 79.764v-9.37m-3.039 3.711h6.093m66.823 58.295h7.109m20.865 0h7.113m18.285 0h7.111m14.541 0h4.996m-130.772 10.557l.007-11.803a1.706 1.706 0 0 1-.012-.198 3.866 3.866 0 0 1 3.866-3.861 3.86 3.86 0 0 1 3.853 3.86c0 .073 0 .142-.005.21v11.792h-7.71zm.256-6.482h7.11m-3.555 6.137v-13.645m-3.553 3.433h7.108m3.883 10.557v-12.001a3.863 3.863 0 0 1 3.859-3.861 3.86 3.86 0 0 1 3.858 3.86c0 .073-.003.142-.013.21v11.792h-7.704zm.249-6.482h7.108m-3.543 6.137v-13.645m-3.565 3.433h7.12m-47.172 10.557v-11.803c-.01-.062-.01-.136-.01-.198a3.86 3.86 0 1 1 7.721 0c0 .067-.005.141-.01.208v11.793h-7.701zm.25-6.485h7.109m-3.558 6.14v-13.648m-3.551 3.436h7.451m3.541 10.557v-11.803c0-.062-.005-.136-.005-.198a3.858 3.858 0 1 1 7.716 0c0 .067 0 .141-.005.208v11.793h-7.706zm.256-6.485h7.105m-3.548 6.14v-13.648m-3.557 3.436h7.197m-47.133 10.557v-11.803c-.005-.062-.005-.136-.005-.198a3.858 3.858 0 0 1 3.853-3.861c2.13 0 3.861 1.73 3.861 3.86v12.002h-7.709zm.253-6.485h7.106m-3.56 6.14v-13.648m-3.546 3.436h7.106m3.888 10.557v-11.803c-.005-.062-.005-.136-.005-.198a3.864 3.864 0 0 1 3.858-3.861 3.863 3.863 0 0 1 3.859 3.86c0 .068 0 .142-.003.21v11.792h-7.709zm.251-6.485h7.108m-3.555 6.14v-13.648m-3.553 3.436h7.108"/><circle cx="205.699" cy="118.356" r="3.257" stroke="#231F20" stroke-linecap="round" stroke-linejoin="round" stroke-width=".4"/><path stroke="#231F20" stroke-linecap="round" stroke-linejoin="round" stroke-width=".4" d="M149.777 116.923h41.532m31.243 26.034h23.087m-51.763 0h23.88m-52.198 0h23.579m58.965 0h11.796m-108.172 0h11.793m86.902 0v-11.803a3.863 3.863 0 0 1 3.853-4.06 3.866 3.866 0 0 1 3.856 3.862v12.001h-7.709zm.253-6.482h7.11m-3.559 6.137v-13.645m-3.548 3.433h7.108m-104.214 10.557v-11.803a2.66 2.66 0 0 1-.01-.198 3.863 3.863 0 0 1 3.866-3.861c2.13 0 3.853 1.73 3.853 3.86 0 .068 0 .142-.005.21v11.792h-7.704zm.253-6.485h7.108m-3.555 6.14v-13.648m-3.553 3.436h7.108m32.85 20.275l-.065-34.9c.983-5.207 5.971-9.112 11.967-9.025 5.852.082 10.753 3.957 11.89 9.025l.35 34.778m-.169-32.087h43.843m-111.821-.003h43.84m130.952.003h17.168m.496 1.8h15.287M90.531 152.784v-46.172"/><path stroke="#231F20" stroke-linecap="round" stroke-linejoin="round" stroke-width=".4" d="M2.004 106.468v46.314h355.811v-32.319"/><path stroke="#231F20" stroke-linecap="round" stroke-linejoin="round" stroke-width=".4" d="M127.177 148.504V132.69c-.005-.082-.005-.164-.005-.253 0-2.677 2.147-4.854 4.811-4.854 2.645 0 4.79 2.177 4.79 4.854 0 .087-.003.179-.003.27V148.5h-9.593v.003zm-15.91-47.483v-7.195l3.206.012 7.813 7.18m4.891-13.985V71.4c-.005-.082-.005-.166-.005-.248a4.801 4.801 0 0 1 4.811-4.802 4.795 4.795 0 0 1 4.79 4.802c0 .09-.003.176-.003.26v15.622h-9.593z"/><path stroke="#231F20" stroke-linecap="round" stroke-linejoin="round" stroke-width=".4" d="M128.91 76.025l3.163-4.323 3.17 4.323zm-14.343-6.029h7.749m-10.9 31.044h10.833"/><path stroke="#231F20" stroke-linecap="round" stroke-linejoin="round" stroke-width=".4" d="M122.328 100.649l-.002-30.156c-.013-.161-.013-.335-.013-.497 0-5.31 4.323-9.62 9.67-9.62 5.316 0 9.648 4.31 9.648 9.62 0 .177-.007.353-.012.524l.005 30.248"/><circle cx="131.832" cy="56.374" r="2.056" stroke="#231F20" stroke-linecap="round" stroke-linejoin="round" stroke-width=".4"/><path stroke="#231F20" stroke-linecap="round" stroke-linejoin="round" stroke-width=".4" d="M127.18 60.341V52.62c-.003-.087-.008-.17-.008-.249 0-2.636 2.147-4.774 4.811-4.774 2.642 0 4.792 2.138 4.792 4.774 0 .09-.005.174-.007.261v7.709h-9.589zm11.445 92.443v-4.28h-13.3v4.28m-1.177-9.827h3.031m9.8 0h3.031m-15.862-7.177h3.031m9.8 0h3.031m12.628-34.722v-7.304h-3.141l-7.83 7.302m-27.212-14.023h34.756m-58.844 33.224l-44.28-13.205-43.86 13.168m84.372 32.564v-29.205H5.94v29.205m19.747-39.732H7.369v-4.258h32.909m11.746.003h33.152v4.255H66.804m16.555 4.849v-4.849 4.85zm-74.178.067v-4.913 4.913zm-8.627-11.47v-19.84H77.66v3.238h3.706v-3.238h10.617v19.84z"/><path stroke="#231F20" stroke-linecap="round" stroke-linejoin="round" stroke-width=".4" d="M77.661 80.687h3.707v9.209h-3.707zM3.451 86.81v19.688M7.158 86.81v19.688m3.707-19.688v19.688m3.711-19.688v19.688m3.71-19.688v19.688M22 86.81v19.688m3.711-19.688v19.688m3.707-19.688v19.688M33.13 86.81v19.688m3.712-19.688v19.688m3.706-19.688v19.688m3.717-19.688v19.688m3.712-19.688v19.688m3.704-19.688v19.688m3.717-19.688v19.688m3.709-19.688v19.688m3.712-19.688v19.688m3.709-19.688v19.688m3.709-19.688v19.688m3.712-19.688v19.688M77.66 86.81v19.688m3.712-19.688v19.688m3.71-19.688v19.688m3.704-19.688v19.688m-77.921 11.326v2.788m-3.655-1.896v1.896m7.366-4.002v4.002m3.714-5.102v5.102M22 114.38v6.232m3.711-7.751v7.751m3.707-8.898v8.898m3.712-9.608v9.608m3.712-10.7v10.7m3.711-11.808v11.808m3.712-12.9v12.9m3.709-12.989l.003 12.99m3.704-11.861v11.86m3.712-10.735l.005 10.735m3.707-11.772l.002 11.772m3.712-11.656v11.656m3.709-11.691v11.691m3.709-6.206v6.206m3.712-5.082v5.082m3.711-4.146v4.146m3.712-2.782v2.782m-70.507-11.788v3.953m3.719-3.953v3.953m3.706-3.953v3.953m3.71-3.953v3.953m3.711-3.953v3.953m3.707-3.953v3.953m11.135-3.953v3.953m3.712-3.953v3.953m3.712-3.953v3.953m3.704-3.953v3.953m18.556-3.953v3.953m3.712-3.953v3.953m3.711-3.953v3.953m3.712-3.953v3.953m72.192-6.175v10.045m4.029-10.045v10.045m4.022-10.045v10.045m4.03-10.045v9.472m4.032-9.472v10.045m4.029-10.045v10.045m4.03-10.045v10.045m4.032-10.045v10.045m4.027-10.045v10.045m4.029-10.045v10.045m32.229-10.407v10.303m4.032-10.303v10.303m4.027-10.303v10.303m4.027-10.303v10.303m4.032-10.303v10.303m4.029-10.303v10.303m4.033-10.303v10.303m3.972-10.303v10.303m4.025-10.303v10.303m4.032-10.303v10.303m7.746-22.019v10.901m3.85-11.182v9.407m3.972-7.696v6.164m4.261-4.436v2.716m47.885 5.77v10.653m4.037-10.653v10.653m4.03-10.653v10.653m4.024-10.653v10.653m4.037-10.45v10.9M308.16 97.754v2.502m4.268-4.297v6.157m4.144-7.873v9.407m3.679-9.407v11.046m-128.877 11.639c1.186-6.242 7.16-10.912 14.328-10.81 7.02.097 12.88 4.737 14.248 10.81m-26.099-11.778l-.002 6.03m4.031-7.83v4.558m4.028-5.641v4.253m4.027-4.441v1.571m4.032-1.373v4.487m4.029-3.017v4.864m4.03-3.317v7.237M15.919 133.195h8.672v13.625h-8.672zm-.002 3.925h8.672m-4.337-.005v9.551m13.007-13.471h8.67v13.625h-8.67zm0 3.925h8.672m-4.33-.005v9.551m13.008-13.471h8.67v13.625h-8.67zm-.003 3.925h8.67m-4.333-.005v9.551m13.008-13.471h8.672v13.625h-8.672zm-.001 3.925h8.67m-4.332-.005v9.551m42.167-40.516h7.828m.067-.054l9.32-7.046 9.981 7.08m.072-5.072h10.845m-10.907 5.092h8.173m-30.287 42.011v-41.837m24.739 41.837v-41.896m-27.39-55.885c-.095-23.05 13.625-19.224 13.625-28.922h2.766c-.12 9.698 13.881 6.428 13.784 29.48m-5.315 19.058h7.669m-24.448 19.9l13.648-.003m5.663.003l4.923-.003m-34.768.003h4.752m-4.74-16.096h12.37m9.915 0h12.37"/><path stroke="#231F20" stroke-linecap="round" stroke-linejoin="round" stroke-width=".4" d="M122.328 69.679l-.002-16.33c-.013-.168-.013-.337-.013-.503 0-5.396 4.323-9.768 9.67-9.768 5.319 0 9.648 4.372 9.648 9.768 0 .18-.007.355-.012.533l.005 16.3m-19.318-9.564l-.01-6.57c.005-.163.005-.332.005-.498 0-5.313-1.237-9.621-2.749-9.621-1.534 0-2.766 4.308-2.766 9.62 0 .18 0 .35.005.527v6.542"/><path stroke="#231F20" stroke-linecap="round" stroke-linejoin="round" stroke-width=".4" d="M147.123 60.115l-.007-6.57c.007-.163.007-.332.007-.498 0-5.313-1.231-9.621-2.753-9.621s-2.758 4.308-2.758 9.62c0 .18.007.35.007.527v6.542m61.585 45.991l2.711-2.712 3.02 3.02m81.394-45.795l3.019-3.019 3.016 3.019m-22.19.343l1.705-3.054 1.708 3.054m31.308.24l1.72-3.294 1.773 3.267m-195.358-6.86h30.086m-32.174-3.376h34.272"/><ellipse cx="144.37" cy="56.374" stroke="#231F20" stroke-linecap="round" stroke-linejoin="round" stroke-width=".4" rx="1.192" ry="2.056"/><path stroke="#231F20" stroke-linecap="round" stroke-linejoin="round" stroke-width=".4" d="M120.737 56.371c0-1.13-.53-2.053-1.187-2.053-.67 0-1.202.923-1.202 2.053 0 1.14.534 2.058 1.202 2.058.658 0 1.187-.918 1.187-2.058zm9.069-39.188h4.248v4.278h-4.248zM114.455 62.73h4.74m25.093 0h5.01m-21.431-45.582h8.114"/><circle cx="132.053" cy="15.065" r="1.964" stroke="#231F20" stroke-linecap="round" stroke-linejoin="round" stroke-width=".4"/><path stroke="#231F20" stroke-linecap="round" stroke-linejoin="round" stroke-width=".4" d="M132.048 12.776V.986m-3.928 4.61h7.605m-5.899-2.299h4.19m-6.839 68.1h9.318m-7.019-10.664l2.356-2.331 2.361 2.23m-4.717-17.204l2.356-2.33 2.09 2.095m-16.06 53.846l.002 3.828m28.09-3.64v3.471M.583 120.714h91.314m-6.815-1.934v1.832"/></g></svg>