<svg xmlns="http://www.w3.org/2000/svg" width="259" height="82"><defs><linearGradient id="a" x1="50%" x2="50%" y1="0%" y2="100%"><stop offset="0%" stop-color="#BFE2E9"/><stop offset="100%" stop-color="#DAE1C8"/></linearGradient></defs><g fill="none" fill-rule="evenodd"><path fill="url(#a)" fill-rule="nonzero" d="M179.55 81.21l-.061-.007h-39.26l-.052.007-.016-.007H2.513l-.344-.029.364-.361v-8.179l.172-.165h1.641l.364-.364v-35.32l-.061-.193-2.002-2.968-.303-.164h-1.8l-.17-.175-.006-1.746-.045-.123.081-.236L41.048 9.844l.088-.019h18.85l.367-.358V1.94l.095-.203L62.482.42h.205l2.041 1.324.094.18v7.543l.364.358h2.11l.087.02 39.969 21.335.078.236-.036.123v1.523l.364.365h6.052l.165.175v4.246l.37.361h8.188l.168.171-.035 3.365.37.368h34.216l.377-.362.007-3.603-.37-.375h-6.53l-.02-.048 28.558-14.174.198-.33V20.9l-.37-.368h-1.242l-.052-.016-.14-.042h-.233l-.023-.155 1.615-1.595.046-.046 2.476-3.72h.24l2.451 3.665.052.072 1.401 1.378.422.078 18.457-9.173.059-.007.045.02 18.45 9.163.423-.058 1.4-1.395.053-.058 2.453-3.684h.234l2.487 3.697.039.048 1.631 1.63-.013.159h-.27l-.126.013-.03.016-.042.01h-1.215l-.368.358v2.354l.225.339 16.237 8.081.208.02.25.197.059.032 11.677 5.812-.017.048h-6.45l-.368.375v42.665l.367.361-22.152.03h-.042l-.072.006z"/><path stroke="#231F20" stroke-linecap="round" stroke-linejoin="round" stroke-width=".4" d="M2.61 81.187h248.96m-71.987.016v-2.35h7.547v-1.98h35.002v1.98h7.644v2.011"/><path stroke="#231F20" stroke-linecap="round" stroke-linejoin="round" stroke-width=".4" d="M166.424 42.174h76.424v39.01h-76.424z"/><path stroke="#231F20" stroke-linecap="round" stroke-linejoin="round" stroke-width=".4" d="M194.793 50.821h19.666v26.05h-19.666zm-9.181-30.402l19.019-9.448m-46.894 26.773h-7.02l28.768-14.274m44.129-3.045l-18.99-9.454m46.79 26.773h7.03L230 23.6m-46.107 4.429h41.493v7.549h-41.493zm-.16 10.868h41.64M204.63 51.005V76.57"/><path stroke="#231F20" stroke-linecap="round" stroke-linejoin="round" stroke-width=".4" d="M157.652 81.161V37.738h21.84V20.493m50.271 0v4.226h.016v13.019h21.804V81.16m-67.707-60.644v4.223h41.5v-4.223M173.04 54.227v13.948h12.786V54.227c-3.987-3.083-8.225-3.545-12.785 0zm50.57 0v13.942h12.79V54.227c-3.992-3.09-8.233-3.545-12.79 0zm-43.79-29.488h49.582"/><path stroke="#231F20" stroke-linecap="round" stroke-linejoin="round" stroke-width=".4" d="M223.767 20.516l3.809-5.712 3.819 5.702zm-7.206 25.726c-7.517-5.056-15.483-5.724-23.968.033m.062.416h23.955m-24.017-.21v4.472m24.057-4.633v4.633m-28.35.947c-5.47-3.86-11.285-4.434-17.538 0m68.007 0c-5.473-3.86-11.281-4.434-17.53 0M103.036 72.324V36.68m-98.31.102v35.542m6.556 8.856v-6.502h87.383v6.419M4.973 36.679h97.813M.27 31.27L41.098 9.849h26.234l40.154 21.423M59.944 1.902v7.946h4.423V1.902m-.019 2.473h-4.215M.381 31.287h106.993v2.15H.381z"/><path stroke="#231F20" stroke-linecap="round" stroke-linejoin="round" stroke-width=".4" d="M2.549 72.489h102.694v8.708H2.549zm100.519-35.814l2.162-3.215m52.422 8.679h-34.905m-.055-3.914h-8.736l.006-4.788h-6.72m15.45 4.788v42.83m17.501-36.553v36.695"/><path stroke="#231F20" stroke-linecap="round" stroke-linejoin="round" stroke-width=".4" d="M105.236 50.979h15.262v30.218h-15.262zm26.198 6.338h8.755v23.864h-8.755zm26.218-13.009h-34.905m-4.449 6.374c-3.23-3.084-6.676-3.558-10.368 0m69.934-30.166l3.815-5.712 3.806 5.702zM14.662 23.87v7.197m8.723-11.859V31.07m8.735-16.534V31.07m8.743-21.025V31.07m8.739-21.025V31.07m8.737-21.025V31.07m8.732-21.025V31.07m8.736-16.37v16.37m8.733-11.785l.013 11.785m8.736-7.193v7.19m69.371.872v5.573m8.392-9.592v9.592m16.786-17.852l-.006 4.92m8.391-9.043v9.073m8.385-13.11v13.135m8.388-9.489v9.535m8.395-5.328v5.357m16.77 3.21v9.614m8.392-5.447l.006 5.45M4.726 36.675L2.568 33.46m13.104 10.729h6.532v18.659h-6.532z"/><path stroke="#231F20" stroke-linecap="round" stroke-linejoin="round" stroke-width=".4" d="M24.568 62.664v-20.61h2.031v-2.098H11.272v2.099h2.112V62.53m2.36-11.703h6.38M11.646 62.848h14.57m-14.541.1l1.394 3.91h1.534v-1.999m.01.001c2.88 1.533 5.756 1.481 8.639 0m2.967-1.912l-1.388 3.91h-1.527v-1.999m9.844-20.67h6.523v18.659h-6.523z"/><path stroke="#231F20" stroke-linecap="round" stroke-linejoin="round" stroke-width=".4" d="M42.036 62.664v-20.61h2.045v-2.098H28.74v2.099h2.112V62.53m2.361-11.703h6.392M29.124 62.848h14.573m-14.547.1l1.388 3.91h1.547v-1.999m.007.001c2.876 1.533 5.749 1.481 8.632 0m2.976-1.912l-1.39 3.91h-1.535v-1.999m9.855-20.67h6.526v18.659H50.63z"/><path stroke="#231F20" stroke-linecap="round" stroke-linejoin="round" stroke-width=".4" d="M59.518 62.664v-20.61h2.044v-2.098H46.23v2.099h2.11V62.53m2.361-11.703h6.39M46.606 62.848h14.573m-14.547.1l1.391 3.91h1.537v-1.999m.007.001c2.889 1.533 5.769 1.481 8.642 0m2.973-1.912l-1.39 3.91h-1.535v-1.999m9.851-20.67h6.526v18.659h-6.526z"/><path stroke="#231F20" stroke-linecap="round" stroke-linejoin="round" stroke-width=".4" d="M77 62.664v-20.61h2.044v-2.098H63.698v2.099h2.119V62.53m2.359-11.703h6.383M64.081 62.848h14.576m-14.543.1l1.387 3.91h1.534v-1.999m.014.001c2.872 1.533 5.755 1.481 8.638 0m2.973-1.912l-1.394 3.91h-1.534v-1.999m9.841-20.67h6.523v18.659h-6.523z"/><path stroke="#231F20" stroke-linecap="round" stroke-linejoin="round" stroke-width=".4" d="M94.456 62.664v-20.61h2.047v-2.098H81.166v2.099h2.113V62.53m2.356-11.703h6.386M81.543 62.848H96.12m-14.55.1l1.397 3.91h1.53v-1.999m.013.001c2.883 1.533 5.76 1.481 8.64 0m2.97-1.912l-1.395 3.91h-1.533v-1.999M59.921 1.711l2.236-1.44 2.188 1.44"/></g></svg>