<svg xmlns="http://www.w3.org/2000/svg" width="209" height="40"><defs><linearGradient id="a" x1="50%" x2="50%" y1="0%" y2="100%"><stop offset="0%" stop-color="#BFE2E9"/><stop offset="100%" stop-color="#DAE1C8"/></linearGradient></defs><g fill="none" fill-rule="evenodd"><path fill="url(#a)" fill-rule="nonzero" d="M1.621 39.076v-15.44H.548v-11.66h58.397l8.538-2.83V6.36h1.542v2.744l8.702 3.045h80.247l4.177-1.587V8.89l10-3.903V2.158h1.464v3l9.825 3.732v1.799l4.333 1.545h14.705v1.931h-1.032v3.125l6.74 2.66v3.516h-1.12v15.691z"/><path stroke="#231F20" stroke-linecap="round" stroke-linejoin="round" stroke-width=".4" d="M62.976 38.89V25.432h11.245v13.46"/><path stroke="#231F20" stroke-linecap="round" stroke-linejoin="round" stroke-width=".4" d="M64.672 38.893V27.697h7.855v11.196M68.6 27.774v10.92m4.481-18.993v2.394h-8.958v-2.372z"/><path stroke="#231F20" stroke-linecap="round" stroke-linejoin="round" stroke-width=".4" d="M62.996 23.219v-4.893l1.042-.002c1.034-1 2.695-1.827 4.58-1.827 1.86 0 3.513.812 4.543 1.798l1.046-.002v4.926H62.996zm4.124-3.382v2.197m2.98-2.197v2.197M48.998 34.403V27.23h.908c.554-.737 1.419-1.486 3.008-1.486 1.586 0 2.432.835 2.984 1.486h.924v7.173h-7.825z"/><path stroke="#231F20" stroke-linecap="round" stroke-linejoin="round" stroke-width=".4" d="M50.11 28.819l-.006 4.484h5.615l-.011-4.484zm2.806.108v4.167m-30.82-6.537h7.84v7.846h-7.84z"/><path stroke="#231F20" stroke-linecap="round" stroke-linejoin="round" stroke-width=".4" d="M23.191 27.697h5.606v5.629h-5.606zm2.827.194v5.435m54.357 1.077V27.23h.904c.554-.737 1.418-1.486 3.008-1.486 1.585 0 2.43.835 2.985 1.486h.927v7.173h-7.824z"/><path stroke="#231F20" stroke-linecap="round" stroke-linejoin="round" stroke-width=".4" d="M81.487 28.819l-.01 4.484h5.62v-4.455l-.016-.03zm2.8.048v4.227m-58.481-16.44v4.039h-4.472v-4.039"/><path stroke="#231F20" stroke-linecap="round" stroke-linejoin="round" stroke-width=".4" d="M26.897 17.18l-3.327-1.986-3.28 2.003m-12.752 9.36h7.838v7.846H7.538z"/><path stroke="#231F20" stroke-linecap="round" stroke-linejoin="round" stroke-width=".4" d="M8.635 27.697h5.598v5.629H8.635zm2.823.194v5.435m107.02-6.769h7.844v7.846h-7.844z"/><path stroke="#231F20" stroke-linecap="round" stroke-linejoin="round" stroke-width=".4" d="M119.624 27.697h5.602v5.629h-5.602zm2.776.194v5.435m.825-16.672v4.039h4.47v-4.039"/><path stroke="#231F20" stroke-linecap="round" stroke-linejoin="round" stroke-width=".4" d="M122.118 17.216l3.395-2.022 3.318 2.022m-27.151 9.345h7.846v7.842h-7.846z"/><path stroke="#231F20" stroke-linecap="round" stroke-linejoin="round" stroke-width=".4" d="M102.789 27.697h5.608v5.629h-5.608zm2.776.198v5.435m88.145 5.528V23.213h-13.43v15.645M187 23.553v15.048m-5.391-12.046h4.073m-4.073 1.118h4.073m-4.066 8.976h4.082m2.592-10.094h4.08m-4.08 1.118h4.08m-4.065 8.976h4.076"/><circle cx="184.152" cy="21.173" r="1" stroke="#231F20" stroke-linecap="round" stroke-width=".4"/><circle cx="189.771" cy="21.173" r="1" stroke="#231F20" stroke-linecap="round" stroke-width=".4"/><path stroke="#231F20" stroke-linecap="round" stroke-linejoin="round" stroke-width=".4" d="M165.604 38.858V23.213h-13.495v15.645m6.746-15.305v15.048m-5.419-12.046h4.096m-4.096 1.118h4.096m-4.089 8.976h4.095m2.608-10.094h4.093m-4.093 1.118h4.093m-4.085 8.976h4.1"/><circle cx="155.987" cy="21.173" r="1" stroke="#231F20" stroke-linecap="round" stroke-width=".4"/><path stroke="#231F20" stroke-linecap="round" stroke-width=".4" d="M162.333 21.173a.7.7 0 0 0-.706-.698.695.695 0 0 0-.69.698c0 .383.307.694.69.694a.697.697 0 0 0 .706-.694z"/><path stroke="#231F20" stroke-linecap="round" stroke-linejoin="round" stroke-width=".4" d="M3.628 12.01v9.729M6.7 12.01v9.729m3.074-9.729v9.729m3.068-9.729v9.729m3.077-9.729v9.729m3.07-9.729v9.729m9.217-9.729v9.737m3.072-9.737v9.737m3.07-9.737v9.737m3.074-9.737v9.737m3.07-9.703l.002 7.498m3.073-7.498v6.492m3.072-6.492l-.004 5.446m3.075-5.446v4.346m3.073-4.346l-.005 3.628m3.08-3.628l-.004 2.6m84.035-2.634v6.696M22.061 12.009v3.897m3.07-3.897v3.696m108.012-3.695v9.729m3.52-9.729v9.729m-6.59-9.729v9.729m-3.074-9.729v3.971m-3.069-3.971v3.993m-3.072-3.993v9.729m-3.07-9.729v9.729m-9.218-9.729v9.737m-3.073-9.737v9.737m-3.076-9.737v9.737m-3.068-9.737v9.737m-3.074-9.703l-.002 7.498m-3.071-7.498v6.492m-3.074-6.492v5.446m-3.066-5.446v4.346m-3.076-4.346l.002 3.628m-3.071-3.628v2.6m33.789-2.635v9.687m-3.068-9.687v9.751m-72.882.076H.697m58.377-9.827H.604M1.687 23.57V39.2m0 .002h205.425M97.039 23.512h-1.112V39.2h-54.95V23.512h-1.192m-.883-1.664l29.517-9.365 29.512 9.351m-57.538 1.678H.56"/><path stroke="#231F20" stroke-linecap="round" stroke-linejoin="round" stroke-width=".4" d="M37.424 20.605l30.99-9.802 30.737 9.849"/><path stroke="#231F20" stroke-linecap="round" stroke-linejoin="round" stroke-width=".4" d="M58.969 12.083l9.448-3.06 9.56 3.085m-19.057.191l.012 1.398m39.056 8.139h38.529m-58.802-9.831h80.65M96.53 23.512h42.159M77.999 12.16l-.012 1.562M.552 12.019v11.36m207.686-3.454v3.587h-1.122v15.655h-68.417V23.512"/><path stroke="#231F20" stroke-linecap="round" stroke-linejoin="round" stroke-width=".4" d="M136.674 21.838l36.202-13.24 35.333 13.193"/><path stroke="#231F20" stroke-linecap="round" stroke-linejoin="round" stroke-width=".4" d="M136.667 20.13l36.21-13.433 35.332 13.195"/><path stroke="#231F20" stroke-linecap="round" stroke-linejoin="round" stroke-width=".4" d="M162.24 8.783l10.636-3.957 10.652 3.975m-31.403 7.414l19.688-.012m11.715-7.389v1.799m-21.344-1.799v1.799m11.505-1.657l-.016 10.66h-1.64l.007-10.66m-.795 10.658h3.253M172.1 2.149v2.71m1.573.001V2.15m-.809-.103V.795m-1.619 1.303h3.253M67.64 6.376v2.708m1.574 0V6.376m-.807-.106V5.02m-1.612 1.305h3.234m103.831 9.89l19.343-.012M167.766 10.7l3.848 5.206m6.372-5.206l-4.046 5.37m19.656-1.67l9.013-.005m-1.091.089v2.74m1.102-2.835v-2.413h-15.513M152 14.358l-8.903-.006m-.004-2.182v5.367"/></g></svg>