<svg xmlns="http://www.w3.org/2000/svg" xmlns:xlink="http://www.w3.org/1999/xlink" viewBox="0 0 535 88"><defs><style>.cls-1,.cls-4{fill:none;stroke-linecap:round;stroke-linejoin:round;stroke-width:0.4px;}.cls-1{stroke:#231f20;}.cls-2{fill:url(#Безымянный_градиент_2);}.cls-3{fill:url(#Безымянный_градиент_2-2);}.cls-4{stroke:#696a69;}</style><linearGradient id="Безымянный_градиент_2" x1="-76.11" y1="315.9" x2="-76.11" y2="314.9" gradientTransform="matrix(199.51, 0, 0, -77.3, 15285.63, 24427.96)" gradientUnits="userSpaceOnUse"><stop offset="0" stop-color="#bfe2e9"/><stop offset="1" stop-color="#dae1c8"/></linearGradient><linearGradient id="Безымянный_градиент_2-2" x1="-75.56" y1="313.94" x2="-75.56" y2="312.94" gradientTransform="matrix(315.78, 0, 0, -45.78, 24237.96, 14412.44)" xlink:href="#Безымянный_градиент_2"/></defs><title>7-hover</title><g id="Слой_1" data-name="Слой 1"><path class="cls-1" d="M213.69.85V9.53"/><path class="cls-2" d="M167.78,9.83l32,.07-22.42,25v3.15h2.95l13.59,49H.28V40.28h23V33H66l18.77,7.24V33l54-7.39-72.42-5.7V18.59Z"/><path class="cls-1" d="M167.78,9.83h45.9M177,19.1v68m-9.31-62.18V87.13m-.14-77.28L66.61,18.47M177.38,34.94l22.41-25M.31,79.37H72.73M177.38,38.09h3l13.59,49L.28,87.18l0-8.35m167.9-24.56h8.57m-8.57-4.73h8.57m-8.57-4.73h8.57m-8.57-4.73h8.57m-8.57-4.73h8.57m-8.57-4.74h8.57m-8.57-4.73h8.57M213.68.55h-46.2m-101,10.3L167.6,18.91M167.48.55,57.26,10.1v9.16l82.43,6.54m-1.36.41L84.88,33M.31,40.28V79.34M112.58,40.47l-.12,22.11m55.75,20.09h8.57m-8.57-4.73h8.57m-8.57-4.73h8.57m-8.57-4.74h8.57m-8.57-4.73h8.57M168.21,59h8.57M66.46,9.73v8.65m9.2-9.44V17.6m9.2-9.43v8.65m9.2-9.44V16m9.2-9.44v8.65m9.2-9.44v8.65M121.66,5v8.65m9.2-9.43v8.65m9.2-9.44v8.65m9.2-9.43v8.64m9.2-9.43v8.65m9.2-9.44V9.74M204.6.7V9.35M195.66.7V9.35M186.09.7V9.35M176.84.7V9.35m-110.38,2V20M75.66,12v8.65m9.2-7.95v8.66m9.2-7.95v8.66m9.2-7.94v8.64m9.2-7.94V23.5m9.2-7.95v8.66m9.2-7.94v8.65m9.2-7.95v8.66m9.2-8v8m9.2-7.25v7.43m9.2-6.71v8.64M140.2,25.9,112.41,40.33M.35,40.28H112.57M84.81,33v7.24M23.32,33v7.24m89.14,22.29L72.86,79.34M23.32,33H66l18.77,7.25m-56.23.19V78.83M72.86,40.47V79.1m67.31-53.21H177"/><path class="cls-3" d="M219.37,41h64V46.9h95v3h86.13v9.19h70.35v27.7H247.92l-28.86-.1Z"/><path class="cls-1" d="M269.78,40.66l-15.4-16.09m-2.62,16.09-15.4-16.09m37.69,16.09-7.14-16.09M219.2,86.74V40.86h64.31v6h95.18v3.21H464.5v9.17H535"/><path class="cls-1" d="M248.72,86.74l15.86-8.67L535,77.48V59.19M315.22,46.71,299.83,30.62m-5,16L279.48,30.52m38.93,16-7.14-16.09m38.09,16.29L334,30.59M322.7,46.68l-15.4-16.09m44.35,16.09-7.13-16.09M421.39,50,406,33.95m-3.11,15.89L387.72,33.94m36.76,16-7.1-16m-183,28.35h45.52v4.83H234.37ZM355.45,46.68,348.3,30.59m42.18,19.18-7-15.83M265.37,40.66l-7.14-16.09M430.52,50l-7.12-16m84.79,25-15.4-16.1M486.3,58.78l-7.14-16.09M504,58.78l-7.16-16.09m-61,7.3-7.13-16m28.56,16-7.1-16m-188,28.35v4.5m12.17-4.5v4.5m27.56-4.49H307v4.83h-5.11Zm27.63,0h9.19v4.83H329.5Zm27.69,0h6.07v4.83h-6.07Z"/><path class="cls-4" d="M424.57,62.29h27.69v4.83H424.57Z"/><path class="cls-1" d="M234.37,73h12.36v4.56H234.37Zm43-10.74H452.26m-233,24.53H535V77.41"/></g></svg>