<svg xmlns="http://www.w3.org/2000/svg" width="28" height="28"><path d="M11.434 3.735a.427.427 0 0 0-.374.574c.335.928.38 1.429.34 1.693-.04.264-.145.365-.346.627a2.263 2.263 0 0 0-.487 1.286c-.024.374.014.83.133 1.414-.478.078-.924.171-1.32.28-.605.165-1.1.356-1.481.593-.345.215-.64.5-.694.887a.427.427 0 0 0-.006.046v.007a.427.427 0 0 0-.007.033v3.66c0 1.323.531 2.543 1.42 3.514-.586.103-1.095.24-1.507.446-.559.28-.98.77-.98 1.374 0 .505.342.917.787 1.2.445.282 1.024.486 1.727.653 1.407.333 3.298.493 5.382.493 2.085 0 3.976-.16 5.382-.493.704-.167 1.283-.371 1.728-.653.444-.283.787-.695.787-1.2 0-.605-.421-1.094-.98-1.374-.412-.205-.92-.343-1.508-.446a5.438 5.438 0 0 0 1.187-2.02h1.087c.578 0 1.058-.377 1.387-.88.33-.504.534-1.165.534-1.894 0-.728-.204-1.39-.534-1.893-.33-.504-.81-.88-1.387-.88h-.96c-.127-.237-.353-.426-.6-.58-.381-.237-.876-.428-1.48-.593a14.404 14.404 0 0 0-1.995-.374c-.118-.568-.145-.975-.127-1.26.03-.456.14-.608.307-.826.168-.219.445-.525.52-1.02.075-.496-.03-1.116-.387-2.107a.427.427 0 0 0-.426-.287.427.427 0 0 0-.374.574c.335.928.38 1.429.34 1.693-.04.264-.145.365-.347.627a2.263 2.263 0 0 0-.486 1.286c-.022.335.01.736.1 1.234a22.518 22.518 0 0 0-1.661-.074c-.09-.482-.116-.843-.1-1.1.03-.456.139-.608.307-.826.168-.219.445-.525.52-1.02.075-.496-.03-1.116-.387-2.107a.427.427 0 0 0-.427-.287.427.427 0 0 0-.373.574c.334.928.38 1.429.34 1.693-.04.264-.146.365-.347.627a2.263 2.263 0 0 0-.487 1.286c-.02.323.004.708.087 1.18-.602.02-1.178.058-1.72.12-.115-.556-.139-.958-.12-1.24.029-.456.138-.608.306-.826.168-.219.445-.525.52-1.02.076-.496-.03-1.116-.386-2.107a.427.427 0 0 0-.427-.287zm2.894 6.2c.575.008 1.131.038 1.654.087.056.21.12.427.193.667a.427.427 0 1 0 .814-.247c-.034-.11-.064-.21-.093-.313.574.083 1.096.185 1.54.306.554.151.994.328 1.26.494.268.166.301.29.301.28 0-.01-.023.085-.287.233-.263.148-.698.3-1.254.427-1.11.252-2.691.406-4.435.406-1.743 0-3.324-.154-4.435-.406-.555-.126-.99-.28-1.253-.427-.264-.148-.287-.243-.287-.233 0 .01.033-.114.3-.28.267-.166.707-.343 1.26-.494.38-.103.818-.197 1.294-.273.046.168.097.34.154.527a.427.427 0 1 0 .813-.247 17.237 17.237 0 0 1-.113-.387c.532-.058 1.1-.097 1.694-.113.06.233.13.476.213.747a.427.427 0 1 0 .814-.247c-.055-.18-.103-.346-.147-.507zm6.523 1.7h.853c.186 0 .447.148.674.494.226.345.393.859.393 1.426 0 .568-.167 1.075-.393 1.42-.227.346-.488.5-.674.5h-.893a5.01 5.01 0 0 0 .04-.64v-3.2zm-12.805.614c.365.182.816.331 1.354.453 1.206.274 2.829.427 4.621.427 1.793 0 3.415-.153 4.622-.427.538-.122.99-.27 1.354-.453v2.586c0 2.631-2.635 4.907-5.976 4.907-3.34 0-5.975-2.276-5.975-4.907V12.25zm1.374 6.84h.006c1.22.937 2.837 1.506 4.595 1.506 1.758 0 3.376-.57 4.595-1.506a.427.427 0 0 0 .047.006c.83.104 1.486.266 1.887.467.401.2.514.358.514.607 0 .134-.076.282-.387.48-.311.197-.825.386-1.474.54-1.297.307-3.141.473-5.182.473-2.04 0-3.885-.166-5.182-.473-.648-.154-1.162-.343-1.474-.54-.31-.198-.386-.346-.386-.48 0-.25.112-.407.513-.607s1.058-.363 1.888-.467a.427.427 0 0 0 .04-.006z"/></svg>