<svg xmlns="http://www.w3.org/2000/svg" width="28" height="28"><path d="M20.999 6.722L21 6.71a.58.58 0 0 0-.576-.585c-1.597 0-2.901 1.316-2.919 2.937 0 .012-.005.025-.005.036v3.673a2.965 2.965 0 0 0 2.348 2.912v6.476c0 .326.26.587.576.587.32 0 .575-.26.575-.587V6.722zm-2.347 6.057c0-.003.003-.004.003-.008V9.098c0-.788.503-1.448 1.193-1.694v7.062a1.797 1.797 0 0 1-1.196-1.687zm-5.804-2.43c0 1.438-1.012 2.64-2.35 2.912v8.905c0 .32-.257.584-.577.584a.582.582 0 0 1-.576-.584V13.26A2.965 2.965 0 0 1 7 10.349V6.717a.58.58 0 0 1 .575-.584h.002c.318 0 .573.262.573.584l.002 3.632c0 .79.501 1.447 1.193 1.691V6.712c0-.325.26-.587.579-.587a.58.58 0 0 1 .575.587v5.328a1.786 1.786 0 0 0 1.194-1.691l-.002-3.632c0-.322.26-.584.575-.584.321 0 .58.262.58.584l.002 3.632z"/></svg>