<svg xmlns="http://www.w3.org/2000/svg" width="40" height="40"><path d="M36.939 22.98c-.399-2.918-2.421-5.371-5.24-6.357a8.083 8.083 0 0 0-8.143 1.678c-1.658-2.596-4.81-3.867-7.843-3.162-3.033.705-5.274 3.23-5.575 6.282-.3 3.051 1.404 5.953 4.242 7.219.094 3.542 3.042 6.364 6.643 6.36h12.34c2.947.004 5.543-1.908 6.37-4.691.827-2.784-.313-5.77-2.799-7.33h.005zm-22.296 3.712c-2.01-1.157-3.042-3.448-2.565-5.69.476-2.241 2.355-3.933 4.667-4.2 2.312-.269 4.54.947 5.533 3.018a7.826 7.826 0 0 0-.97 2.147h-.285c-2.956.01-5.553 1.933-6.38 4.725zm18.724 6.447H21.023c-2.625.003-4.757-2.083-4.77-4.665v-.382c.213-2.425 2.272-4.29 4.747-4.297.284 0 .567.027.847.078h.379l.122-.041h.047a.94.94 0 0 0 .121-.07h.033a.933.933 0 0 0 .108-.087l.032-.027a.924.924 0 0 0 .08-.097l.033-.046a.916.916 0 0 0 .051-.097l.033-.069a.91.91 0 0 0 .028-.092v-.074c0-.023 0 0 0 0 .451-3.056 3.178-5.282 6.314-5.153 3.136.128 5.666 2.568 5.857 5.65v.176c0 .023 0 .046.028.073a.935.935 0 0 0 .038.092l.042.065.051.083.056.06.066.069.06.046.09.06h.023c1.918 1.018 2.888 3.187 2.356 5.266-.533 2.08-2.433 3.537-4.612 3.54l.084-.06zM16.44 10.95V5.921c0-.509.42-.921.936-.921a.93.93 0 0 1 .937.921v5.03c0 .508-.42.92-.937.92a.929.929 0 0 1-.936-.92zm-11.352.36a.914.914 0 0 1 .005-1.308.951.951 0 0 1 1.33.004l3.609 3.546a.912.912 0 0 1 .242.89.93.93 0 0 1-.662.652.947.947 0 0 1-.905-.238l-3.619-3.547zm.96 11.707H.936A.929.929 0 0 1 0 22.095c0-.508.42-.92.936-.92h5.112c.517 0 .936.412.936.92 0 .51-.419.922-.936.922zm3.979 6.31a.914.914 0 0 1 0 1.302l-3.604 3.556a.947.947 0 0 1-1.292-.02.91.91 0 0 1-.043-1.27l3.619-3.56a.944.944 0 0 1 1.325-.009h-.005zm14.699-14.462a.914.914 0 0 1 0-1.303l3.618-3.56a.948.948 0 0 1 1.325 0 .911.911 0 0 1 0 1.303l-3.618 3.56a.944.944 0 0 1-1.325 0z"/></svg>