<svg xmlns="http://www.w3.org/2000/svg" width="24" height="24"><g transform="translate(2 3)"><mask id="a" fill="#fff"><path d="M2.867 2.478c-.671 0-1.215.544-1.215 1.215v12.44c0 .671.544 1.215 1.215 1.215H16.96c.67 0 1.214-.544 1.214-1.215V3.693c0-.671-.544-1.215-1.214-1.215H2.867zm12.796-1.214h1.297a2.429 2.429 0 0 1 2.428 2.429v12.44a2.429 2.429 0 0 1-2.428 2.43H2.867a2.429 2.429 0 0 1-2.43-2.43V3.693a2.429 2.429 0 0 1 2.43-2.43H4.13V.689c0-.38.326-.688.727-.688.402 0 .727.308.727.688v.576h8.625V.688c0-.38.325-.688.727-.688.401 0 .727.308.727.688v.576zm-4.098 7.823a.826.826 0 1 0 0 1.652.826.826 0 0 0 0-1.652zm-3.304 0a.826.826 0 1 0 0 1.652.826.826 0 0 0 0-1.652zm-3.304 3.304a.826.826 0 1 0 0 1.652.826.826 0 0 0 0-1.652zm6.608 0a.826.826 0 1 0 0 1.652.826.826 0 0 0 0-1.652zm0-6.608a.826.826 0 1 0 0 1.652.826.826 0 0 0 0-1.652zm-3.304 0a.826.826 0 1 0 0 1.652.826.826 0 0 0 0-1.652zm0 6.608a.826.826 0 1 0 0 1.652.826.826 0 0 0 0-1.652zM4.957 9.087a.826.826 0 1 0 0 1.652.826.826 0 0 0 0-1.652zm0-3.304a.826.826 0 1 0 0 1.652.826.826 0 0 0 0-1.652zm9.913 6.608a.826.826 0 1 0 0 1.652.826.826 0 0 0 0-1.652zm0-3.304a.826.826 0 1 0 0 1.652.826.826 0 0 0 0-1.652zm0-3.304a.826.826 0 1 0 0 1.652.826.826 0 0 0 0-1.652z"/></mask><g mask="url(#a)"><path d="M0-.826h20v20H0z"/></g></g></svg>