<svg xmlns="http://www.w3.org/2000/svg" width="24" height="24"><path fill="#068EAC" d="M21.262 14.796c.372 0 .673.301.673.673v1.94a3.215 3.215 0 0 1-3.211 3.211H4.876a3.215 3.215 0 0 1-3.211-3.211v-1.94a.674.674 0 1 1 1.347 0v1.94c0 1.028.836 1.864 1.864 1.864h13.848a1.866 1.866 0 0 0 1.864-1.864v-1.94c0-.372.302-.673.674-.673zm-5.152-5.24a.674.674 0 0 1 .897 1.005l-4.251 3.799a1.432 1.432 0 0 1-1.912 0l-4.252-3.8a.674.674 0 0 1 .898-1.004l3.636 3.248V3.339a.674.674 0 0 1 1.348 0v9.466l3.636-3.249z"/></svg>