<svg xmlns="http://www.w3.org/2000/svg" width="70" height="70"><g fill="none" fill-rule="evenodd"><circle cx="35" cy="35" r="35" fill="#DD4B39"/><path fill="#FFF" d="M17.03 34.866c.099-5.892 5.51-11.053 11.397-10.856 2.82-.131 5.472 1.097 7.632 2.823a40.624 40.624 0 0 1-2.897 3.004c-2.596-1.797-6.29-2.31-8.887-.235-3.715 2.572-3.884 8.645-.31 11.414 3.474 3.156 10.043 1.589 11.003-3.244-2.177-.033-4.359 0-6.535-.071-.006-1.3-.011-2.6-.006-3.9 3.639-.01 7.278-.016 10.922.011.218 3.059-.185 6.313-2.062 8.842-2.843 4.003-8.55 5.172-13 3.457-4.469-1.704-7.633-6.428-7.257-11.245M47.29 31h3.246c.005 1.087.01 2.179.021 3.266 1.086.01 2.177.01 3.263.022v3.249c-1.086.01-2.171.016-3.263.027a717.62 717.62 0 0 0-.021 3.266h-3.252c-.01-1.087-.01-2.173-.022-3.26L44 37.537v-3.25a646.38 646.38 0 0 1 3.262-.021c.006-1.093.017-2.18.028-3.266"/></g></svg>