<svg xmlns="http://www.w3.org/2000/svg" width="28" height="28"><path d="M20.976 13.484a.588.588 0 0 0-.59.588v4.21h-6.573c0-.015.002-.115 0-.154-.068-1.468-1.48-2.874-2.924-2.874H8.483v-2.373a.59.59 0 0 0-.583-.59.588.588 0 0 0-.587.59v8.403a.59.59 0 0 0 .587.591.591.591 0 0 0 .583-.591v-1.819h11.903v1.819a.59.59 0 1 0 1.18 0v-7.212a.59.59 0 0 0-.59-.588zm-12.493 2.95h2.406c.803 0 1.687.875 1.75 1.707.005.033.005.126.01.139H8.483v-1.847zM6.712 9.876a.595.595 0 0 1-.539-.351.599.599 0 0 1 .304-.783l7.722-3.444a.594.594 0 0 1 .474 0l7.73 3.444a.594.594 0 0 1 .296.783.583.583 0 0 1-.771.3L14.43 6.488l-7.478 3.34a.61.61 0 0 1-.241.05z"/></svg>