<svg xmlns="http://www.w3.org/2000/svg" width="28" height="28"><path d="M15.59 9.058a.804.804 0 0 1-.137-.016.58.58 0 0 1-.457-.702l.425-1.766c.077-.314.403-.505.732-.435a.584.584 0 0 1 .457.701l-.423 1.765a.61.61 0 0 1-.596.453zm-.02 2.657c-.003.018-2.047 8.271-2.055 8.292-.09.439-.013.843.231 1.134.238.283.61.436 1.052.436.338 0 .61.264.61.585a.599.599 0 0 1-.61.588c-.819 0-1.535-.313-2.008-.879-.485-.577-.654-1.367-.463-2.17.01-.05 1.9-7.619 1.9-7.619h-1.195c-.338 0-.613-.258-.613-.583a.6.6 0 0 1 .613-.585H15c.34 0 .616.26.616.585a.618.618 0 0 1-.046.216z"/></svg>