<svg xmlns="http://www.w3.org/2000/svg" xmlns:xlink="http://www.w3.org/1999/xlink" width="70" height="70"><defs><rect id="a" width="70" height="70" rx="35"/><linearGradient id="b" x1="17.939%" x2="83.162%" y1="15.466%" y2="85.204%"><stop offset="0%" stop-color="#395DFA"/><stop offset="21.653%" stop-color="#544CED"/><stop offset="44.764%" stop-color="#903ACD"/><stop offset="68.339%" stop-color="#D53592"/><stop offset="100%" stop-color="#F4306D"/></linearGradient><filter id="d" width="501.5%" height="501.5%" x="-200.8%" y="-200.8%" filterUnits="objectBoundingBox"><feGaussianBlur in="SourceGraphic" stdDeviation="50"/></filter><filter id="e" width="333.4%" height="333.4%" x="-116.7%" y="-116.7%" filterUnits="objectBoundingBox"><feGaussianBlur in="SourceGraphic" stdDeviation="24"/></filter><filter id="f" width="348.4%" height="348.4%" x="-124.2%" y="-124.2%" filterUnits="objectBoundingBox"><feGaussianBlur in="SourceGraphic" stdDeviation="21.274"/></filter><filter id="g" width="416.2%" height="416.2%" x="-158.1%" y="-158.1%" filterUnits="objectBoundingBox"><feGaussianBlur in="SourceGraphic" stdDeviation="24"/></filter><filter id="h" width="831%" height="831%" x="-365.5%" y="-365.5%" filterUnits="objectBoundingBox"><feGaussianBlur in="SourceGraphic" stdDeviation="48.382"/></filter></defs><g fill="none" fill-rule="evenodd"><mask id="c" fill="#fff"><use xlink:href="#a"/></mask><use fill="#C5C5C5" xlink:href="#a"/><circle cx="35.673" cy="33.429" r="44.647" fill="url(#b)" mask="url(#c)"/><circle cx="22.997" cy="62.933" r="37.356" fill="#F8443E" filter="url(#d)" mask="url(#c)"/><circle cx="22.099" cy="69.215" r="30.849" fill="#F86737" filter="url(#e)" mask="url(#c)"/><circle cx="22.772" cy="69.663" r="25.689" fill="#F88330" filter="url(#f)" mask="url(#c)"/><circle cx="22.772" cy="72.58" r="22.772" fill="#FBBB45" filter="url(#g)" mask="url(#c)"/><circle cx="22.548" cy="75.497" r="19.856" fill="#FBE18A" filter="url(#h)" mask="url(#c)"/><g fill="#FFF" transform="translate(17 17)"><path d="M0 10.389C0 4.65 4.651 0 10.389 0H25.61C31.35 0 36 4.651 36 10.389V25.61C36 31.35 31.349 36 25.611 36H10.39C4.65 36 0 31.349 0 25.611V10.39zm3.259.31v14.603c0 4.115 3.33 7.44 7.44 7.44h14.603a7.437 7.437 0 0 0 7.44-7.44V10.698a7.437 7.437 0 0 0-7.44-7.44H10.698a7.436 7.436 0 0 0-7.44 7.44z"/><path d="M18 27.155a9.155 9.155 0 1 1 0-18.31 9.155 9.155 0 0 1 0 18.31zm0-3.258a5.897 5.897 0 1 0 0-11.794 5.897 5.897 0 0 0 0 11.794z"/><circle cx="27.466" cy="8.379" r="2.172"/></g></g></svg>