<svg xmlns="http://www.w3.org/2000/svg" width="70" height="70"><g fill-rule="evenodd" transform="translate(17 17)"><path d="M0 10.389C0 4.65 4.651 0 10.389 0H25.61C31.35 0 36 4.651 36 10.389V25.61C36 31.35 31.349 36 25.611 36H10.39C4.65 36 0 31.349 0 25.611V10.39zm3.259.31v14.603c0 4.115 3.33 7.44 7.44 7.44h14.603a7.437 7.437 0 0 0 7.44-7.44V10.698a7.437 7.437 0 0 0-7.44-7.44H10.698a7.436 7.436 0 0 0-7.44 7.44z"/><path d="M18 27.155a9.155 9.155 0 1 1 0-18.31 9.155 9.155 0 0 1 0 18.31zm0-3.258a5.897 5.897 0 1 0 0-11.794 5.897 5.897 0 0 0 0 11.794z"/><circle cx="27.466" cy="8.379" r="2.172"/></g></svg>