<svg xmlns="http://www.w3.org/2000/svg" width="24" height="24"><path d="M13.384 6.784a2.17 2.17 0 1 0-.002 4.345 2.17 2.17 0 0 0 .002-4.345zM4.274 8.95c0-1.27.257-2.498.763-3.653A9.308 9.308 0 0 1 6.46 3.016a.59.59 0 0 0-.04-.808L6.411 2.2a.638.638 0 0 0-.922.045c-.661.78-1.2 1.645-1.608 2.58a10.222 10.222 0 0 0-.858 4.122c0 1.433.29 2.82.858 4.126.408.935.947 1.8 1.608 2.58a.635.635 0 0 0 .922.045.584.584 0 0 0 .041-.804 9.433 9.433 0 0 1-1.424-2.29 9.177 9.177 0 0 1-.756-3.653zm13.95 11.029a2.455 2.455 0 0 1-1.746.726c-.34 0-.678-.065-.951-.188l-.013-.004-.012-.004a3.177 3.177 0 0 1-1.102-.902c-.327-.424-.6-.992-.865-1.784-.482-1.477-1.368-2.159-2.306-2.881l-.02-.016-.017-.013c-.845-.653-1.714-1.326-2.486-2.722-.58-1.045-.898-2.192-.898-3.229a5.55 5.55 0 0 1 1.616-3.95C10.465 3.97 11.87 3.4 13.376 3.4c1.506 0 2.91.58 3.95 1.62a5.422 5.422 0 0 1 1.543 3.033c.05.302.31.518.613.518h.004a.62.62 0 0 0 .612-.722 6.691 6.691 0 0 0-1.882-3.718c-1.27-1.274-2.992-1.98-4.84-1.98-1.854 0-3.572.698-4.841 1.971-1.27 1.27-1.972 2.992-1.972 4.841 0 1.237.376 2.596 1.053 3.829.902 1.637 1.972 2.461 2.833 3.122.82.629 1.53 1.172 1.902 2.31.584 1.772 1.31 2.735 2.58 3.409l.049.024c.465.204.98.31 1.49.31.991 0 1.926-.387 2.628-1.09a3.65 3.65 0 0 0 .886-1.404.62.62 0 0 0-.592-.816h-.012a.614.614 0 0 0-.584.404 2.33 2.33 0 0 1-.572.919z"/></svg>