<svg xmlns="http://www.w3.org/2000/svg" width="24" height="24"><path d="M22.666 14.096L19.754 4.85a2.561 2.561 0 0 0-3.192-1.7.608.608 0 0 0 .352 1.163 1.34 1.34 0 0 1 1.672.893v.005l2.083 6.622a4.53 4.53 0 0 0-2.236-.586 4.564 4.564 0 0 0-4.526 4.03h-3.832a4.562 4.562 0 0 0-6.762-3.358l2.11-6.708v-.005a1.34 1.34 0 0 1 1.672-.893c.32.1.663-.085.757-.405a.606.606 0 0 0-.405-.758 2.563 2.563 0 0 0-3.192 1.7l-2.903 9.255a.472.472 0 0 0-.018.077A4.572 4.572 0 0 0 1 15.886a4.566 4.566 0 0 0 4.558 4.558 4.562 4.562 0 0 0 4.517-3.95h3.855a4.565 4.565 0 0 0 4.503 3.869 4.566 4.566 0 0 0 4.558-4.558 4.485 4.485 0 0 0-.325-1.709zm-17.104 5.13a3.342 3.342 0 0 1-3.34-3.34 3.342 3.342 0 0 1 3.34-3.34 3.342 3.342 0 0 1 3.34 3.34 3.345 3.345 0 0 1-3.34 3.34zm12.876-.08a3.342 3.342 0 0 1-3.34-3.341 3.345 3.345 0 0 1 3.34-3.34 3.344 3.344 0 0 1 3.34 3.34 3.342 3.342 0 0 1-3.34 3.34z"/></svg>