<svg xmlns="http://www.w3.org/2000/svg" width="24" height="24"><path d="M13.56 20.373h-.89l-.03-3.522a.722.722 0 0 0-.678-.476h-3.41v-3.24h4.966c.398 0 .72-.321.72-.72a.719.719 0 0 0-.72-.72h-4.97V9.47a.719.719 0 0 0-.72-.72.719.719 0 0 0-.72.72v7.625c0 .398.322.72.72.72H11.3l.03 3.521a.722.722 0 0 0 .678.477h1.552c.399 0 .72-.322.72-.72a.719.719 0 0 0-.72-.72zM7.795 7.786a1.693 1.693 0 1 0 0-3.386C6.86 4.4 6.1 5.16 6.1 6.091c0 .936.76 1.695 1.695 1.695z"/><path d="M18.058 3.083h-4.22a.589.589 0 0 0-.588.584c0 .262.167.487.417.558v6.488c0 .07.016.141.041.204l.9 2.37a.583.583 0 0 0 .546.375h.221v6.425a.573.573 0 0 0-.217.38l-.12.8a.65.65 0 0 0 .141.508.623.623 0 0 0 .471.225h.6a.63.63 0 0 0 .613-.725l-.113-.8c-.02-.15-.125-.288-.208-.383v-6.425h.2c.241 0 .458-.15.541-.375l.892-2.363a.59.59 0 0 0 .033-.208V4.225c.25-.07.425-.3.425-.558a.578.578 0 0 0-.575-.584zM17.042 4.25v3.792h-2.209V4.25h2.209zm0 4.625v1.738l-.7 1.887h-.784l-.725-1.892V8.875h2.209z"/></svg>