<svg xmlns="http://www.w3.org/2000/svg" width="24" height="24"><path d="M11.194 1.001c5.045.07 9.065 4.323 8.864 9.343.012.073.008.083.008.708l2 3.248c.234.38-.04.87-.486.87h-1.514v2.498a1.984 1.984 0 0 1-1.982 1.982h-3.296v2.734a.57.57 0 0 1-.57.571H7.913a.57.57 0 0 1-.57-.57c0-2.426-.931-4.417-2.418-5.805A9.031 9.031 0 0 1 2.066 10a8.994 8.994 0 0 1 9.128-8.999zm-5.49 14.744c1.666 1.555 2.662 3.747 2.771 6.069h5.171v-2.735a.57.57 0 0 1 .571-.57h3.867a.84.84 0 0 0 .84-.84V14.6a.57.57 0 0 1 .57-.571h1.064c-1.683-2.732-1.634-2.592-1.634-2.815v-.657c-.05-.235.392-3.408-2.312-6.11C11.676-.482 3.208 3.007 3.208 10c0 2.17.91 4.264 2.497 5.745z"/><path d="M5.31 6.236c2.143-3.276 6.574-4.128 9.77-1.81.672.49 1.657 1.834.579 3.408-1.457 2.129-3.404.995-3.827 1.178-.075.102-.055.394-.05.497.01.258.024.578-.097.9-.507 1.357-2.389 1.02-2.593 1.033-.038.077-.092.234-.13.344-.872 2.548-3.504 2.585-4.21.97a6.858 6.858 0 0 1 .557-6.52zm.489 6.063a.655.655 0 0 0 .598.405c.693 0 1.193-.434 1.485-1.288.253-.737.5-1.213 1.583-1.098.48.051 1.044-.024 1.151-.309.056-.15.018-.422.017-.7 0-.599.234-1.07.644-1.295 1.112-.61 2.314.82 3.44-.825.691-1.01-.14-1.712-.308-1.84a5.707 5.707 0 0 0-8.144 1.512 5.72 5.72 0 0 0-.466 5.438z"/></svg>