<svg xmlns="http://www.w3.org/2000/svg" width="24" height="24"><path fill="#098EA9" d="M20.875 16.504V7.499a1.85 1.85 0 0 0-1.847-1.847L4.974 5.649a1.852 1.852 0 0 0-1.85 1.85v9.005A1.848 1.848 0 0 0 4.97 18.35h14.051c.496 0 .958-.194 1.306-.542.353-.347.544-.812.547-1.305zM9.331 11.619l-5.184 5.184a.896.896 0 0 1-.054-.3V7.5c0-.29.148-.564.388-.73l4.85 4.85zm10.52 5.184l-5.183-5.184 4.847-4.847c.243.163.39.436.388.73v9.004a.757.757 0 0 1-.051.297zm-7.227-4.508a.881.881 0 0 1-1.243 0L8.236 9.15 5.7 6.615l12.6.003-5.677 5.677zm-7.69 5.09l5.081-5.081.679.678a1.85 1.85 0 0 0 2.611 0l.679-.678 5.08 5.08c-.01 0-.025.003-.04 0H4.975c-.011 0-.026-.002-.04 0z"/></svg>