<svg xmlns="http://www.w3.org/2000/svg" width="40" height="40"><path d="M39.86 34.709l-7.476-14.434c-.186-.322-.467-.415-.84-.415h-5.56l2.195-3.55a4.14 4.14 0 0 0 .234-.415l.187-.323c0-.046.047-.092.047-.139a9.67 9.67 0 0 0 1.214-4.703c0-5.35-4.438-9.73-9.858-9.73-5.42 0-9.858 4.38-9.858 9.73 0 1.66.42 3.32 1.308 4.796l.14.184c.094.185.187.415.28.554l2.197 3.55H8.463c-.374 0-.654.139-.84.415L.1 34.847c-.14.277-.14.554.047.83.187.23.467.323.794.323h38.125c.514 0 .934-.323.934-.83a.682.682 0 0 0-.14-.461zm-26.398-19.46l-.28-.415-.094-.23a7.872 7.872 0 0 1-1.027-3.874c0-4.335 3.597-7.885 7.989-7.885 4.392 0 7.99 3.55 7.99 7.885 0 1.337-.374 2.674-1.029 3.873v.047l-.14.23c-.046.092-.14.185-.187.277l-.046.046-2.99 4.657-3.598 5.672v-.046L13.462 15.25zM2.482 34.155l6.588-12.45h6.214l3.972 6.133c.187.277.467.323.794.323h.047c.327 0 .607-.046.747-.323l3.925-6.133h6.214l6.587 12.45H2.483zm17.615-17.984c-3.084 0-5.607-2.49-5.607-5.533 0-3.044 2.523-5.534 5.607-5.534 3.083 0 5.606 2.49 5.606 5.534 0 3.043-2.523 5.533-5.606 5.533zm0-10.145c-2.57 0-4.672 2.075-4.672 4.612 0 2.536 2.102 4.611 4.672 4.611s4.672-2.075 4.672-4.611c0-2.537-2.103-4.612-4.672-4.612z"/></svg>