<svg xmlns="http://www.w3.org/2000/svg" width="70" height="70"><g fill="none" fill-rule="evenodd"><circle cx="35" cy="35" r="35" fill="#F58220"/><path fill="#FFF" d="M38.769 43.401a16.826 16.826 0 0 0 5.227-2.17 2.648 2.648 0 0 0 .826-3.646 2.632 2.632 0 0 0-3.637-.833 11.409 11.409 0 0 1-12.12 0 2.632 2.632 0 0 0-3.638.833 2.65 2.65 0 0 0 .826 3.645 16.826 16.826 0 0 0 5.227 2.171l-5.027 5.043a2.644 2.644 0 0 0 1.862 4.51 2.64 2.64 0 0 0 1.867-.773l4.945-4.957 4.945 4.957a2.63 2.63 0 0 0 3.728 0 2.644 2.644 0 0 0 0-3.737l-5.031-5.043m-3.642-20.112a3.735 3.735 0 0 1 0 7.468 3.737 3.737 0 0 1-3.729-3.732 3.738 3.738 0 0 1 3.729-3.736zm0 12.753c4.963 0 9-4.047 9-9.017 0-4.979-4.037-9.025-9-9.025-4.964 0-9 4.046-9 9.02 0 4.975 4.036 9.022 9 9.022z"/></g></svg>