<svg xmlns="http://www.w3.org/2000/svg" width="22" height="30"><path fill="#FFF" stroke="#000" d="M11 30c7.333-7.329 11-13.662 11-19 0-6.075-4.925-11-11-11S0 4.925 0 11c0 5.39 3.667 11.724 11 19z"/><g transform="translate(1 1)"><mask id="a" fill="#fff"><rect width="20" height="20" rx="10"/></mask><g fill="#FFF" mask="url(#a)"><path d="M0 0h20v20H0z"/></g></g><path d="M12.136 7.47a.574.574 0 0 1-.098-.012.414.414 0 0 1-.326-.501l.303-1.261a.438.438 0 0 1 .523-.31.417.417 0 0 1 .326.5l-.302 1.26a.436.436 0 0 1-.426.324zm-.015 1.898c-.002.012-1.462 5.908-1.468 5.923-.064.313-.01.602.166.81.17.202.436.311.751.311.241 0 .436.188.436.418 0 .232-.195.42-.436.42-.585 0-1.096-.223-1.434-.628-.347-.412-.468-.976-.33-1.55.006-.036 1.356-5.442 1.356-5.442h-.853a.427.427 0 0 1-.438-.417c0-.231.196-.418.438-.418h1.406a.43.43 0 0 1 .44.418.442.442 0 0 1-.034.155z"/></svg>