<svg xmlns="http://www.w3.org/2000/svg" width="22" height="30"><path fill="#068EAC" d="M11 30c7.333-7.329 11-13.662 11-19 0-6.075-4.925-11-11-11S0 4.925 0 11c0 5.39 3.667 11.724 11 19z"/><mask id="a" fill="#fff"><rect width="22" height="22" rx="11"/></mask><g fill="#068EAC" mask="url(#a)"><path d="M0 0h22v22H0z"/></g><path fill="#FFF" d="M12.25 7.117a.631.631 0 0 1-.109-.013.456.456 0 0 1-.358-.551l.333-1.387a.482.482 0 0 1 .576-.342c.257.057.417.3.358.55l-.332 1.387a.48.48 0 0 1-.468.356zm-.017 2.088c-.002.014-1.608 6.499-1.614 6.515-.071.344-.01.662.182.891.187.222.48.343.826.343a.47.47 0 0 1 .48.46.47.47 0 0 1-.48.461c-.644 0-1.206-.246-1.578-.69-.381-.454-.514-1.075-.363-1.706.007-.04 1.492-5.986 1.492-5.986h-.939a.47.47 0 0 1-.481-.458.47.47 0 0 1 .481-.46h1.547c.266 0 .484.205.484.46a.486.486 0 0 1-.037.17z"/></svg>