<svg xmlns="http://www.w3.org/2000/svg" width="48" height="48"><path fill="#098EA9" d="M1.934 44.03c3.996-4.072 6.834-7.582 8.478-10.533 1.68-2.95 2.017-5.901 1.083-8.89-1.158-3.697-4.295-5.714-9.412-5.975-1.233-.075-1.942-.299-2.054-.71-.187-.597.56-1.942 1.531-4.407 1.307-3.1 2.615-6.05 4.893-11.205C9.777-5.27 19.45 7.763 21.206 13.328c1.83 5.827 1.12 11.803-2.13 17.89-3.249 6.089-8.29 11.542-15.126 16.36l-2.016-3.549zm27.9 3.585c6.834-4.818 11.876-10.271 15.126-16.359 3.25-6.088 3.959-12.064 2.129-17.89-1.756-5.603-11.43-18.6-14.753-11.018-2.279 5.191-3.586 8.105-4.893 11.28-1.008 2.427-1.718 3.809-1.531 4.406.112.374.821.598 2.054.71 5.117.262 8.254 2.241 9.412 5.976.934 2.988.598 5.938-1.083 8.889-1.68 2.95-4.482 6.461-8.478 10.532l2.016 3.474z"/></svg>