<svg xmlns="http://www.w3.org/2000/svg" width="64" height="64" stroke="#000"><g transform="translate(1 1)"><path d="M36.743 19c-2.34 0-4.257 1.884-4.257 4.186 0 .36.055.704.142 1.038l-5.755 3.48a4.279 4.279 0 0 0-2.616-.89C21.916 26.814 20 28.698 20 31s1.916 4.186 4.257 4.186c.988 0 1.9-.337 2.625-.898l5.746 3.48a4.062 4.062 0 0 0-.142 1.046c0 2.302 1.916 4.186 4.257 4.186C39.084 43 41 41.116 41 38.814s-1.916-4.186-4.257-4.186a4.28 4.28 0 0 0-3.352 1.613l-5.4-3.235a4.085 4.085 0 0 0-.01-4.02l5.41-3.236a4.275 4.275 0 0 0 3.352 1.622c2.341 0 4.257-1.884 4.257-4.186S39.084 19 36.743 19zm0 1.674c1.42 0 2.554 1.115 2.554 2.512s-1.133 2.512-2.554 2.512c-1.42 0-2.554-1.115-2.554-2.512s1.134-2.512 2.554-2.512zm-12.486 7.814c1.42 0 2.554 1.115 2.554 2.512s-1.134 2.512-2.554 2.512-2.554-1.115-2.554-2.512 1.133-2.512 2.554-2.512zm12.486 7.814c1.42 0 2.554 1.115 2.554 2.512s-1.133 2.512-2.554 2.512c-1.42 0-2.554-1.115-2.554-2.512s1.134-2.512 2.554-2.512z" stroke="none"/><circle cx="31" cy="31" r="31" fill="none" stroke-width="2"/></g></svg>