<svg xmlns="http://www.w3.org/2000/svg" width="28" height="28"><path d="M19.515 10.148l.81-.822c.895-.92.895-2.415-.002-3.345l-.038-.037a2.253 2.253 0 0 0-1.629-.694c-.615 0-1.191.244-1.61.679L15.76 7.153l-1.273-1.21a2.248 2.248 0 0 0-1.628-.693h-.001c-.614 0-1.192.244-1.624.694l-.044.042a2.42 2.42 0 0 0 .002 3.344l.672.684H9.256c-1.327 0-2.256 1-2.256 2.425v7.013c0 1.425.93 2.423 2.256 2.423h9.485c1.333 0 2.259-.998 2.259-2.423V12.44c0-1.13-.586-1.98-1.485-2.291zm.333 3.425H16.35v-2.387h2.391c.819 0 1.107.648 1.107 1.252v1.135zm-2.002-6.801a1.136 1.136 0 0 1 1.624.004l.04.038c.45.467.45 1.222.005 1.683l-1.16 1.174c-.212.218-.498.33-.794.343h-1.21V8.195l1.495-1.423zm-5.842.043l.043-.044c.22-.225.505-.347.81-.347h.002c.305 0 .593.122.828.363l1.512 1.44v1.786h-1.252a1.112 1.112 0 0 1-.787-.35l-1.154-1.167a1.214 1.214 0 0 1-.002-1.68zM9.257 20.702c-.817 0-1.105-.65-1.105-1.251v-4.705h5.293a.581.581 0 0 0 .576-.587.583.583 0 0 0-.576-.586H8.152v-1.135c0-.604.287-1.252 1.105-1.252H15.2v9.516H9.257zm10.591-1.251c0 .602-.287 1.25-1.107 1.25h-2.39v-5.954h3.497v4.704z"/></svg>