<svg xmlns="http://www.w3.org/2000/svg" xmlns:xlink="http://www.w3.org/1999/xlink" width="24" height="26"><defs><path id="a" d="M23.213 10.545l-2.678-8.232a.454.454 0 0 0-.572-.29L.313 8.4a.453.453 0 0 0-.29.571L1.29 12.87l-.001.022v8.656c0 .25.203.453.453.453h20.662c.25 0 .454-.203.454-.453V12.89a.454.454 0 0 0-.454-.453h-3.555l4.073-1.322a.453.453 0 0 0 .291-.571zm-1.263 2.8v7.748H2.196v-7.748H4.71v5.05a.454.454 0 0 0 .908 0v-5.05H21.95zm-6.037-.907H2.104L1.026 9.123l2.392-.776.915 2.777a.454.454 0 0 0 .862-.283L4.28 8.066l15.531-5.041 2.398 7.369-6.297 2.044z"/></defs><g fill="none" fill-rule="evenodd"><path d="M0 2h24v24H0z"/><g transform="translate(0 2)"><mask id="b" fill="#fff"><use xlink:href="#a"/></mask><g fill="#068EAC" mask="url(#b)"><path d="M0 0h24v24H0z"/></g></g></g></svg>