<svg xmlns="http://www.w3.org/2000/svg" width="24" height="24"><g fill="none" fill-rule="evenodd"><path d="M0 0h24v24H0z"/><path stroke="#098EA9" d="M2 8.243V17c.9 2.162 4.144 3.243 9.73 3.243 5.585 0 8.919-1.08 10-3.243V8.243"/><path stroke="#098EA9" d="M6 20l3.838-3.919c.54-.54.9-.81 1.08-.81.181 0 .722.45 1.623 1.35"/><path stroke="#098EA9" stroke-linecap="round" d="M7.135 10.9V5C3.712 5.72 2 6.802 2 8.243c0 2.162 5.135 3.514 9.73 3.514 4.594 0 10-1.352 10-3.514 0-1.441-1.802-2.522-5.406-3.243v5.9"/><path stroke="#098EA9" d="M2 13.108c.36.72.72 1.081 1.081 1.081.54 0 1.351-1.621 1.892-1.621.36 0 .991.54 1.892 1.621l2.432 2.433"/><path stroke="#098EA9" stroke-linecap="round" d="M12 17.162l3.514-3.784c.36-.36.63-.54.81-.54.27 0 1.622 2.027 2.433 2.027.81 0 2.973-1.216 2.973-2.297"/></g></svg>