<svg xmlns="http://www.w3.org/2000/svg" width="70" height="70"><path d="M41.224 21.498c1.377.195 2.725.54 4.057.95a27.76 27.76 0 0 1 6.583 3.001c.143.09.335.146.504.146 2.424.01 4.847.007 7.269.009.195 0 .39.02.584.031 0 .048.007.068-.001.079-.113.174-.228.345-.342.52-.822 1.26-1.524 2.58-1.94 4.037-.044.157-.054.288.052.442 2.158 3.098 2.847 6.5 1.945 10.166-.79 3.216-2.634 5.724-5.435 7.5-2.002 1.269-4.214 1.873-6.577 1.886-.993.006-1.98-.127-2.95-.379-2.363-.613-4.389-1.79-6.058-3.574-.22-.235-.427-.48-.662-.744-.883 1.316-1.751 2.61-2.64 3.938l-2.598-3.882c-.06.03-.076.034-.088.045a.403.403 0 0 0-.052.054c-2.019 2.385-4.559 3.846-7.653 4.335a11.958 11.958 0 0 1-5.098-.286 12.155 12.155 0 0 1-6.01-3.746 12.147 12.147 0 0 1-2.95-6.277c-.424-2.222.093-4.364.222-4.884a12.418 12.418 0 0 1 1.923-4.174.482.482 0 0 0 .055-.36c-.365-1.339-.995-2.557-1.732-3.724-.187-.297-.411-.572-.618-.856v-.1c.041.006.082.014.123.014 2.48 0 4.959.002 7.439-.003a.63.63 0 0 0 .32-.104 26.72 26.72 0 0 1 5.55-2.693 30.156 30.156 0 0 1 4.307-1.167 34.507 34.507 0 0 1 4.284-.563c3.512-.27 6.32.102 8.187.363zm-3.109 16.379c0 5.445 4.418 9.894 9.845 9.873 5.446-.02 9.845-4.343 9.84-9.849-.003-5.674-4.606-9.94-10.051-9.829-5.377.112-9.585 4.445-9.634 9.805zm-14.767-9.842c-5.297-.046-9.916 4.375-9.823 10.006.086 5.252 4.414 9.704 9.933 9.656 5.396-.046 9.734-4.452 9.744-9.788a9.82 9.82 0 0 0-9.854-9.874zm.488-2.569c2.993.183 5.621 1.225 7.842 3.245 2.216 2.016 3.515 4.53 3.987 7.487.485-2.922 1.75-5.413 3.924-7.408 2.178-1.998 4.772-3.046 7.715-3.268-3.493-1.553-7.175-2.212-10.966-2.285-4.309-.085-8.5.55-12.502 2.229z"/><path d="M47.94 31.664a6.077 6.077 0 0 1 6.1 6.076 6.106 6.106 0 1 1-12.211.015c.002-3.456 2.85-6.148 6.11-6.091zm3.975 6.091c-.002-2.197-1.778-3.982-3.96-3.982-2.206 0-4.002 1.776-4.011 3.966-.008 2.18 1.797 3.995 3.983 4.001 2.19.009 3.989-1.792 3.988-3.985zm-28.697-6.091c3.368-.004 6.102 2.716 6.093 6.083a6.101 6.101 0 0 1-5.805 6.104 6.108 6.108 0 0 1-6.406-6.102c.007-3.48 2.875-6.143 6.118-6.085zm3.97 6.077c-.006-2.21-1.793-3.972-4.025-3.968-2.152.004-3.955 1.82-3.95 3.981.005 2.185 1.807 3.982 3.999 3.988 2.179.005 3.982-1.81 3.977-4z"/><path d="M47.943 35.733a2.022 2.022 0 0 1 2.022 2.026c-.011 1.112-.911 2.014-2.01 2.015-1.13 0-2.04-.894-2.037-2.001.002-1.15.885-2.04 2.025-2.04zm-24.736-.018a2.04 2.04 0 0 1 2.05 2.035 2.047 2.047 0 0 1-2.044 2.044c-1.155.002-2.046-.89-2.045-2.052 0-1.14.89-2.026 2.04-2.027z"/></svg>