<svg xmlns="http://www.w3.org/2000/svg" width="70" height="70"><g fill="none" fill-rule="evenodd"><circle cx="35" cy="35" r="35" fill="#55ACEE"/><path fill="#FFF" d="M51.032 21.613c-.988.633-3.256 1.552-4.375 1.552v.002a7.014 7.014 0 0 0-11.906 6.411h-.001c-5.254-.137-11-2.77-14.46-7.278-2.127 3.681-.286 7.776 2.127 9.268-.826.062-2.347-.096-3.063-.794-.048 2.443 1.127 5.68 5.411 6.855-.825.444-2.285.317-2.92.223.223 2.062 3.111 4.759 6.27 4.759-1.126 1.302-5.362 3.664-10.115 2.912 3.228 1.965 6.99 3.102 10.973 3.102 11.316 0 20.104-9.171 19.631-20.485l-.003-.039c.001-.029.003-.058.003-.088 0-.035-.003-.069-.004-.103 1.03-.704 2.412-1.95 3.4-3.59-.573.315-2.29.946-3.89 1.103 1.026-.554 2.547-2.368 2.922-3.81"/></g></svg>