<svg xmlns="http://www.w3.org/2000/svg" width="40" height="40"><path d="M19.998 10c-8.34 0-15.686 3.958-19.844 9.972a.957.957 0 0 0 0 1.042C4.312 27.028 11.658 31 19.998 31c8.34 0 15.686-3.972 19.843-9.986.203-.286.22-.743 0-1.042C35.684 13.958 28.338 10 19.998 10zm0 2.283c4.53 0 8.181 3.668 8.181 8.217 0 4.55-3.652 8.217-8.181 8.217-4.53 0-8.182-3.668-8.182-8.217 0-4.55 3.652-8.217 8.182-8.217zm-6.25.4c-2.279 1.842-3.75 4.659-3.75 7.817 0 3.158 1.471 5.975 3.75 7.818-4.832-1.329-8.936-4.133-11.676-7.818 2.74-3.689 6.844-6.49 11.676-7.818zm12.5 0c4.831 1.327 8.936 4.128 11.676 7.817-2.74 3.685-6.845 6.49-11.676 7.818 2.278-1.843 3.75-4.66 3.75-7.818 0-3.158-1.472-5.975-3.75-7.818zm-6.25 3.252c-2.5 0-4.546 2.055-4.546 4.565 0 2.51 2.046 4.565 4.546 4.565 2.5 0 4.545-2.054 4.545-4.565 0-2.51-2.046-4.565-4.545-4.565zm0 1.826a2.72 2.72 0 0 1 2.727 2.739 2.72 2.72 0 0 1-2.727 2.74 2.72 2.72 0 0 1-2.728-2.74 2.72 2.72 0 0 1 2.728-2.74z"/></svg>