<svg xmlns="http://www.w3.org/2000/svg" width="70" height="70"><g fill="none" fill-rule="evenodd"><circle cx="35" cy="35" r="35" fill="#3A6197"/><path fill="#FFF" fill-rule="nonzero" d="M46.172 34.366c.41-.567.82-1.135 1.094-1.56 1.915-2.694 2.735-4.396 2.599-5.105l-.274-.141c-.137-.142-.273-.142-.547-.284-.273-.142-.684-.142-1.094 0h-5.607l-.137.284c0 .141-.137.141-.137.283-.547 1.418-1.094 2.836-1.777 3.829a55.76 55.76 0 0 1-1.094 1.843c-.41.567-.684.992-.821 1.134-.274.284-.41.426-.684.567-.137.142-.273.284-.41.142h-.274l-.41-.425c-.137-.142-.137-.426-.137-.71V27.56c0-.142-.136-.426-.136-.567-.137-.142-.137-.284-.41-.426-.137-.142-.41-.142-.548-.283A9.49 9.49 0 0 0 33.043 26c-2.05 0-3.282.142-3.966.425-.273.142-.41.284-.683.568-.137.283-.274.425-.137.425.684.142 1.23.425 1.504.709l.137.283c.137.142.137.426.274.851.136.426.136.85.136 1.276v2.269c0 .567-.136 1.134-.136 1.418 0 .283-.137.567-.274.85-.137.284-.137.284-.274.426 0 0 0 .142-.136.142-.137 0-.274.142-.41.142-.137 0-.41-.142-.548-.284-.273-.142-.41-.425-.683-.709-.274-.284-.547-.709-.82-1.276-.274-.567-.685-1.134-.958-1.843l-.274-.568-.684-1.417c-.273-.568-.547-1.277-.82-1.844a1.952 1.952 0 0 0-.41-.567h.273s-.137-.142-.273-.142c-.137 0-.274-.141-.41-.141h-4.514c-.41 0-.82.141-.957.283v.284c0 .141 0 .283.137.425.684 1.702 1.367 3.12 2.188 4.68.82 1.559 1.504 2.835 2.051 3.544.547.992 1.231 1.843 1.778 2.694.547.85.957 1.418 1.231 1.56.137.283.957.992.957.992.274.284.684.567 1.231.993.547.425 1.094.85 1.778 1.134.684.425 1.368.709 2.188.993.82.283 1.641.283 2.462.283h1.914c.41 0 .684-.142.958-.425v-.142s.136-.142.136-.284v-.425c0-.567 0-.992.137-1.418.137-.425.137-.709.274-.992.136-.142.273-.426.41-.568l.273-.283h.137c.274-.142.547 0 .958.283.41.284.683.568 1.094.993.273.425.683.85 1.23 1.418.41.567.821.85 1.231 1.134l.274.284.82.425c.41.142.684.142.958.142h4.24c.41 0 .82-.142.956-.284.274-.141.41-.283.41-.425v-.567c0-.284-.136-.425-.136-.425 0-.142-.137-.142-.137-.284-.547-1.134-1.64-2.41-3.145-3.828l-1.368-1.418c-.41-.426-.41-.993-.273-1.418-.684 0-.137-.71.82-1.985"/></g></svg>