<svg xmlns="http://www.w3.org/2000/svg" width="28" height="28"><path d="M14.5 13.14a5.567 5.567 0 0 0-3.963 1.642.667.667 0 0 0 .943.942 4.241 4.241 0 0 1 3.02-1.252c1.142 0 2.215.445 3.022 1.252a.664.664 0 0 0 .943 0 .666.666 0 0 0 0-.942A5.572 5.572 0 0 0 14.5 13.14zm0-3.03a8.579 8.579 0 0 0-6.106 2.529.666.666 0 1 0 .942.941 7.257 7.257 0 0 1 5.164-2.139c1.951 0 3.785.76 5.164 2.14a.664.664 0 0 0 .942 0 .666.666 0 0 0 0-.942 8.579 8.579 0 0 0-6.106-2.53zm8.305.33A11.67 11.67 0 0 0 14.5 7a11.667 11.667 0 0 0-8.305 3.44.666.666 0 1 0 .942.942 10.343 10.343 0 0 1 7.363-3.05c2.781 0 5.396 1.083 7.363 3.05a.664.664 0 0 0 .942 0 .666.666 0 0 0 0-.942zm-8.302 6.04c-1.18 0-2.14.96-2.14 2.14 0 1.18.96 2.139 2.14 2.139 1.18 0 2.139-.96 2.139-2.14 0-1.18-.96-2.139-2.14-2.139zm0 2.947a.808.808 0 1 1 0-1.616.808.808 0 0 1 0 1.616z"/></svg>