<svg xmlns="http://www.w3.org/2000/svg" width="70" height="70"><g fill="none" fill-rule="evenodd"><circle cx="35" cy="35" r="35" fill="#E52D27"/><path fill="#FFF" fill-rule="nonzero" d="M54.992 25.381c.875 3.13.841 9.652.841 9.652s0 6.49-.84 9.619c-.472 1.713-1.85 3.063-3.6 3.524C48.198 49 35.417 49 35.417 49s-12.748 0-15.977-.856c-1.75-.462-3.128-1.812-3.6-3.525C15 41.522 15 35 15 35s0-6.49.84-9.619c.472-1.713 1.884-3.096 3.6-3.557C22.635 21 35.417 21 35.417 21s12.781 0 15.976.856c1.75.462 3.128 1.812 3.6 3.525zM31.347 40.995L41.975 35l-10.628-5.995v11.99z"/></g></svg>